<?xml version="1.0" encoding="UTF-8" standalone="no"?>
<svg width="499px" height="525px" viewBox="0 0 499 525" version="1.1" xmlns="http://www.w3.org/2000/svg" xmlns:xlink="http://www.w3.org/1999/xlink">
    <!-- Generator: Sketch 3.6.1 (26313) - http://www.bohemiancoding.com/sketch -->
    <title>cycle-action</title>
    <desc>Created with Sketch.</desc>
    <defs></defs>
    <g id="Page-1" stroke="none" stroke-width="1" fill="none" fill-rule="evenodd">
        <g id="cycle-action" transform="translate(-1.000000, -1.000000)">
            <g id="Group" transform="translate(34.793814, 34.793814)">
                <path d="M160.917526,446.899485 C280.569588,485.805412 409.10567,420.358247 448.01933,300.710052" id="Shape" stroke="#BE202E" stroke-width="2"></path>
                <path d="M17.257732,161.242268 C-21.6533505,280.891753 43.7938144,409.427835 163.44201,448.342784" id="Shape" stroke="#F15B2A" stroke-width="2"></path>
                <path d="M235.934278,232.978093 L308.703608,17.0708763" id="Shape" stroke="#D1D3D4" stroke-width="2"></path>
                <path d="M162.751289,449.972938 L235.520619,234.065722" id="Shape" stroke="#D1D3D4" stroke-width="2" stroke-dasharray="3,10"></path>
                <g transform="translate(153.350515, 350.515464)">
                    <path d="M3.06443299,92.3569588 C5.69458763,89.7255155 9.95876289,89.7242268 12.5889175,92.3569588 C15.2242268,94.9896907 15.2216495,99.253866 12.5914948,101.884021 C9.96134021,104.516753 5.69458763,104.51933 3.06443299,101.886598 C0.429123711,99.25 0.434278351,94.9871134 3.06443299,92.3569588 L3.06443299,92.3569588 Z" id="Shape" stroke="#BE202E" stroke-width="2" fill="#FFFFFF"></path>
                    <ellipse id="Oval" stroke="#FFFFFF" fill="#BE202E" cx="71.2332474" cy="106.542526" rx="4.35051546" ry="4.35051546"></ellipse>
                    <circle id="Oval" stroke="#FFFFFF" fill="#BE202E" cx="130.011598" cy="101.215206" r="4.35051546"></circle>
                    <path d="M184.559278,76.4755155 C186.257732,74.7757732 189.011598,74.7757732 190.710052,76.4755155 C192.411082,78.1752577 192.408505,80.9291237 190.710052,82.6275773 C189.011598,84.3273196 186.257732,84.3273196 184.559278,82.6275773 C182.85567,80.9265464 182.859536,78.1739691 184.559278,76.4755155 L184.559278,76.4755155 Z" id="Shape" stroke="#FFFFFF" fill="#BE202E"></path>
                    <ellipse id="Oval" stroke="#FFFFFF" fill="#BE202E" cx="232.917526" cy="48.9188144" rx="4.35051546" ry="4.35051546"></ellipse>
                    <ellipse id="Oval" stroke="#FFFFFF" fill="#BE202E" cx="268.612113" cy="5.32345361" rx="4.35051546" ry="4.35051546"></ellipse>
                </g>
                <g transform="translate(18.041237, 0.000000)">
                    <path d="M287.256443,15.9768041 C167.608247,-22.931701 39.0734536,42.5167526 0.162371134,162.166237" id="Shape" stroke="#FBB040" stroke-width="2"></path>
                    <path d="M285.396907,12.4690722 C288.027062,9.83505155 292.291237,9.83505155 294.92268,12.4690722 C297.555412,15.1005155 297.550258,19.3634021 294.92268,21.9935567 C292.289948,24.6275773 288.025773,24.6301546 285.393041,21.9974227 C282.761598,19.3595361 282.764175,15.0979381 285.396907,12.4690722 L285.396907,12.4690722 Z" id="Shape" stroke="#FFFFFF" fill="#FBAF40"></path>
                    <ellipse id="Oval" stroke="#FFFFFF" fill="#FBAF40" cx="15.9046392" cy="125.917526" rx="4.35051546" ry="4.35051546"></ellipse>
                    <ellipse id="Oval" stroke="#FFFFFF" fill="#FBAF40" cx="159.561856" cy="11.4703608" rx="4.35051546" ry="4.35051546"></ellipse>
                    <ellipse id="Oval" stroke="#FFFFFF" fill="#FBAF40" cx="247.020619" cy="6.14304124" rx="4.35051546" ry="4.35051546"></ellipse>
                    <ellipse id="Oval" stroke="#FFFFFF" fill="#FBAF40" cx="34.7280928" cy="97.2396907" rx="4.35051546" ry="4.35051546"></ellipse>
                    <ellipse id="Oval" stroke="#FFFFFF" fill="#FBAF40" cx="88.7113402" cy="44.943299" rx="4.35051546" ry="4.35051546"></ellipse>
                    <ellipse id="Oval" stroke="#FFFFFF" fill="#FBAF40" cx="120.762887" cy="26.3878866" rx="4.35180412" ry="4.35180412"></ellipse>
                    <ellipse id="Oval" stroke="#FFFFFF" fill="#FBAF40" cx="201.470361" cy="4.72293814" rx="4.35180412" ry="4.35180412"></ellipse>
                    <circle id="Oval" stroke="#FFFFFF" fill="#FBAF40" cx="58.0773196" cy="70.5154639" r="4.35051546"></circle>
                </g>
                <g transform="translate(16.752577, 16.752577)" id="Shape" stroke-width="2">
                    <path d="M432.431701,284.895619 C471.421392,165.003866 409.751289,39.5115979 289.853093,0.519329897" stroke="#9E2062"></path>
                    <path d="M430.152062,287.881443 L1.03092784,144.114691" stroke="#D1D3D4"></path>
                </g>
                <path d="M442.130155,299.859536 C444.768041,297.222938 449.036082,297.221649 451.676546,299.859536 C454.314433,302.497423 454.311856,306.76933 451.676546,309.404639 C449.03866,312.042526 444.768041,312.045103 442.130155,309.407216 C439.489691,306.768041 439.494845,302.496134 442.130155,299.859536 L442.130155,299.859536 Z" id="Shape" stroke="#9E2062" stroke-width="2" fill="#FFFFFF"></path>
                <path d="M303.385309,12.4884021 C306.020619,9.85180412 310.28866,9.85051546 312.926546,12.4884021 C315.56701,15.1262887 315.56701,19.3981959 312.929124,22.0335052 C310.293814,24.6713918 306.020619,24.6739691 303.382732,22.0360825 C300.744845,19.3969072 300.747423,15.1237113 303.385309,12.4884021 L303.385309,12.4884021 Z" id="Shape" stroke="#FBAF40" stroke-width="2" fill="#FFFFFF"></path>
                <ellipse id="Oval" stroke="#FFFFFF" fill="#9E2062" cx="366.217784" cy="46.9884021" rx="4.35953608" ry="4.35953608"></ellipse>
                <ellipse id="Oval" stroke="#FFFFFF" fill="#9E2062" cx="452.695876" cy="166.742268" rx="4.35953608" ry="4.35953608"></ellipse>
                <ellipse id="Oval" stroke="#FFFFFF" fill="#9E2062" cx="419.155928" cy="99.3917526" rx="4.36082474" ry="4.36082474"></ellipse>
                <ellipse id="Oval" stroke="#FFFFFF" fill="#9E2062" cx="459.725515" cy="239.429124" rx="4.35953608" ry="4.35953608"></ellipse>
                <g transform="translate(0.000000, 153.350515)">
                    <path d="M13.0206186,2.75386598 C15.6507732,0.12242268 19.9149485,0.121134021 22.5463918,2.75386598 C25.1765464,5.38530928 25.1765464,9.6507732 22.5463918,12.2796392 C19.9162371,14.9123711 15.6507732,14.9149485 13.0206186,12.2822165 C10.3853093,9.64819588 10.3891753,5.38530928 13.0206186,2.75386598 L13.0206186,2.75386598 Z" id="Shape" stroke="#F15B2A" stroke-width="2" fill="#FFFFFF"></path>
                    <ellipse id="Oval" stroke="#FFFFFF" fill="#F15B2A" cx="16.8170103" cy="148.238402" rx="4.35180412" ry="4.35180412"></ellipse>
                    <path d="M2.20103093,75.7293814 C3.8943299,74.0296392 6.64819588,74.0296392 8.35051546,75.7293814 C10.0515464,77.4278351 10.0489691,80.1829897 8.35309278,81.8801546 C6.65206186,83.5811856 3.89561856,83.5811856 2.19974227,81.8801546 C0.49742268,80.1804124 0.5,77.4265464 2.20103093,75.7293814 L2.20103093,75.7293814 Z" id="Shape" stroke="#FFFFFF" fill="#F15B2A"></path>
                    <ellipse id="Oval" stroke="#FFFFFF" fill="#F15B2A" cx="47.4484536" cy="210.657216" rx="4.35180412" ry="4.35180412"></ellipse>
                    <ellipse id="Oval" stroke="#FFFFFF" fill="#F15B2A" cx="98.0592784" cy="261.266753" rx="4.35051546" ry="4.35051546"></ellipse>
                </g>
            </g>
            <path d="M250.338918,42.8041237 L249.747423,37.0863402 L234.094072,35.7319588 L215.181701,38.6417526 L217.789948,48.1585052 L250.338918,42.8041237 Z" id="Shape" fill="#FFFFFF"></path>
            <path d="M320.33634,478.779639 L369.431701,460.509021 L371.153351,462.590206 L372.092784,467.16366 L374.469072,470.876289 L323.224227,491.399485 L322.078608,489.614691 L323.097938,486.17268 C323.097938,486.17268 318.889175,480.372423 318.889175,480.181701 C318.889175,479.990979 320.33634,478.779639 320.33634,478.779639 L320.33634,478.779639 Z" id="Shape" fill="#FFFFFF"></path>
            <path d="M288.009021,306.356959 L340.436856,525.755155 C360.574742,520.738402 366.333763,520.443299 382.44201,509.286082" id="Shape" fill="#F3C2CC"></path>
            <path d="M399.26933,89.992268 L401.791237,86.1430412 L405.176546,83.064433 L408.498711,77.4213918 L458.30799,126.458763 L453.949742,129.824742 L448.737113,132.746134 L399.26933,89.992268 Z" id="Shape" fill="#FFFFFF"></path>
            <path d="M316.248711,226.168814 L496.608247,79.6791237 C483.882732,62.564433 468.701031,48.3389175 453.472938,35.1636598" id="Shape" fill="#E8B3D1"></path>
            <path d="M253.318299,210.766753 L245.786082,1.93427835 C237.462629,0.454896907 226.426546,0.649484536 213.809278,5.88917526" id="Shape" fill="#F9E3BD"></path>
            <path d="M34.4755155,269.850515 L36.992268,270.024485 L40.060567,271.300258 L45.7203608,269.850515 L55.9626289,332.030928 L51.6108247,332.032216 L47.7719072,334.332474 L44.4175258,334.332474 L33.3724227,306.347938 L34.4755155,269.850515 Z" id="Shape" fill="#FFFFFF"></path>
            <path d="M225.487113,278.583763 L1.15335052,275.266753 C1.60953608,296.590206 2.73840206,317.865979 7.51675258,337.425258" id="Shape" fill="#FBC7B8"></path>
        </g>
    </g>
</svg>