<?xml version="1.0" encoding="utf-8"?>
<!-- Generator: Adobe Illustrator 19.1.0, SVG Export Plug-In . SVG Version: 6.00 Build 0)  -->
<svg version="1.1" id="Layer_1" xmlns="http://www.w3.org/2000/svg" xmlns:xlink="http://www.w3.org/1999/xlink" x="0px" y="0px"
	 viewBox="0 0 556.472 481.872" enable-background="new 0 0 556.472 481.872" xml:space="preserve">
<path opacity="0.25" fill="#9E2062" d="M348.575,40.068c109.016,35.453,164.724,144.94,129.274,253.952l-195.573-62.252
	L348.575,40.068z"/>
<path fill="none" stroke="#9E2062" stroke-width="3" stroke-miterlimit="10" d="M478.011,297.397
	c35.379-108.789-20.58-222.658-129.373-258.039"/>
<g>
	<path fill="none" stroke="#E7E7E7" stroke-width="2" stroke-miterlimit="10" d="M82.871,167.881
		C47.492,276.668,107.89,394.43,216.683,429.812"/>
</g>
<path fill="none" stroke="#E7E7E7" stroke-width="2" stroke-miterlimit="10" d="M346.6,38.355
	C237.809,2.978,118.252,59.088,82.871,167.881"/>
<path fill="none" stroke="#E7E7E7" stroke-width="2" stroke-miterlimit="10" d="M216.683,429.812
	c108.789,35.375,225.785-24.107,261.166-132.897"/>
<g>
	<g>
		<path fill="#A7A9AC" d="M165.733,452.708v3.886h-1.309v-9.927h3.662c1.087,0,1.937,0.277,2.553,0.832
			c0.616,0.555,0.924,1.289,0.924,2.202c0,0.964-0.301,1.707-0.903,2.227c-0.602,0.52-1.465,0.78-2.588,0.78H165.733z
			 M165.733,451.637h2.353c0.7,0,1.237-0.165,1.609-0.495c0.372-0.329,0.559-0.807,0.559-1.431c0-0.592-0.187-1.065-0.559-1.42
			c-0.372-0.356-0.884-0.539-1.535-0.554h-2.427V451.637z"/>
		<path fill="#A7A9AC" d="M180.869,451.952c0,0.972-0.164,1.821-0.491,2.546c-0.327,0.725-0.791,1.279-1.391,1.66
			c-0.6,0.382-1.3,0.573-2.1,0.573c-0.782,0-1.475-0.192-2.079-0.576c-0.604-0.384-1.074-0.932-1.408-1.644
			c-0.335-0.711-0.506-1.535-0.515-2.471v-0.715c0-0.954,0.166-1.798,0.498-2.53c0.332-0.732,0.8-1.292,1.408-1.68
			c0.606-0.389,1.301-0.583,2.083-0.583c0.795,0,1.496,0.192,2.103,0.576c0.606,0.384,1.073,0.941,1.4,1.671
			c0.327,0.729,0.491,1.578,0.491,2.547V451.952z M179.567,451.31c0-1.177-0.236-2.08-0.709-2.71
			c-0.473-0.629-1.134-0.945-1.984-0.945c-0.828,0-1.479,0.316-1.954,0.945c-0.475,0.629-0.718,1.503-0.733,2.621v0.73
			c0,1.14,0.24,2.037,0.72,2.69c0.479,0.652,1.14,0.978,1.98,0.978c0.845,0,1.5-0.307,1.964-0.923
			c0.464-0.616,0.703-1.499,0.716-2.65V451.31z"/>
		<path fill="#A7A9AC" d="M185.97,454.855l2.836-8.188h1.431l-3.682,9.927h-1.158l-3.675-9.927h1.424L185.97,454.855z"/>
		<path fill="#A7A9AC" d="M197.179,452.006h-4.303v3.518h4.998v1.07h-6.307v-9.927h6.239v1.07h-4.93v3.198h4.303V452.006z"/>
		<path fill="#A7A9AC" d="M203.146,452.579h-2.333v4.015h-1.315v-9.927h3.286c1.118,0,1.978,0.255,2.58,0.764
			c0.602,0.509,0.903,1.25,0.903,2.223c0,0.618-0.167,1.157-0.5,1.616c-0.335,0.458-0.799,0.801-1.394,1.029l2.331,4.214v0.082
			H205.3L203.146,452.579z M200.813,451.508h2.012c0.65,0,1.167-0.169,1.551-0.506c0.384-0.337,0.576-0.788,0.576-1.352
			c0-0.615-0.183-1.086-0.549-1.414c-0.366-0.328-0.895-0.494-1.585-0.499h-2.006V451.508z"/>
		<path fill="#A7A9AC" d="M214.416,447.737h-3.191v8.857h-1.303v-8.857h-3.185v-1.07h7.678V447.737z"/>
		<path fill="#A7A9AC" d="M219.024,451.652l2.591-4.985h1.487l-3.424,6.224v3.703h-1.309v-3.703l-3.422-6.224h1.5L219.024,451.652z"
			/>
	</g>
</g>
<g>
	<g>
		<path d="M496.672,301.482h-2.397v4.126h-1.352v-10.2h3.377c1.149,0,2.033,0.262,2.651,0.785c0.619,0.523,0.928,1.285,0.928,2.284
			c0,0.635-0.171,1.189-0.514,1.661c-0.344,0.471-0.821,0.823-1.432,1.057l2.395,4.329v0.084h-1.442L496.672,301.482z
			 M494.275,300.382h2.067c0.668,0,1.199-0.174,1.594-0.52c0.394-0.346,0.592-0.809,0.592-1.389c0-0.632-0.188-1.115-0.564-1.453
			c-0.376-0.337-0.919-0.508-1.628-0.513h-2.061V300.382z"/>
		<path d="M507.53,300.894h-4.421v3.615h5.135v1.099h-6.481v-10.2h6.41v1.099h-5.065v3.286h4.421V300.894z"/>
		<path d="M515.684,300.894h-4.421v3.615h5.136v1.099h-6.481v-10.2h6.411v1.099h-5.066v3.286h4.421V300.894z"/>
		<path d="M525.912,305.608h-1.352l-5.136-7.86v7.86h-1.353v-10.2h1.353l5.149,7.896v-7.896h1.339V305.608z"/>
		<path d="M535.146,296.507h-3.279v9.101h-1.339v-9.101h-3.272v-1.099h7.889V296.507z"/>
		<path d="M540.4,301.482h-2.397v4.126h-1.352v-10.2h3.377c1.149,0,2.033,0.262,2.651,0.785c0.619,0.523,0.928,1.285,0.928,2.284
			c0,0.635-0.171,1.189-0.514,1.661c-0.344,0.471-0.821,0.823-1.432,1.057l2.395,4.329v0.084h-1.442L540.4,301.482z
			 M538.003,300.382h2.067c0.668,0,1.199-0.174,1.594-0.52c0.394-0.346,0.592-0.809,0.592-1.389c0-0.632-0.188-1.115-0.564-1.453
			c-0.376-0.337-0.919-0.508-1.629-0.513h-2.061V300.382z"/>
		<path d="M548.265,300.529l2.662-5.122h1.528l-3.518,6.395v3.805h-1.345v-3.805l-3.516-6.395h1.541L548.265,300.529z"/>
	</g>
</g>
<g>
	<g>
		<path fill="#A7A9AC" d="M26.431,169.135h-4.158l-0.935,2.597h-1.35l3.791-9.927h1.145l3.797,9.927h-1.343L26.431,169.135z
			 M22.667,168.064h3.375l-1.691-4.644L22.667,168.064z"/>
		<path fill="#A7A9AC" d="M33.7,167.717h-2.333v4.015h-1.315v-9.927h3.286c1.118,0,1.978,0.255,2.58,0.764s0.903,1.25,0.903,2.223
			c0,0.618-0.167,1.157-0.5,1.617c-0.335,0.458-0.799,0.801-1.394,1.029l2.331,4.214v0.082h-1.404L33.7,167.717z M31.367,166.646
			h2.012c0.65,0,1.167-0.169,1.551-0.506c0.384-0.337,0.576-0.788,0.576-1.352c0-0.615-0.183-1.086-0.549-1.414
			c-0.366-0.328-0.895-0.494-1.585-0.499h-2.006V166.646z"/>
		<path fill="#A7A9AC" d="M42.297,167.717h-2.333v4.015h-1.315v-9.927h3.286c1.118,0,1.978,0.255,2.581,0.764
			s0.903,1.25,0.903,2.223c0,0.618-0.167,1.157-0.5,1.617c-0.335,0.458-0.799,0.801-1.394,1.029l2.331,4.214v0.082h-1.404
			L42.297,167.717z M39.964,166.646h2.012c0.65,0,1.167-0.169,1.551-0.506c0.384-0.337,0.576-0.788,0.576-1.352
			c0-0.615-0.182-1.086-0.549-1.414c-0.366-0.328-0.895-0.494-1.585-0.499h-2.006V166.646z"/>
		<path fill="#A7A9AC" d="M52.865,167.144h-4.303v3.518h4.998v1.07h-6.307v-9.927h6.239v1.07h-4.93v3.198h4.303V167.144z"/>
		<path fill="#A7A9AC" d="M58.115,167.308c-1.122-0.323-1.939-0.719-2.451-1.191c-0.511-0.47-0.767-1.051-0.767-1.742
			c0-0.781,0.313-1.428,0.938-1.939c0.625-0.511,1.437-0.767,2.437-0.767c0.682,0,1.29,0.132,1.824,0.395
			c0.534,0.263,0.948,0.627,1.241,1.091c0.294,0.464,0.441,0.97,0.441,1.52h-1.316c0-0.602-0.191-1.075-0.573-1.419
			c-0.382-0.344-0.92-0.517-1.617-0.517c-0.645,0-1.149,0.143-1.509,0.428c-0.362,0.284-0.542,0.679-0.542,1.184
			c0,0.406,0.172,0.748,0.515,1.028c0.343,0.28,0.927,0.536,1.752,0.769c0.826,0.232,1.471,0.488,1.936,0.768
			c0.466,0.279,0.812,0.605,1.036,0.978c0.226,0.373,0.338,0.812,0.338,1.316c0,0.805-0.314,1.449-0.941,1.933
			c-0.627,0.484-1.466,0.726-2.515,0.726c-0.682,0-1.319-0.131-1.909-0.392c-0.592-0.261-1.047-0.619-1.368-1.074
			c-0.32-0.454-0.48-0.97-0.48-1.547h1.315c0,0.6,0.222,1.074,0.665,1.421c0.444,0.348,1.035,0.522,1.777,0.522
			c0.69,0,1.22-0.142,1.588-0.424c0.368-0.281,0.552-0.665,0.552-1.152s-0.17-0.862-0.511-1.129
			C59.629,167.829,59.011,167.566,58.115,167.308z"/>
		<path fill="#A7A9AC" d="M70.334,162.875h-3.191v8.857H65.84v-8.857h-3.185v-1.07h7.678V162.875z"/>
	</g>
</g>
<line fill="none" stroke="#E7E7E7" stroke-width="2" stroke-miterlimit="10" x1="281.231" y1="232.16" x2="82.112" y2="168.375"/>
<g>
	
		<line opacity="0.65" fill="none" stroke="#FFFFFF" stroke-width="0.5" stroke-miterlimit="10" x1="396.739" y1="62.349" x2="282.566" y2="231.484"/>
	
		<line opacity="0.65" fill="none" stroke="#FFFFFF" stroke-width="0.5" stroke-miterlimit="10" x1="447.494" y1="108.687" x2="282.566" y2="231.484"/>
	
		<line opacity="0.65" fill="none" stroke="#FFFFFF" stroke-width="0.5" stroke-miterlimit="10" x1="479.021" y1="170.575" x2="282.566" y2="231.484"/>
	
		<line opacity="0.65" fill="none" stroke="#FFFFFF" stroke-width="0.5" stroke-miterlimit="10" x1="488.308" y1="236.67" x2="282.566" y2="231.484"/>
</g>
<path fill="#9E2062" stroke="#FFFFFF" stroke-miterlimit="10" d="M393.936,59.547c1.547-1.549,4.057-1.549,5.605,0
	c1.549,1.549,1.547,4.057,0.002,5.605c-1.549,1.549-4.061,1.549-5.607,0C392.385,63.602,392.387,61.094,393.936,59.547z"/>
<circle fill="#9E2062" stroke="#FFFFFF" stroke-miterlimit="10" cx="479.021" cy="170.576" r="3.964"/>
<path fill="#9E2062" stroke="#FFFFFF" stroke-miterlimit="10" d="M444.69,105.884c1.549-1.549,4.059-1.549,5.607,0
	c1.549,1.551,1.545,4.059,0,5.606c-1.549,1.549-4.059,1.549-5.607,0C443.141,109.94,443.145,107.433,444.69,105.884z"/>
<circle fill="#9E2062" stroke="#FFFFFF" stroke-miterlimit="10" cx="488.485" cy="236.671" r="3.964"/>
<line fill="none" stroke="#E7E7E7" stroke-width="2" stroke-miterlimit="10" x1="479.101" y1="295.514" x2="279.982" y2="231.729"/>
<line fill="none" stroke="#E7E7E7" stroke-width="2" stroke-miterlimit="10" x1="281.231" y1="232.16" x2="348.576" y2="37.467"/>
<path fill="#9E2062" stroke="#FFFFFF" stroke-miterlimit="10" d="M474.772,291.181c2.393-2.393,6.268-2.393,8.662,0
	c2.395,2.395,2.391,6.27,0,8.662c-2.395,2.393-6.27,2.396-8.664,0.002C472.375,297.448,472.379,293.571,474.772,291.181z"/>
<path fill="#9E2062" stroke="#FFFFFF" stroke-miterlimit="10" d="M344.246,33.137c2.391-2.394,6.268-2.394,8.66,0
	c2.395,2.393,2.391,6.27,0,8.66c-2.393,2.394-6.27,2.396-8.664,0.004C341.849,39.402,341.851,35.527,344.246,33.137z"/>
<g>
	<path d="M365.287,22.799c-0.123,1.05-0.51,1.86-1.162,2.43c-0.652,0.571-1.519,0.856-2.601,0.856c-1.173,0-2.113-0.421-2.82-1.261
		c-0.706-0.841-1.06-1.967-1.06-3.375v-0.955c0-0.923,0.165-1.734,0.495-2.434c0.329-0.701,0.796-1.238,1.401-1.613
		c0.605-0.375,1.304-0.562,2.1-0.562c1.055,0,1.9,0.295,2.536,0.883c0.636,0.588,1.007,1.403,1.111,2.444h-1.316
		c-0.114-0.793-0.36-1.368-0.74-1.723c-0.379-0.356-0.91-0.534-1.592-0.534c-0.836,0-1.492,0.309-1.967,0.928
		c-0.475,0.619-0.712,1.499-0.712,2.641v0.962c0,1.078,0.225,1.936,0.675,2.573c0.45,0.637,1.079,0.956,1.889,0.956
		c0.728,0,1.285-0.166,1.674-0.495c0.388-0.329,0.646-0.903,0.774-1.721H365.287z"/>
	<path d="M374.71,21.306c0,0.972-0.164,1.821-0.491,2.546c-0.327,0.725-0.791,1.279-1.391,1.66c-0.6,0.382-1.3,0.573-2.1,0.573
		c-0.782,0-1.475-0.192-2.08-0.576c-0.605-0.384-1.074-0.933-1.408-1.644c-0.335-0.711-0.506-1.535-0.515-2.471v-0.715
		c0-0.955,0.166-1.798,0.498-2.53s0.801-1.292,1.408-1.68c0.606-0.389,1.301-0.583,2.083-0.583c0.796,0,1.496,0.192,2.104,0.576
		c0.606,0.384,1.074,0.941,1.401,1.671c0.327,0.729,0.491,1.578,0.491,2.547V21.306z M373.408,20.664
		c0-1.177-0.237-2.08-0.709-2.709c-0.473-0.629-1.134-0.945-1.984-0.945c-0.827,0-1.479,0.316-1.954,0.945
		c-0.475,0.629-0.719,1.503-0.733,2.621v0.73c0,1.14,0.24,2.037,0.719,2.69c0.48,0.653,1.14,0.978,1.981,0.978
		c0.845,0,1.5-0.307,1.964-0.923s0.702-1.499,0.716-2.65V20.664z"/>
	<path d="M384.303,25.949h-1.316l-4.998-7.65v7.65h-1.316v-9.927h1.316l5.011,7.685v-7.685h1.302V25.949z"/>
	<path d="M389.914,24.21l2.836-8.188h1.432l-3.682,9.927h-1.159l-3.675-9.927h1.425L389.914,24.21z"/>
	<path d="M396.917,25.949h-1.309v-9.927h1.309V25.949z"/>
	<path d="M406.612,22.799c-0.123,1.05-0.51,1.86-1.162,2.43c-0.652,0.571-1.519,0.856-2.601,0.856c-1.173,0-2.113-0.421-2.82-1.261
		c-0.706-0.841-1.06-1.967-1.06-3.375v-0.955c0-0.923,0.165-1.734,0.495-2.434c0.329-0.701,0.796-1.238,1.401-1.613
		c0.605-0.375,1.304-0.562,2.1-0.562c1.055,0,1.9,0.295,2.536,0.883c0.636,0.588,1.007,1.403,1.111,2.444h-1.316
		c-0.114-0.793-0.36-1.368-0.74-1.723c-0.379-0.356-0.91-0.534-1.592-0.534c-0.837,0-1.492,0.309-1.967,0.928
		c-0.475,0.619-0.712,1.499-0.712,2.641v0.962c0,1.078,0.225,1.936,0.675,2.573c0.45,0.637,1.079,0.956,1.889,0.956
		c0.728,0,1.285-0.166,1.674-0.495c0.388-0.329,0.646-0.903,0.774-1.721H406.612z"/>
	<path d="M415.06,17.092h-3.191v8.857h-1.302v-8.857h-3.184v-1.07h7.677V17.092z"/>
	<path d="M417.937,25.949h-1.309v-9.927h1.309V25.949z"/>
	<path d="M427.967,21.306c0,0.972-0.164,1.821-0.491,2.546c-0.327,0.725-0.791,1.279-1.391,1.66s-1.3,0.573-2.1,0.573
		c-0.782,0-1.475-0.192-2.08-0.576c-0.605-0.384-1.074-0.933-1.408-1.644c-0.335-0.711-0.506-1.535-0.515-2.471v-0.715
		c0-0.955,0.166-1.798,0.498-2.53s0.801-1.292,1.408-1.68c0.606-0.389,1.301-0.583,2.083-0.583c0.796,0,1.496,0.192,2.104,0.576
		c0.606,0.384,1.074,0.941,1.401,1.671c0.327,0.729,0.491,1.578,0.491,2.547V21.306z M426.664,20.664
		c0-1.177-0.236-2.08-0.709-2.709c-0.473-0.629-1.134-0.945-1.984-0.945c-0.827,0-1.479,0.316-1.954,0.945
		c-0.475,0.629-0.719,1.503-0.733,2.621v0.73c0,1.14,0.24,2.037,0.719,2.69c0.48,0.653,1.14,0.978,1.981,0.978
		c0.845,0,1.5-0.307,1.964-0.923c0.464-0.616,0.702-1.499,0.716-2.65V20.664z"/>
	<path d="M437.56,25.949h-1.316l-4.998-7.65v7.65h-1.316v-9.927h1.316l5.011,7.685v-7.685h1.302V25.949z"/>
</g>
</svg>
