<?xml version="1.0" encoding="utf-8"?>
<!-- Generator: Adobe Illustrator 19.1.0, SVG Export Plug-In . SVG Version: 6.00 Build 0)  -->
<svg version="1.1" id="Layer_1" xmlns="http://www.w3.org/2000/svg" xmlns:xlink="http://www.w3.org/1999/xlink" x="0px" y="0px"
	 viewBox="0 0 43 43" width="43" height="43" preserveAspectRatio="xMinYMid" enable-background="new 0 0 43 43" xml:space="preserve">
<path opacity="0.75" d="M15.742,40.834L28.219,2.462c0,0-18.742-6.352-25.922,12.679C-3.426,33.744,15.742,40.834,15.742,40.834z"/>
<g>
	<g>
		<path fill="none" stroke="#000000" stroke-miterlimit="10" d="M40.67,27.618c3.445-10.597-2.352-21.982-12.949-25.427"/>
		<line fill="none" stroke="#000000" stroke-miterlimit="10" x1="40.758" y1="27.704" x2="21.572" y2="21.464"/>
		<path fill="none" stroke="#000000" stroke-miterlimit="10" d="M15.228,40.485c10.598,3.446,21.984-2.353,25.43-12.951"/>
		<path fill="none" stroke="#000000" stroke-miterlimit="10" d="M27.721,2.192C17.125-1.255,5.74,4.542,2.297,15.141"/>
		<path fill="none" stroke="#000000" stroke-miterlimit="10" d="M2.32,15.141c-3.449,10.593,2.35,21.978,12.947,25.424"/>
	</g>
	<line fill="none" stroke="#000000" stroke-miterlimit="10" x1="22.064" y1="21.619" x2="2.252" y2="15.232"/>
	<line fill="none" stroke="#000000" stroke-miterlimit="10" x1="21.691" y1="21.571" x2="28.133" y2="2.449"/>
</g>
</svg>
