<?xml version="1.0" encoding="utf-8"?>
<!-- Generator: Adobe Illustrator 19.1.0, SVG Export Plug-In . SVG Version: 6.00 Build 0)  -->
<svg version="1.1" id="Layer_1" xmlns="http://www.w3.org/2000/svg" xmlns:xlink="http://www.w3.org/1999/xlink" x="0px" y="0px"
	 viewBox="0 0 556.472 481.872" enable-background="new 0 0 556.472 481.872" xml:space="preserve">
<g opacity="0.25">
	<path fill="#F15B2A" d="M216.107,427.876C107.492,392.55,45.66,275.87,80.98,167.257l200.25,64.903"/>
</g>
<path fill="none" stroke="#E7E7E7" stroke-width="2" stroke-miterlimit="10" d="M478.011,297.397
	c35.379-108.789-20.58-222.658-129.373-258.039"/>
<g>
	<path fill="none" stroke="#F15B2A" stroke-width="3" stroke-miterlimit="10" d="M82.87,167.881
		C47.491,276.668,106.997,393.537,215.79,428.92"/>
</g>
<path fill="none" stroke="#E7E7E7" stroke-width="2" stroke-miterlimit="10" d="M348.016,39.082
	C239.225,3.705,119.276,59.457,83.896,168.25"/>
<path fill="none" stroke="#E7E7E7" stroke-width="2" stroke-miterlimit="10" d="M216.808,429.838
	c108.789,35.375,225.66-24.133,261.041-132.922"/>
<g>
	<path d="M165.732,452.708v3.886h-1.309v-9.927h3.662c1.087,0,1.937,0.277,2.553,0.832c0.616,0.555,0.924,1.289,0.924,2.202
		c0,0.964-0.301,1.707-0.903,2.227c-0.602,0.52-1.465,0.78-2.588,0.78H165.732z M165.732,451.637h2.353
		c0.7,0,1.237-0.165,1.609-0.495c0.372-0.329,0.559-0.807,0.559-1.431c0-0.592-0.187-1.065-0.559-1.42
		c-0.372-0.356-0.884-0.539-1.535-0.554h-2.427V451.637z"/>
	<path d="M180.869,451.952c0,0.972-0.164,1.821-0.491,2.546c-0.327,0.725-0.791,1.279-1.391,1.66
		c-0.6,0.382-1.299,0.573-2.099,0.573c-0.782,0-1.475-0.192-2.079-0.576c-0.604-0.384-1.074-0.932-1.408-1.644
		c-0.335-0.711-0.506-1.535-0.515-2.471v-0.715c0-0.955,0.166-1.798,0.498-2.53c0.331-0.732,0.8-1.292,1.408-1.68
		c0.606-0.389,1.301-0.583,2.083-0.583c0.795,0,1.496,0.192,2.103,0.576c0.606,0.384,1.073,0.941,1.4,1.671
		c0.327,0.729,0.491,1.578,0.491,2.547V451.952z M179.567,451.31c0-1.177-0.236-2.08-0.709-2.71
		c-0.473-0.629-1.134-0.945-1.984-0.945c-0.828,0-1.479,0.316-1.954,0.945c-0.475,0.629-0.718,1.503-0.733,2.621v0.73
		c0,1.14,0.24,2.037,0.72,2.69c0.479,0.653,1.14,0.978,1.98,0.978c0.845,0,1.5-0.307,1.964-0.923
		c0.464-0.616,0.703-1.499,0.716-2.65V451.31z"/>
	<path d="M185.97,454.855l2.836-8.188h1.431l-3.682,9.927h-1.158l-3.676-9.927h1.424L185.97,454.855z"/>
	<path d="M197.179,452.006h-4.303v3.518h4.998v1.07h-6.307v-9.927h6.239v1.07h-4.93v3.198h4.303V452.006z"/>
	<path d="M203.145,452.579h-2.333v4.015h-1.315v-9.927h3.286c1.118,0,1.978,0.255,2.58,0.764c0.602,0.509,0.903,1.25,0.903,2.223
		c0,0.618-0.167,1.157-0.5,1.616c-0.335,0.458-0.799,0.801-1.394,1.029l2.331,4.214v0.082H205.3L203.145,452.579z M200.812,451.508
		h2.012c0.65,0,1.167-0.169,1.551-0.506c0.384-0.337,0.576-0.788,0.576-1.352c0-0.615-0.182-1.086-0.549-1.414
		c-0.366-0.328-0.895-0.494-1.585-0.499h-2.006V451.508z"/>
	<path d="M214.415,447.737h-3.191v8.857h-1.303v-8.857h-3.185v-1.07h7.679V447.737z"/>
	<path d="M219.023,451.652l2.591-4.985h1.487l-3.424,6.224v3.703h-1.309v-3.703l-3.422-6.224h1.499L219.023,451.652z"/>
</g>
<g>
	<path fill="#A7A9AC" d="M496.671,301.482h-2.397v4.126h-1.352v-10.2h3.377c1.149,0,2.033,0.262,2.651,0.785
		c0.619,0.523,0.928,1.285,0.928,2.284c0,0.635-0.171,1.189-0.514,1.661c-0.344,0.471-0.821,0.823-1.432,1.057l2.395,4.329v0.084
		h-1.442L496.671,301.482z M494.274,300.382h2.067c0.668,0,1.2-0.174,1.594-0.52c0.395-0.346,0.592-0.809,0.592-1.389
		c0-0.632-0.188-1.116-0.564-1.453c-0.376-0.337-0.919-0.508-1.628-0.513h-2.061V300.382z"/>
	<path fill="#A7A9AC" d="M507.53,300.894h-4.421v3.615h5.136v1.099h-6.481v-10.2h6.411v1.099h-5.066v3.286h4.421V300.894z"/>
	<path fill="#A7A9AC" d="M515.684,300.894h-4.421v3.615h5.136v1.099h-6.481v-10.2h6.41v1.099h-5.065v3.286h4.421V300.894z"/>
	<path fill="#A7A9AC" d="M525.912,305.608h-1.352l-5.136-7.86v7.86h-1.353v-10.2h1.353l5.148,7.896v-7.896h1.339V305.608z"/>
	<path fill="#A7A9AC" d="M535.145,296.507h-3.279v9.101h-1.339v-9.101h-3.272v-1.099h7.889V296.507z"/>
	<path fill="#A7A9AC" d="M540.399,301.482h-2.397v4.126h-1.352v-10.2h3.377c1.149,0,2.033,0.262,2.651,0.785
		c0.619,0.523,0.928,1.285,0.928,2.284c0,0.635-0.171,1.189-0.514,1.661c-0.344,0.471-0.821,0.823-1.432,1.057l2.395,4.329v0.084
		h-1.442L540.399,301.482z M538.002,300.382h2.067c0.668,0,1.2-0.174,1.594-0.52c0.394-0.346,0.592-0.809,0.592-1.389
		c0-0.632-0.188-1.116-0.564-1.453c-0.376-0.337-0.919-0.508-1.629-0.513h-2.061V300.382z"/>
	<path fill="#A7A9AC" d="M548.265,300.529l2.662-5.122h1.528l-3.518,6.395v3.805h-1.345v-3.805l-3.516-6.395h1.541L548.265,300.529z
		"/>
</g>
<g>
	<path d="M26.43,169.135h-4.158l-0.935,2.597h-1.35l3.79-9.927h1.146l3.797,9.927h-1.343L26.43,169.135z M22.667,168.064h3.376
		l-1.691-4.644L22.667,168.064z"/>
	<path d="M33.699,167.717h-2.333v4.015h-1.315v-9.927h3.286c1.118,0,1.978,0.255,2.58,0.764c0.602,0.509,0.903,1.25,0.903,2.223
		c0,0.618-0.167,1.157-0.5,1.616c-0.335,0.458-0.799,0.801-1.394,1.029l2.331,4.214v0.082h-1.403L33.699,167.717z M31.367,166.646
		h2.012c0.65,0,1.167-0.169,1.551-0.506c0.384-0.337,0.576-0.788,0.576-1.352c0-0.615-0.182-1.086-0.549-1.414
		c-0.366-0.328-0.895-0.494-1.585-0.499h-2.006V166.646z"/>
	<path d="M42.297,167.717h-2.333v4.015h-1.315v-9.927h3.286c1.118,0,1.978,0.255,2.58,0.764c0.602,0.509,0.903,1.25,0.903,2.223
		c0,0.618-0.167,1.157-0.5,1.616c-0.335,0.458-0.799,0.801-1.394,1.029l2.331,4.214v0.082h-1.403L42.297,167.717z M39.964,166.646
		h2.012c0.65,0,1.167-0.169,1.551-0.506c0.384-0.337,0.576-0.788,0.576-1.352c0-0.615-0.182-1.086-0.549-1.414
		c-0.366-0.328-0.895-0.494-1.585-0.499h-2.006V166.646z"/>
	<path d="M52.865,167.144h-4.303v3.518h4.998v1.07h-6.307v-9.927h6.239v1.07h-4.93v3.198h4.303V167.144z"/>
	<path d="M58.115,167.308c-1.122-0.323-1.94-0.72-2.451-1.191c-0.511-0.47-0.767-1.051-0.767-1.742c0-0.781,0.313-1.428,0.938-1.939
		c0.625-0.511,1.437-0.767,2.437-0.767c0.682,0,1.29,0.132,1.824,0.395c0.534,0.263,0.948,0.627,1.241,1.091
		c0.294,0.464,0.441,0.97,0.441,1.52H60.46c0-0.602-0.191-1.075-0.573-1.419c-0.382-0.344-0.92-0.517-1.616-0.517
		c-0.645,0-1.149,0.143-1.51,0.428c-0.361,0.284-0.542,0.679-0.542,1.184c0,0.406,0.172,0.748,0.515,1.028
		c0.343,0.28,0.927,0.536,1.752,0.769c0.826,0.232,1.471,0.488,1.936,0.768c0.466,0.279,0.812,0.605,1.036,0.978
		c0.225,0.373,0.338,0.812,0.338,1.316c0,0.805-0.314,1.449-0.941,1.933c-0.627,0.484-1.467,0.726-2.515,0.726
		c-0.682,0-1.319-0.131-1.909-0.392c-0.592-0.261-1.047-0.619-1.368-1.074c-0.32-0.454-0.48-0.97-0.48-1.547h1.315
		c0,0.6,0.222,1.074,0.665,1.421c0.444,0.348,1.035,0.522,1.777,0.522c0.69,0,1.22-0.142,1.588-0.424
		c0.368-0.281,0.552-0.665,0.552-1.152c0-0.487-0.17-0.862-0.511-1.129C59.628,167.829,59.011,167.566,58.115,167.308z"/>
	<path d="M70.333,162.875h-3.191v8.857h-1.303v-8.857h-3.185v-1.07h7.678V162.875z"/>
</g>
<line fill="none" stroke="#E7E7E7" stroke-width="2" stroke-miterlimit="10" x1="281.23" y1="232.16" x2="82.111" y2="168.375"/>
<path fill="#F15B2A" stroke="#FFFFFF" stroke-miterlimit="10" d="M78.884,165.049c2.393-2.393,6.268-2.393,8.662,0
	c2.395,2.395,2.391,6.27,0,8.662c-2.395,2.393-6.27,2.396-8.664,0.002C76.487,171.316,76.491,167.439,78.884,165.049z"/>
<path fill="#F15B2A" stroke="#FFFFFF" stroke-miterlimit="10" d="M210.918,424.471c2.393-2.393,6.268-2.393,8.662,0
	c2.395,2.395,2.391,6.27,0,8.662c-2.395,2.393-6.27,2.396-8.664,0.002C208.521,430.738,208.525,426.861,210.918,424.471z"/>
<line fill="none" stroke="#E7E7E7" stroke-width="2" stroke-miterlimit="10" x1="281.23" y1="232.16" x2="348.325" y2="38.191"/>
<g>
	
		<line opacity="0.65" fill="none" stroke="#FFFFFF" stroke-width="0.5" stroke-miterlimit="10" x1="72.662" y1="231.28" x2="280.903" y2="233.077"/>
	
		<line opacity="0.65" fill="none" stroke="#FFFFFF" stroke-width="0.5" stroke-miterlimit="10" x1="280.903" y1="233.077" x2="82.226" y2="294.31"/>
	
		<line opacity="0.65" fill="none" stroke="#FFFFFF" stroke-width="0.5" stroke-miterlimit="10" x1="280.903" y1="233.077" x2="112.824" y2="349.609"/>
	
		<line opacity="0.65" fill="none" stroke="#FFFFFF" stroke-width="0.5" stroke-miterlimit="10" x1="280.903" y1="233.077" x2="157.129" y2="397.295"/>
</g>
<circle fill="#F15B2A" stroke="#FFFFFF" stroke-miterlimit="10" cx="82.227" cy="294.311" r="3.949"/>
<path fill="#F15B2A" stroke="#FFFFFF" stroke-miterlimit="10" d="M68.955,228.488c1.543-1.543,4.043-1.543,5.586,0
	c1.543,1.544,1.541,4.042,0.002,5.584c-1.545,1.544-4.045,1.544-5.588,0C67.412,232.529,67.414,230.029,68.955,228.488z"/>
<path fill="#F15B2A" stroke="#FFFFFF" stroke-miterlimit="10" d="M107.24,348.18c1.541-1.543,4.041-1.543,5.584,0
	c1.545,1.543,1.544,4.043,0.004,5.585c-1.545,1.543-4.047,1.543-5.588,0C105.697,352.222,105.699,349.722,107.24,348.18z"/>
<path fill="#F15B2A" stroke="#FFFFFF" stroke-miterlimit="10" d="M153.181,395.365c1.543-1.543,4.043-1.543,5.586,0
	c1.543,1.545,1.541,4.043,0.002,5.585c-1.545,1.544-4.045,1.544-5.588,0C151.638,399.407,151.64,396.907,153.181,395.365z"/>
<line fill="none" stroke="#E7E7E7" stroke-width="2" stroke-miterlimit="10" x1="479.101" y1="295.514" x2="279.981" y2="231.729"/>
<g>
	<path fill="#A7A9AC" d="M365.411,22.799c-0.123,1.05-0.51,1.86-1.162,2.43c-0.652,0.571-1.519,0.856-2.601,0.856
		c-1.173,0-2.113-0.421-2.82-1.261c-0.706-0.841-1.06-1.967-1.06-3.376v-0.955c0-0.923,0.165-1.734,0.495-2.434
		c0.329-0.701,0.796-1.238,1.401-1.613c0.605-0.374,1.304-0.562,2.1-0.562c1.055,0,1.9,0.295,2.536,0.883
		c0.636,0.588,1.007,1.403,1.111,2.444h-1.316c-0.114-0.793-0.36-1.368-0.74-1.723c-0.379-0.356-0.91-0.534-1.592-0.534
		c-0.837,0-1.492,0.309-1.967,0.928c-0.475,0.619-0.712,1.499-0.712,2.641v0.962c0,1.078,0.225,1.936,0.675,2.573
		c0.45,0.637,1.079,0.956,1.889,0.956c0.727,0,1.285-0.166,1.674-0.495c0.388-0.329,0.646-0.903,0.774-1.721H365.411z"/>
	<path fill="#A7A9AC" d="M374.833,21.306c0,0.972-0.164,1.821-0.491,2.546s-0.791,1.279-1.391,1.66c-0.6,0.382-1.3,0.573-2.1,0.573
		c-0.782,0-1.475-0.192-2.08-0.576c-0.605-0.384-1.074-0.933-1.408-1.644c-0.335-0.711-0.506-1.535-0.515-2.471v-0.715
		c0-0.955,0.166-1.798,0.498-2.53c0.332-0.732,0.801-1.292,1.408-1.68c0.606-0.389,1.301-0.583,2.083-0.583
		c0.796,0,1.496,0.192,2.104,0.576c0.606,0.384,1.074,0.941,1.401,1.671c0.327,0.729,0.491,1.578,0.491,2.547V21.306z
		 M373.531,20.664c0-1.177-0.237-2.08-0.709-2.709c-0.473-0.629-1.134-0.945-1.984-0.945c-0.827,0-1.478,0.316-1.954,0.945
		c-0.475,0.629-0.719,1.503-0.733,2.621v0.73c0,1.14,0.24,2.037,0.719,2.69c0.48,0.652,1.14,0.978,1.981,0.978
		c0.845,0,1.5-0.307,1.964-0.923c0.464-0.616,0.702-1.499,0.716-2.65V20.664z"/>
	<path fill="#A7A9AC" d="M384.427,25.949h-1.316l-4.998-7.65v7.65h-1.316v-9.927h1.316l5.011,7.685v-7.685h1.302V25.949z"/>
	<path fill="#A7A9AC" d="M390.038,24.21l2.836-8.188h1.432l-3.682,9.927h-1.159l-3.675-9.927h1.425L390.038,24.21z"/>
	<path fill="#A7A9AC" d="M397.04,25.949h-1.309v-9.927h1.309V25.949z"/>
	<path fill="#A7A9AC" d="M406.736,22.799c-0.123,1.05-0.51,1.86-1.162,2.43c-0.652,0.571-1.519,0.856-2.601,0.856
		c-1.173,0-2.113-0.421-2.82-1.261c-0.706-0.841-1.06-1.967-1.06-3.376v-0.955c0-0.923,0.165-1.734,0.495-2.434
		c0.329-0.701,0.796-1.238,1.401-1.613c0.605-0.374,1.304-0.562,2.1-0.562c1.055,0,1.9,0.295,2.536,0.883s1.007,1.403,1.111,2.444
		h-1.316c-0.114-0.793-0.36-1.368-0.74-1.723c-0.379-0.356-0.91-0.534-1.592-0.534c-0.837,0-1.492,0.309-1.967,0.928
		c-0.475,0.619-0.712,1.499-0.712,2.641v0.962c0,1.078,0.225,1.936,0.675,2.573c0.45,0.637,1.079,0.956,1.889,0.956
		c0.727,0,1.285-0.166,1.674-0.495c0.388-0.329,0.646-0.903,0.774-1.721H406.736z"/>
	<path fill="#A7A9AC" d="M415.183,17.092h-3.191v8.857h-1.302v-8.857h-3.184v-1.07h7.677V17.092z"/>
	<path fill="#A7A9AC" d="M418.061,25.949h-1.309v-9.927h1.309V25.949z"/>
	<path fill="#A7A9AC" d="M428.09,21.306c0,0.972-0.164,1.821-0.491,2.546s-0.791,1.279-1.391,1.66c-0.6,0.382-1.3,0.573-2.1,0.573
		c-0.782,0-1.475-0.192-2.08-0.576c-0.605-0.384-1.074-0.933-1.408-1.644c-0.335-0.711-0.506-1.535-0.515-2.471v-0.715
		c0-0.955,0.166-1.798,0.498-2.53c0.332-0.732,0.801-1.292,1.408-1.68c0.606-0.389,1.301-0.583,2.083-0.583
		c0.796,0,1.496,0.192,2.104,0.576c0.606,0.384,1.074,0.941,1.401,1.671c0.327,0.729,0.491,1.578,0.491,2.547V21.306z
		 M426.788,20.664c0-1.177-0.237-2.08-0.709-2.709c-0.473-0.629-1.134-0.945-1.984-0.945c-0.827,0-1.479,0.316-1.954,0.945
		c-0.475,0.629-0.719,1.503-0.733,2.621v0.73c0,1.14,0.24,2.037,0.719,2.69c0.48,0.652,1.14,0.978,1.981,0.978
		c0.845,0,1.5-0.307,1.964-0.923c0.464-0.616,0.702-1.499,0.716-2.65V20.664z"/>
	<path fill="#A7A9AC" d="M437.683,25.949h-1.316l-4.998-7.65v7.65h-1.316v-9.927h1.316l5.011,7.685v-7.685h1.302V25.949z"/>
</g>
</svg>
