<?xml version="1.0" encoding="utf-8"?>
<!-- Generator: Adobe Illustrator 19.1.0, SVG Export Plug-In . SVG Version: 6.00 Build 0)  -->
<svg version="1.1" id="Layer_1" xmlns="http://www.w3.org/2000/svg" xmlns:xlink="http://www.w3.org/1999/xlink" x="0px" y="0px"
	 viewBox="0 0 556.472 481.872" enable-background="new 0 0 556.472 481.872" xml:space="preserve">
<g opacity="0.25">
	<path fill="#F15B2A" d="M216.107,427.876C107.492,392.55,45.66,275.87,80.98,167.257l200.25,64.903"/>
</g>
<path fill="none" stroke="#E7E7E7" stroke-width="2" stroke-miterlimit="10" d="M478.011,297.397
	c35.379-108.789-20.58-222.658-129.373-258.039"/>
<g>
	<path fill="none" stroke="#F15B2A" stroke-width="3" stroke-miterlimit="10" d="M82.87,167.881
		C47.491,276.668,106.997,393.537,215.79,428.92"/>
</g>
<path fill="none" stroke="#E7E7E7" stroke-width="2" stroke-miterlimit="10" d="M348.016,39.082
	C239.225,3.705,119.276,59.457,83.896,168.25"/>
<path fill="none" stroke="#E7E7E7" stroke-width="2" stroke-miterlimit="10" d="M216.808,429.838
	c108.789,35.375,225.66-24.133,261.041-132.922"/>
<text transform="matrix(1 0 0 1 167.4004 456)" font-family="'Roboto-Regular'" font-size="13px">POVERTY</text>
<text transform="matrix(1 0 0 1 493.0234 305.5078)" fill="#A7A9AC" font-family="'Roboto-Regular'" font-size="13px">REENTRY</text>
<text transform="matrix(1 0 0 1 23.2842 171.3896)" font-family="'Roboto-Regular'" font-size="13px">ARREST</text>
<text transform="matrix(1 0 0 1 357.6572 25.8291)" fill="#A7A9AC" font-family="'Roboto-Regular'" font-size="13px">PLEA</text>
<line fill="none" stroke="#E7E7E7" stroke-width="2" stroke-miterlimit="10" x1="281.23" y1="232.16" x2="82.111" y2="168.375"/>
<path fill="#F15B2A" stroke="#FFFFFF" stroke-miterlimit="10" d="M78.884,165.049c2.393-2.393,6.268-2.393,8.662,0
	c2.395,2.395,2.391,6.27,0,8.662c-2.395,2.393-6.27,2.396-8.664,0.002C76.487,171.316,76.491,167.439,78.884,165.049z"/>
<path fill="#F15B2A" stroke="#FFFFFF" stroke-miterlimit="10" d="M210.918,424.471c2.393-2.393,6.268-2.393,8.662,0
	c2.395,2.395,2.391,6.27,0,8.662c-2.395,2.393-6.27,2.396-8.664,0.002C208.521,430.738,208.525,426.861,210.918,424.471z"/>
<line fill="none" stroke="#E7E7E7" stroke-width="2" stroke-miterlimit="10" x1="281.23" y1="232.16" x2="348.325" y2="38.191"/>
<g>
	
		<line opacity="0.65" fill="none" stroke="#FFFFFF" stroke-width="0.5" stroke-miterlimit="10" x1="72.662" y1="231.28" x2="280.903" y2="233.077"/>
	
		<line opacity="0.65" fill="none" stroke="#FFFFFF" stroke-width="0.5" stroke-miterlimit="10" x1="280.903" y1="233.077" x2="82.226" y2="294.31"/>
	
		<line opacity="0.65" fill="none" stroke="#FFFFFF" stroke-width="0.5" stroke-miterlimit="10" x1="280.903" y1="233.077" x2="112.824" y2="349.609"/>
	
		<line opacity="0.65" fill="none" stroke="#FFFFFF" stroke-width="0.5" stroke-miterlimit="10" x1="280.903" y1="233.077" x2="157.129" y2="397.295"/>
</g>
<circle fill="#F15B2A" stroke="#FFFFFF" stroke-miterlimit="10" cx="82.227" cy="294.311" r="3.949"/>
<path fill="#F15B2A" stroke="#FFFFFF" stroke-miterlimit="10" d="M68.955,228.488c1.543-1.543,4.043-1.543,5.586,0
	c1.543,1.544,1.541,4.042,0.002,5.584c-1.545,1.544-4.045,1.544-5.588,0C67.412,232.529,67.414,230.029,68.955,228.488z"/>
<path fill="#F15B2A" stroke="#FFFFFF" stroke-miterlimit="10" d="M107.24,348.18c1.541-1.543,4.041-1.543,5.584,0
	c1.545,1.543,1.543,4.043,0.004,5.585c-1.545,1.543-4.047,1.543-5.588,0C105.697,352.222,105.699,349.722,107.24,348.18z"/>
<path fill="#F15B2A" stroke="#FFFFFF" stroke-miterlimit="10" d="M153.181,395.365c1.543-1.543,4.043-1.543,5.586,0
	c1.543,1.545,1.541,4.043,0.002,5.585c-1.545,1.544-4.045,1.544-5.588,0C151.638,399.407,151.64,396.907,153.181,395.365z"/>
<line fill="none" stroke="#E7E7E7" stroke-width="2" stroke-miterlimit="10" x1="479.101" y1="295.514" x2="279.981" y2="231.729"/>
</svg>
