<?xml version="1.0" encoding="utf-8"?>
<!-- Generator: Adobe Illustrator 19.1.0, SVG Export Plug-In . SVG Version: 6.00 Build 0)  -->
<svg version="1.1" id="Layer_1" xmlns="http://www.w3.org/2000/svg" xmlns:xlink="http://www.w3.org/1999/xlink" x="0px" y="0px"
	 viewBox="0 0 556.472 481.872" enable-background="new 0 0 556.472 481.872" xml:space="preserve">
<path opacity="0.25" fill="#FBAF40" d="M83.079,169.469C118.46,60.678,239.784,2.09,348.575,37.467l-67.346,194.891L83.079,169.469z
	"/>
<path fill="none" stroke="#E7E7E7" stroke-width="2" stroke-miterlimit="10" d="M478.011,297.397
	c35.379-108.789-20.58-222.658-129.373-258.039"/>
<g>
	<path fill="none" stroke="#E7E7E7" stroke-width="2" stroke-miterlimit="10" d="M82.87,167.881
		c-35.379,108.787,24.492,226.186,133.285,261.568"/>
</g>
<path fill="none" stroke="#FBAF40" stroke-width="3" stroke-miterlimit="10" d="M346.6,38.355
	C237.809,2.978,119.276,59.457,83.896,168.25"/>
<circle fill="#FBAF40" stroke="#FFFFFF" stroke-miterlimit="10" cx="165.541" cy="61.502" r="3.956"/>
<path fill="#FBAF40" stroke="#FFFFFF" stroke-miterlimit="10" d="M192.899,42.337c1.547-1.547,4.047-1.547,5.594,0
	c1.545,1.545,1.545,4.049,0.004,5.592c-1.547,1.547-4.051,1.547-5.598,0C191.355,46.384,191.357,43.882,192.899,42.337z"/>
<path fill="none" stroke="#E7E7E7" stroke-width="2" stroke-miterlimit="10" d="M216.155,429.449
	c108.789,35.375,226.313-23.744,261.694-132.533"/>
<line fill="none" stroke="#E7E7E7" stroke-width="2" stroke-miterlimit="10" x1="479.101" y1="295.514" x2="279.982" y2="231.729"/>
<g>
	
		<line opacity="0.65" fill="none" stroke="#FFFFFF" stroke-width="0.5" stroke-miterlimit="10" x1="98.054" y1="136.289" x2="280.581" y2="230.936"/>
	
		<line opacity="0.65" fill="none" stroke="#FFFFFF" stroke-width="0.5" stroke-miterlimit="10" x1="114.335" y1="109.055" x2="280.581" y2="230.936"/>
	
		<line opacity="0.65" fill="none" stroke="#FFFFFF" stroke-width="0.5" stroke-miterlimit="10" x1="309.351" y1="31.342" x2="280.787" y2="230.936"/>
	
		<line opacity="0.65" fill="none" stroke="#FFFFFF" stroke-width="0.5" stroke-miterlimit="10" x1="267.935" y1="28.621" x2="280.581" y2="230.936"/>
	
		<line opacity="0.65" fill="none" stroke="#FFFFFF" stroke-width="0.5" stroke-miterlimit="10" x1="232.628" y1="35.025" x2="280.581" y2="230.936"/>
	
		<line opacity="0.65" fill="none" stroke="#FFFFFF" stroke-width="0.5" stroke-miterlimit="10" x1="197.351" y1="48.588" x2="280.581" y2="230.936"/>
	
		<line opacity="0.65" fill="none" stroke="#FFFFFF" stroke-width="0.5" stroke-miterlimit="10" x1="168.206" y1="65.461" x2="280.581" y2="230.936"/>
	
		<line opacity="0.65" fill="none" stroke="#FFFFFF" stroke-width="0.5" stroke-miterlimit="10" x1="136.398" y1="85.155" x2="280.581" y2="230.936"/>
</g>
<g>
	<text transform="matrix(1 0 0 1 167.4004 456)" fill="#A7A9AC" font-family="'Roboto-Regular'" font-size="13px">POVERTY</text>
</g>
<text transform="matrix(1 0 0 1 493.0235 305.5078)" fill="#A7A9AC" font-family="'Roboto-Regular'" font-size="13px">REENTRY</text>
<text transform="matrix(1 0 0 1 23.2842 171.3896)" font-family="'Roboto-Regular'" font-size="13px">ARREST</text>
<g>
	<text transform="matrix(1 0 0 1 357.6573 25.8291)" font-family="'Roboto-Regular'" font-size="13px">PLEA</text>
</g>
<line fill="none" stroke="#E7E7E7" stroke-width="2" stroke-miterlimit="10" x1="281.23" y1="232.16" x2="82.111" y2="168.375"/>
<path fill="#FBAF40" stroke="#FFFFFF" stroke-miterlimit="10" d="M78.884,165.049c2.393-2.393,6.268-2.393,8.662,0
	c2.395,2.395,2.391,6.27,0,8.662c-2.395,2.393-6.27,2.396-8.664,0.002C76.487,171.316,76.491,167.439,78.884,165.049z"/>
<circle fill="#FBAF40" stroke="#FFFFFF" stroke-miterlimit="10" cx="98.054" cy="136.29" r="3.956"/>
<circle fill="#FBAF40" stroke="#FFFFFF" stroke-miterlimit="10" cx="114.336" cy="109.056" r="3.956"/>
<path fill="#FBAF40" stroke="#FFFFFF" stroke-miterlimit="10" d="M133.6,81.959c1.547-1.547,4.047-1.547,5.594,0
	c1.547,1.545,1.547,4.049,0.002,5.592c-1.545,1.547-4.049,1.547-5.596,0C132.055,86.006,132.057,83.504,133.6,81.959z"/>
<line fill="none" stroke="#E7E7E7" stroke-width="2" stroke-miterlimit="10" x1="280.98" y1="232.977" x2="348.575" y2="37.467"/>
<path fill="#FBAF40" stroke="#FFFFFF" stroke-miterlimit="10" d="M344.245,33.137c2.391-2.394,6.268-2.394,8.66,0
	c2.395,2.393,2.391,6.27,0,8.66c-2.393,2.394-6.27,2.396-8.664,0.004C341.849,39.402,341.851,35.527,344.245,33.137z"/>
<circle fill="#FBAF40" stroke="#FFFFFF" stroke-miterlimit="10" cx="309.354" cy="29.784" r="3.956"/>
<path fill="#FBAF40" stroke="#FFFFFF" stroke-miterlimit="10" d="M265.136,25.037c1.547-1.545,4.049-1.545,5.594,0
	c1.547,1.547,1.547,4.051,0.004,5.594c-1.547,1.547-4.051,1.547-5.598,0C263.591,29.086,263.595,26.584,265.136,25.037z"/>
<path fill="#FBAF40" stroke="#FFFFFF" stroke-miterlimit="10" d="M229.166,30.715c1.547-1.547,4.047-1.547,5.594,0
	c1.545,1.545,1.545,4.049,0.002,5.592c-1.545,1.547-4.049,1.547-5.596,0C227.619,34.762,227.623,32.26,229.166,30.715z"/>
</svg>
