<?xml version="1.0" encoding="utf-8"?>
<!-- Generator: Adobe Illustrator 19.1.0, SVG Export Plug-In . SVG Version: 6.00 Build 0)  -->
<svg version="1.1" id="Layer_1" xmlns="http://www.w3.org/2000/svg" xmlns:xlink="http://www.w3.org/1999/xlink" x="0px" y="0px"
	 viewBox="0 0 556.472 481.872" enable-background="new 0 0 556.472 481.872" xml:space="preserve">
<path opacity="0.25" fill="#9E2062" d="M348.575,40.068c109.016,35.453,164.724,144.94,129.274,253.952l-195.573-62.252
	L348.575,40.068z"/>
<path fill="none" stroke="#9E2062" stroke-width="3" stroke-miterlimit="10" d="M478.011,297.397
	c35.379-108.789-20.58-222.658-129.373-258.039"/>
<g>
	<path fill="none" stroke="#E7E7E7" stroke-width="2" stroke-miterlimit="10" d="M82.871,167.881
		C47.492,276.668,107.89,394.43,216.683,429.812"/>
</g>
<path fill="none" stroke="#E7E7E7" stroke-width="2" stroke-miterlimit="10" d="M346.6,38.355
	C237.809,2.979,118.252,59.088,82.871,167.881"/>
<path fill="none" stroke="#E7E7E7" stroke-width="2" stroke-miterlimit="10" d="M216.683,429.812
	c108.789,35.375,225.785-24.107,261.166-132.896"/>
<g>
	<g>
		<path fill="#A7A9AC" d="M169.692,452.382V456h-1.219v-9.242h3.409c1.012,0,1.804,0.258,2.377,0.774s0.86,1.2,0.86,2.05
			c0,0.897-0.28,1.589-0.841,2.073s-1.364,0.727-2.409,0.727H169.692z M169.692,451.385h2.19c0.651,0,1.151-0.153,1.498-0.461
			c0.347-0.307,0.521-0.751,0.521-1.332c0-0.551-0.174-0.991-0.521-1.322s-0.823-0.502-1.429-0.516h-2.26V451.385z"/>
		<path fill="#A7A9AC" d="M183.784,451.678c0,0.905-0.152,1.695-0.457,2.37s-0.736,1.19-1.295,1.546s-1.21,0.533-1.955,0.533
			c-0.728,0-1.373-0.179-1.936-0.536s-1-0.868-1.311-1.53c-0.312-0.662-0.471-1.429-0.479-2.301v-0.666
			c0-0.889,0.154-1.674,0.464-2.355c0.309-0.682,0.745-1.203,1.311-1.564c0.564-0.362,1.211-0.543,1.939-0.543
			c0.74,0,1.393,0.179,1.958,0.536c0.564,0.357,0.999,0.876,1.304,1.556c0.305,0.679,0.457,1.469,0.457,2.371V451.678z
			 M182.572,451.08c0-1.096-0.22-1.937-0.66-2.522s-1.056-0.88-1.847-0.88c-0.771,0-1.377,0.294-1.819,0.88s-0.669,1.399-0.683,2.44
			v0.68c0,1.062,0.224,1.896,0.67,2.504s1.062,0.91,1.844,0.91c0.787,0,1.396-0.286,1.828-0.859s0.654-1.396,0.667-2.467V451.08z"/>
		<path fill="#A7A9AC" d="M188.533,454.381l2.641-7.623h1.332L189.078,456H188l-3.422-9.242h1.326L188.533,454.381z"/>
		<path fill="#A7A9AC" d="M198.968,451.729h-4.006v3.275h4.653V456h-5.872v-9.242h5.809v0.996h-4.59v2.978h4.006V451.729z"/>
		<path fill="#A7A9AC" d="M204.523,452.262h-2.172V456h-1.225v-9.242h3.06c1.041,0,1.842,0.237,2.402,0.711s0.841,1.164,0.841,2.069
			c0,0.575-0.155,1.077-0.466,1.505c-0.312,0.427-0.744,0.746-1.298,0.958l2.17,3.923V456h-1.307L204.523,452.262z M202.351,451.265
			h1.873c0.605,0,1.087-0.157,1.444-0.471s0.536-0.733,0.536-1.259c0-0.572-0.17-1.011-0.511-1.316s-0.833-0.46-1.476-0.465h-1.867
			V451.265z"/>
		<path fill="#A7A9AC" d="M215.015,447.754h-2.971V456h-1.213v-8.246h-2.965v-0.996h7.148V447.754z"/>
		<path fill="#A7A9AC" d="M219.305,451.398l2.412-4.641h1.385l-3.188,5.795V456h-1.219v-3.447l-3.186-5.795h1.396L219.305,451.398z"
			/>
	</g>
</g>
<g>
	<g>
		<path d="M497.487,301.77h-2.172v3.738h-1.225v-9.242h3.06c1.041,0,1.842,0.237,2.402,0.711s0.841,1.164,0.841,2.069
			c0,0.575-0.155,1.077-0.466,1.505c-0.312,0.427-0.744,0.746-1.298,0.958l2.17,3.923v0.076h-1.307L497.487,301.77z
			 M495.315,300.772h1.873c0.605,0,1.087-0.157,1.444-0.471s0.536-0.733,0.536-1.259c0-0.572-0.17-1.011-0.511-1.316
			s-0.833-0.46-1.476-0.465h-1.867V300.772z"/>
		<path d="M507.326,301.236h-4.006v3.275h4.653v0.996h-5.872v-9.242h5.809v0.996h-4.59v2.978h4.006V301.236z"/>
		<path d="M514.714,301.236h-4.006v3.275h4.653v0.996h-5.872v-9.242h5.809v0.996h-4.59v2.978h4.006V301.236z"/>
		<path d="M523.982,305.508h-1.225l-4.653-7.122v7.122h-1.226v-9.242h1.226l4.665,7.154v-7.154h1.213V305.508z"/>
		<path d="M532.348,297.262h-2.971v8.246h-1.213v-8.246H525.2v-0.996h7.148V297.262z"/>
		<path d="M537.109,301.77h-2.172v3.738h-1.225v-9.242h3.06c1.041,0,1.842,0.237,2.402,0.711s0.841,1.164,0.841,2.069
			c0,0.575-0.155,1.077-0.466,1.505c-0.312,0.427-0.744,0.746-1.298,0.958l2.17,3.923v0.076h-1.307L537.109,301.77z
			 M534.937,300.772h1.873c0.605,0,1.087-0.157,1.444-0.471s0.536-0.733,0.536-1.259c0-0.572-0.17-1.011-0.511-1.316
			s-0.833-0.46-1.476-0.465h-1.867V300.772z"/>
		<path d="M544.236,300.906l2.412-4.641h1.385l-3.188,5.795v3.447h-1.219v-3.447l-3.186-5.795h1.396L544.236,300.906z"/>
	</g>
</g>
<g>
	<g>
		<path fill="#A7A9AC" d="M29.46,168.972h-3.871l-0.87,2.418h-1.257l3.529-9.242h1.066l3.535,9.242h-1.25L29.46,168.972z
			 M25.957,167.975h3.143l-1.574-4.323L25.957,167.975z"/>
		<path fill="#A7A9AC" d="M36.228,167.651h-2.172v3.738h-1.225v-9.242h3.06c1.041,0,1.842,0.237,2.402,0.711
			s0.841,1.164,0.841,2.069c0,0.575-0.155,1.077-0.466,1.505c-0.312,0.427-0.744,0.746-1.298,0.958l2.17,3.923v0.076h-1.307
			L36.228,167.651z M34.056,166.654h1.873c0.605,0,1.087-0.157,1.444-0.471s0.536-0.733,0.536-1.259c0-0.572-0.17-1.011-0.511-1.316
			s-0.833-0.46-1.476-0.465h-1.867V166.654z"/>
		<path fill="#A7A9AC" d="M44.232,167.651H42.06v3.738h-1.225v-9.242h3.06c1.041,0,1.842,0.237,2.402,0.711s0.841,1.164,0.841,2.069
			c0,0.575-0.155,1.077-0.466,1.505c-0.312,0.427-0.744,0.746-1.298,0.958l2.17,3.923v0.076h-1.307L44.232,167.651z M42.06,166.654
			h1.873c0.605,0,1.087-0.157,1.444-0.471s0.536-0.733,0.536-1.259c0-0.572-0.17-1.011-0.511-1.316s-0.833-0.46-1.476-0.465H42.06
			V166.654z"/>
		<path fill="#A7A9AC" d="M54.071,167.118h-4.006v3.275h4.653v0.996h-5.872v-9.242h5.809v0.996h-4.59v2.978h4.006V167.118z"/>
		<path fill="#A7A9AC" d="M58.959,167.271c-1.045-0.301-1.806-0.67-2.282-1.108c-0.476-0.438-0.714-0.979-0.714-1.622
			c0-0.728,0.291-1.329,0.873-1.806c0.582-0.476,1.338-0.714,2.269-0.714c0.635,0,1.201,0.123,1.698,0.368s0.883,0.584,1.155,1.016
			c0.273,0.432,0.41,0.903,0.41,1.415h-1.226c0-0.561-0.178-1.001-0.533-1.321s-0.856-0.481-1.505-0.481
			c-0.601,0-1.069,0.133-1.405,0.398c-0.337,0.265-0.505,0.632-0.505,1.103c0,0.378,0.16,0.696,0.479,0.957s0.863,0.499,1.631,0.716
			c0.769,0.216,1.369,0.454,1.803,0.715c0.434,0.26,0.756,0.563,0.965,0.91c0.21,0.348,0.314,0.756,0.314,1.226
			c0,0.749-0.292,1.349-0.876,1.8c-0.584,0.45-1.365,0.676-2.342,0.676c-0.635,0-1.228-0.122-1.777-0.365
			c-0.551-0.243-0.975-0.576-1.273-1c-0.298-0.423-0.447-0.903-0.447-1.44h1.225c0,0.559,0.207,1,0.619,1.323
			c0.413,0.324,0.964,0.486,1.654,0.486c0.643,0,1.136-0.132,1.479-0.395c0.343-0.262,0.514-0.619,0.514-1.072
			s-0.158-0.803-0.476-1.051C60.368,167.756,59.793,167.511,58.959,167.271z"/>
		<path fill="#A7A9AC" d="M70.334,163.144h-2.971v8.246H66.15v-8.246h-2.965v-0.996h7.148V163.144z"/>
	</g>
</g>
<line fill="none" stroke="#E7E7E7" stroke-width="2" stroke-miterlimit="10" x1="281.231" y1="232.16" x2="82.112" y2="168.375"/>
<g>
	
		<line opacity="0.65" fill="none" stroke="#FFFFFF" stroke-width="0.5" stroke-miterlimit="10" x1="396.739" y1="62.349" x2="282.566" y2="231.484"/>
	
		<line opacity="0.65" fill="none" stroke="#FFFFFF" stroke-width="0.5" stroke-miterlimit="10" x1="447.494" y1="108.687" x2="282.566" y2="231.484"/>
	
		<line opacity="0.65" fill="none" stroke="#FFFFFF" stroke-width="0.5" stroke-miterlimit="10" x1="479.021" y1="170.575" x2="282.566" y2="231.484"/>
	
		<line opacity="0.65" fill="none" stroke="#FFFFFF" stroke-width="0.5" stroke-miterlimit="10" x1="488.308" y1="236.67" x2="282.566" y2="231.484"/>
</g>
<path fill="#9E2062" stroke="#FFFFFF" stroke-miterlimit="10" d="M393.936,59.547c1.547-1.549,4.057-1.549,5.605,0
	c1.549,1.549,1.547,4.057,0.002,5.605c-1.549,1.549-4.061,1.549-5.607,0C392.385,63.602,392.387,61.094,393.936,59.547z"/>
<circle fill="#9E2062" stroke="#FFFFFF" stroke-miterlimit="10" cx="479.021" cy="170.576" r="3.964"/>
<path fill="#9E2062" stroke="#FFFFFF" stroke-miterlimit="10" d="M444.69,105.884c1.549-1.549,4.059-1.549,5.607,0
	c1.549,1.551,1.545,4.059,0,5.606c-1.549,1.549-4.059,1.549-5.607,0C443.141,109.94,443.145,107.433,444.69,105.884z"/>
<circle fill="#9E2062" stroke="#FFFFFF" stroke-miterlimit="10" cx="488.485" cy="236.671" r="3.964"/>
<line fill="none" stroke="#E7E7E7" stroke-width="2" stroke-miterlimit="10" x1="479.101" y1="295.514" x2="279.982" y2="231.729"/>
<line fill="none" stroke="#E7E7E7" stroke-width="2" stroke-miterlimit="10" x1="281.231" y1="232.16" x2="348.576" y2="37.467"/>
<path fill="#9E2062" stroke="#FFFFFF" stroke-miterlimit="10" d="M474.772,291.181c2.393-2.393,6.268-2.393,8.662,0
	c2.395,2.395,2.391,6.27,0,8.662c-2.395,2.393-6.27,2.396-8.664,0.002C472.375,297.448,472.379,293.571,474.772,291.181z"/>
<path fill="#9E2062" stroke="#FFFFFF" stroke-miterlimit="10" d="M344.246,33.137c2.391-2.394,6.268-2.394,8.66,0
	c2.395,2.393,2.391,6.27,0,8.66c-2.393,2.394-6.27,2.396-8.664,0.004C341.849,39.402,341.851,35.527,344.246,33.137z"/>
<g>
	<path d="M364.863,22.789c-0.114,0.978-0.475,1.731-1.082,2.263s-1.415,0.797-2.422,0.797c-1.092,0-1.967-0.392-2.625-1.174
		c-0.658-0.783-0.986-1.831-0.986-3.143v-0.889c0-0.859,0.153-1.614,0.46-2.266c0.307-0.652,0.741-1.152,1.304-1.502
		c0.563-0.349,1.215-0.523,1.955-0.523c0.982,0,1.77,0.274,2.361,0.822c0.593,0.548,0.938,1.307,1.035,2.275h-1.225
		c-0.106-0.738-0.336-1.273-0.689-1.604s-0.848-0.497-1.482-0.497c-0.778,0-1.389,0.288-1.831,0.864s-0.663,1.396-0.663,2.459v0.896
		c0,1.004,0.209,1.803,0.629,2.396c0.418,0.593,1.005,0.89,1.758,0.89c0.677,0,1.196-0.154,1.559-0.461
		c0.361-0.307,0.602-0.841,0.721-1.603H364.863z"/>
	<path d="M373.634,21.399c0,0.905-0.152,1.695-0.457,2.37s-0.736,1.19-1.295,1.546s-1.21,0.533-1.955,0.533
		c-0.728,0-1.373-0.179-1.936-0.536s-1-0.868-1.311-1.53c-0.312-0.662-0.471-1.429-0.479-2.301v-0.666
		c0-0.889,0.154-1.674,0.464-2.355c0.309-0.682,0.745-1.203,1.311-1.564c0.564-0.362,1.211-0.543,1.939-0.543
		c0.74,0,1.393,0.179,1.958,0.536c0.564,0.357,0.999,0.876,1.304,1.556c0.305,0.679,0.457,1.469,0.457,2.371V21.399z
		 M372.422,20.802c0-1.096-0.22-1.937-0.66-2.522s-1.056-0.88-1.847-0.88c-0.771,0-1.377,0.294-1.819,0.88s-0.669,1.399-0.683,2.44
		v0.68c0,1.062,0.224,1.896,0.67,2.504s1.062,0.91,1.844,0.91c0.787,0,1.396-0.286,1.828-0.859s0.654-1.396,0.667-2.467V20.802z"/>
	<path d="M382.566,25.722h-1.225l-4.653-7.122v7.122h-1.226v-9.242h1.226l4.665,7.154v-7.154h1.213V25.722z"/>
	<path d="M387.791,24.103l2.641-7.623h1.332l-3.428,9.242h-1.078l-3.422-9.242h1.326L387.791,24.103z"/>
	<path d="M394.31,25.722h-1.219v-9.242h1.219V25.722z"/>
	<path d="M403.335,22.789c-0.114,0.978-0.475,1.731-1.082,2.263s-1.415,0.797-2.422,0.797c-1.092,0-1.967-0.392-2.625-1.174
		c-0.658-0.783-0.986-1.831-0.986-3.143v-0.889c0-0.859,0.153-1.614,0.46-2.266c0.307-0.652,0.741-1.152,1.304-1.502
		c0.563-0.349,1.215-0.523,1.955-0.523c0.982,0,1.77,0.274,2.361,0.822c0.593,0.548,0.938,1.307,1.035,2.275h-1.225
		c-0.106-0.738-0.336-1.273-0.689-1.604s-0.848-0.497-1.482-0.497c-0.778,0-1.389,0.288-1.831,0.864s-0.663,1.396-0.663,2.459v0.896
		c0,1.004,0.209,1.803,0.629,2.396c0.418,0.593,1.005,0.89,1.758,0.89c0.677,0,1.196-0.154,1.559-0.461
		c0.361-0.307,0.602-0.841,0.721-1.603H403.335z"/>
	<path d="M411.201,17.476h-2.971v8.246h-1.213v-8.246h-2.965v-0.996h7.148V17.476z"/>
	<path d="M417.796,21.45h-4.006v3.275h4.653v0.996h-5.872v-9.242h5.809v0.996h-4.59v2.978h4.006V21.45z"/>
	<path d="M419.96,25.722v-9.242h2.609c0.804,0,1.515,0.178,2.133,0.533s1.095,0.861,1.432,1.518c0.336,0.655,0.507,1.408,0.511,2.26
		v0.59c0,0.872-0.168,1.636-0.505,2.291c-0.336,0.656-0.816,1.16-1.44,1.512c-0.624,0.351-1.352,0.53-2.181,0.539H419.96z
		 M421.179,17.476v7.25h1.283c0.939,0,1.67-0.293,2.192-0.877c0.522-0.585,0.784-1.417,0.784-2.497v-0.54
		c0-1.051-0.246-1.867-0.739-2.449s-1.192-0.878-2.099-0.887H421.179z"/>
</g>
</svg>
