<?xml version="1.0" encoding="utf-8"?>
<!-- Generator: Adobe Illustrator 19.1.0, SVG Export Plug-In . SVG Version: 6.00 Build 0)  -->
<svg version="1.1" id="Layer_1" xmlns="http://www.w3.org/2000/svg" xmlns:xlink="http://www.w3.org/1999/xlink" x="0px" y="0px"
	 viewBox="0 0 716 714" enable-background="new 0 0 716 714" xml:space="preserve">
<polyline fill="none" stroke="#E7E7E7" stroke-width="2" stroke-miterlimit="10" points="29.562,249.667 360.421,357.548 
	681.851,462.355 "/>
<g>
	<path fill="none" stroke="#BE202E" stroke-width="3" stroke-miterlimit="10" d="M247.576,678.182
		c181.02,58.863,375.484-40.154,434.357-221.172"/>
	<path fill="none" stroke="#F15B2A" stroke-width="3" stroke-miterlimit="10" d="M30.228,246.011
		c-58.865,181.019,40.15,375.481,221.168,434.356"/>
	<g>
		<g>
			<path fill="none" stroke="#E7E7E7" stroke-width="2" stroke-miterlimit="10" d="M685.296,457.848
				c58.869-181.018-34.244-370.489-215.266-429.361"/>
		</g>
		
			<line fill="none" stroke="#E7E7E7" stroke-width="2" stroke-miterlimit="10" x1="360.351" y1="357.753" x2="471.162" y2="27.893"/>
	</g>
	<path fill="none" stroke="#E7E7E7" stroke-width="2" stroke-miterlimit="10" d="M472.582,28.487
		C291.564-30.377,89.912,64.409,31.042,245.43"/>
	<g>
		<path fill="#F15B2A" stroke="#FFFFFF" stroke-miterlimit="10" d="M24.91,453.688c2.57-2.571,6.734-2.571,9.307,0
			c2.572,2.572,2.57,6.736,0.002,9.307c-2.572,2.574-6.738,2.574-9.312,0C22.335,460.423,22.339,456.258,24.91,453.688z"/>
		<path fill="#F15B2A" stroke="#FFFFFF" stroke-miterlimit="10" d="M7.449,348.642c2.566-2.572,6.733-2.572,9.305,0
			c2.572,2.571,2.57,6.737,0.002,9.306c-2.57,2.574-6.74,2.574-9.311,0C4.871,355.376,4.878,351.212,7.449,348.642z"/>
		<path fill="#F15B2A" stroke="#FFFFFF" stroke-miterlimit="10" d="M24.912,245.012c2.566-2.572,6.732-2.572,9.305,0
			c2.572,2.571,2.57,6.737,0.002,9.306c-2.57,2.574-6.74,2.574-9.311,0C22.333,251.746,22.341,247.582,24.912,245.012z"/>
		<path fill="#F15B2A" stroke="#FFFFFF" stroke-miterlimit="10" d="M71.253,548.121c2.568-2.571,6.734-2.571,9.309,0
			c2.57,2.573,2.568,6.738,0,9.31c-2.572,2.572-6.74,2.572-9.31,0C68.677,554.856,68.685,550.691,71.253,548.121z"/>
		<path fill="#F15B2A" stroke="#FFFFFF" stroke-miterlimit="10" d="M147.82,624.69c2.572-2.571,6.734-2.571,9.309,0
			c2.572,2.572,2.568,6.738,0.004,9.307c-2.574,2.572-6.74,2.572-9.312,0C145.248,631.424,145.251,627.26,147.82,624.69z"/>
	</g>
	<g>
	</g>
</g>
<line opacity="0.75" fill="#F15A29" stroke="#FFFFFF" stroke-width="0.5" stroke-miterlimit="10" x1="17.785" y1="353.296" x2="359.494" y2="357.753"/>
<line opacity="0.75" fill="#F15A29" stroke="#FFFFFF" stroke-width="0.5" stroke-miterlimit="10" x1="359.494" y1="357.753" x2="36.144" y2="456.336"/>
<line opacity="0.75" fill="#F15A29" stroke="#FFFFFF" stroke-width="0.5" stroke-miterlimit="10" x1="359.494" y1="357.753" x2="80.562" y2="548.121"/>
<line opacity="0.75" fill="#F15A29" stroke="#FFFFFF" stroke-width="0.5" stroke-miterlimit="10" x1="359.494" y1="357.753" x2="157.128" y2="624.69"/>
<line opacity="0.75" fill="none" stroke="#BE1E2D" stroke-width="0.5" stroke-miterlimit="10" x1="360.351" y1="358.999" x2="637.857" y2="537.432"/>
<line opacity="0.75" fill="none" stroke="#BE1E2D" stroke-width="0.5" stroke-miterlimit="10" x1="360.351" y1="359.421" x2="586.627" y2="604.965"/>
<line opacity="0.75" fill="none" stroke="#BE1E2D" stroke-width="0.5" stroke-miterlimit="10" x1="360.351" y1="359.421" x2="515.345" y2="649.731"/>
<line opacity="0.75" fill="none" stroke="#BE1E2D" stroke-width="0.5" stroke-miterlimit="10" x1="360.351" y1="359.421" x2="432.818" y2="680.579"/>
<line opacity="0.75" fill="none" stroke="#BE1E2D" stroke-width="0.5" stroke-miterlimit="10" x1="360.351" y1="359.421" x2="343.894" y2="691.365"/>
<line opacity="0.75" fill="none" stroke="#BE1E2D" stroke-width="0.5" stroke-miterlimit="10" x1="360.351" y1="358.999" x2="253.242" y2="674.019"/>
<g>
	<path fill="#BE202E" stroke="#FFFFFF" stroke-width="2" stroke-miterlimit="10" d="M340.777,689.035c2.57-2.57,6.734-2.57,9.307,0
		c2.57,2.572,2.57,6.738,0.004,9.308c-2.574,2.573-6.74,2.573-9.315,0C338.203,695.77,338.207,691.605,340.777,689.035z"/>
	<path fill="#BE202E" stroke="#FFFFFF" stroke-miterlimit="10" d="M245.47,674.155c2.57-2.57,6.734-2.57,9.307,0
		c2.57,2.572,2.57,6.738,0.004,9.308c-2.574,2.573-6.74,2.573-9.315,0C242.896,680.89,242.9,676.725,245.47,674.155z"/>
	<path fill="#BE202E" stroke="#FFFFFF" stroke-width="2" stroke-miterlimit="10" d="M429.701,680.975
		c2.57-2.571,6.736-2.571,9.309,0c2.572,2.574,2.57,6.737,0.002,9.308c-2.574,2.572-6.74,2.572-9.314,0
		C427.126,687.709,427.13,683.547,429.701,680.975z"/>
	<path fill="#BE202E" stroke="#FFFFFF" stroke-width="2" stroke-miterlimit="10" d="M514.357,650.361
		c2.572-2.572,6.736-2.572,9.309,0c2.572,2.572,2.57,6.737,0.002,9.309c-2.57,2.572-6.738,2.572-9.311,0
		C511.783,657.095,511.79,652.93,514.357,650.361z"/>
	<path fill="#BE202E" stroke="#FFFFFF" stroke-width="2" stroke-miterlimit="10" d="M582.904,601.855
		c2.57-2.572,6.734-2.572,9.307,0c2.572,2.572,2.57,6.737,0.002,9.307c-2.572,2.572-6.738,2.572-9.312,0
		C580.328,608.591,580.337,604.424,582.904,601.855z"/>
	<path fill="#BE202E" stroke="#FFFFFF" stroke-width="2" stroke-miterlimit="10" d="M639.392,535.9c2.568-2.572,6.734-2.572,9.305,0
		c2.572,2.572,2.572,6.737,0.004,9.307c-2.572,2.574-6.74,2.574-9.312,0C636.818,542.634,636.822,538.469,639.392,535.9z"/>
	<path fill="#BE202E" stroke="#FFFFFF" stroke-width="2" stroke-miterlimit="10" d="M678.734,457.837
		c2.568-2.572,6.734-2.572,9.305,0c2.572,2.572,2.572,6.737,0.004,9.307c-2.572,2.574-6.74,2.574-9.312,0
		C676.16,464.571,676.164,460.406,678.734,457.837z"/>
</g>
<path opacity="0.2" fill="#BE202E" d="M681.851,463.499c0,4.363-33.154,72.401-38.758,77.056l-282.742-181.97L681.851,463.499z"/>
</svg>
