<?xml version="1.0" encoding="utf-8"?>
<!-- Generator: Adobe Illustrator 19.1.0, SVG Export Plug-In . SVG Version: 6.00 Build 0)  -->
<svg version="1.1" id="Layer_1" xmlns="http://www.w3.org/2000/svg" xmlns:xlink="http://www.w3.org/1999/xlink" x="0px" y="0px"
	 viewBox="0 0 647.564 780.438" enable-background="new 0 0 647.564 780.438" xml:space="preserve">
<g opacity="0.2">
	<path fill="#BE202E" d="M641.074,521.487c0,9.899-8.1,18-18,18H522.582c-9.898,0-18-8.101-18-18v-3.783c0-9.899,8.102-18,18-18
		h100.492c9.9,0,18,8.101,18,18V521.487z"/>
</g>
<polyline fill="none" stroke="#E7E7E7" stroke-width="2" stroke-miterlimit="10" points="-146.708,244.6 184.152,352.48 
	505.582,457.288 "/>
<g>
	<path fill="none" stroke="#BE202E" stroke-width="3" stroke-miterlimit="10" d="M71.306,673.115
		c181.02,58.863,375.484-40.154,434.357-221.172"/>
	<path fill="none" stroke="#F15B2A" stroke-width="3" stroke-miterlimit="10" d="M-146.042,240.944
		c-58.865,181.019,40.15,375.48,221.168,434.355"/>
	<g>
		<g>
			<path fill="none" stroke="#E7E7E7" stroke-width="2" stroke-miterlimit="10" d="M509.027,452.781
				C567.896,271.764,474.783,82.292,293.761,23.42"/>
		</g>
		
			<line fill="none" stroke="#E7E7E7" stroke-width="2" stroke-miterlimit="10" x1="184.082" y1="352.686" x2="294.892" y2="22.826"/>
	</g>
	<path fill="none" stroke="#E7E7E7" stroke-width="2" stroke-miterlimit="10" d="M296.312,23.42
		C115.294-35.444-86.358,59.342-145.227,240.363"/>
	<g>
	</g>
</g>
<line opacity="0.75" fill="none" stroke="#BE1E2D" stroke-width="0.5" stroke-miterlimit="10" x1="183.792" y1="353.229" x2="461.587" y2="532.365"/>
<line opacity="0.75" fill="none" stroke="#BE1E2D" stroke-width="0.5" stroke-miterlimit="10" x1="183.792" y1="353.229" x2="410.357" y2="599.898"/>
<line opacity="0.75" fill="none" stroke="#BE1E2D" stroke-width="0.5" stroke-miterlimit="10" x1="183.771" y1="353.271" x2="339.076" y2="644.664"/>
<line opacity="0.75" fill="none" stroke="#BE1E2D" stroke-width="0.5" stroke-miterlimit="10" x1="183.792" y1="353.229" x2="256.548" y2="675.512"/>
<line opacity="0.75" fill="none" stroke="#BE1E2D" stroke-width="0.5" stroke-miterlimit="10" x1="183.792" y1="353.229" x2="167.624" y2="686.298"/>
<line opacity="0.75" fill="none" stroke="#BE1E2D" stroke-width="0.5" stroke-miterlimit="10" x1="183.875" y1="353.208" x2="76.972" y2="668.952"/>
<g>
	<path fill="#BE1E2D" d="M531.804,461.694h-3.006v5.177h-1.696v-12.797h4.236c1.441,0,2.55,0.328,3.326,0.984
		s1.165,1.611,1.165,2.865c0,0.797-0.216,1.491-0.646,2.083c-0.432,0.592-1.03,1.034-1.798,1.327l3.006,5.432v0.105h-1.811
		L531.804,461.694z M528.798,460.314h2.593c0.838,0,1.504-0.217,2-0.651c0.494-0.435,0.742-1.016,0.742-1.743
		c0-0.793-0.236-1.4-0.707-1.823c-0.473-0.423-1.153-0.637-2.044-0.643h-2.584V460.314z"/>
	<path fill="#BE1E2D" d="M545.427,460.956h-5.546v4.535h6.442v1.38h-8.13v-12.797h8.042v1.38h-6.354v4.122h5.546V460.956z"/>
	<path fill="#BE1E2D" d="M555.657,460.956h-5.546v4.535h6.442v1.38h-8.13v-12.797h8.042v1.38h-6.354v4.122h5.546V460.956z"/>
	<path fill="#BE1E2D" d="M568.489,466.871h-1.696l-6.442-9.861v9.861h-1.696v-12.797h1.696l6.46,9.905v-9.905h1.679V466.871z"/>
	<path fill="#BE1E2D" d="M580.073,455.454h-4.113v11.417h-1.679v-11.417h-4.104v-1.38h9.896V455.454z"/>
	<path fill="#BE1E2D" d="M586.665,461.694h-3.006v5.177h-1.696v-12.797h4.236c1.441,0,2.55,0.328,3.326,0.984
		s1.165,1.611,1.165,2.865c0,0.797-0.216,1.491-0.646,2.083c-0.432,0.592-1.03,1.034-1.798,1.327l3.006,5.432v0.105h-1.811
		L586.665,461.694z M583.659,460.314h2.593c0.838,0,1.504-0.217,2-0.651c0.494-0.435,0.742-1.016,0.742-1.743
		c0-0.793-0.236-1.4-0.707-1.823c-0.473-0.423-1.153-0.637-2.044-0.643h-2.584V460.314z"/>
	<path fill="#BE1E2D" d="M596.535,460.499l3.34-6.425h1.916l-4.412,8.024v4.772h-1.688v-4.772l-4.412-8.024h1.934L596.535,460.499z"
		/>
</g>
<g>
	<path fill="#BE1E2D" d="M40.798,706.528v5.01H39.11v-12.797h4.72c1.4,0,2.497,0.357,3.291,1.072s1.191,1.661,1.191,2.839
		c0,1.242-0.389,2.199-1.164,2.87c-0.777,0.671-1.889,1.006-3.336,1.006H40.798z M40.798,705.148h3.032
		c0.902,0,1.594-0.213,2.074-0.639c0.48-0.425,0.721-1.04,0.721-1.845c0-0.763-0.24-1.373-0.721-1.831s-1.14-0.695-1.978-0.713
		h-3.129V705.148z"/>
	<path fill="#BE1E2D" d="M60.31,705.553c0,1.254-0.211,2.349-0.633,3.282c-0.422,0.936-1.02,1.648-1.793,2.141
		s-1.676,0.738-2.707,0.738c-1.008,0-1.901-0.247-2.681-0.742s-1.385-1.201-1.814-2.119c-0.432-0.916-0.652-1.979-0.664-3.186
		v-0.923c0-1.23,0.214-2.317,0.642-3.261s1.032-1.666,1.815-2.166c0.781-0.502,1.677-0.752,2.685-0.752
		c1.025,0,1.929,0.248,2.712,0.742c0.781,0.496,1.384,1.213,1.806,2.154c0.422,0.939,0.633,2.034,0.633,3.282V705.553z
		 M58.631,704.727c0-1.518-0.305-2.682-0.914-3.493s-1.462-1.218-2.558-1.218c-1.066,0-1.906,0.406-2.519,1.218
		s-0.927,1.938-0.944,3.379v0.94c0,1.471,0.309,2.627,0.927,3.468s1.47,1.261,2.554,1.261c1.09,0,1.934-0.396,2.531-1.19
		s0.905-1.933,0.923-3.415V704.727z"/>
	<path fill="#BE1E2D" d="M66.884,709.297l3.656-10.556h1.846l-4.746,12.797h-1.494l-4.737-12.797h1.837L66.884,709.297z"/>
	<path fill="#BE1E2D" d="M81.333,705.623h-5.546v4.535h6.442v1.38H74.1v-12.797h8.042v1.38h-6.354v4.122h5.546V705.623z"/>
	<path fill="#BE1E2D" d="M89.023,706.361h-3.006v5.177h-1.696v-12.797h4.236c1.441,0,2.55,0.328,3.326,0.984
		s1.165,1.611,1.165,2.865c0,0.797-0.216,1.491-0.646,2.083c-0.432,0.592-1.03,1.034-1.798,1.327l3.006,5.432v0.105h-1.811
		L89.023,706.361z M86.018,704.981h2.593c0.838,0,1.504-0.217,2-0.651c0.494-0.435,0.742-1.016,0.742-1.743
		c0-0.793-0.236-1.4-0.707-1.823c-0.473-0.423-1.153-0.637-2.044-0.643h-2.584V704.981z"/>
	<path fill="#BE1E2D" d="M103.552,700.121h-4.113v11.417H97.76v-11.417h-4.104v-1.38h9.896V700.121z"/>
	<path fill="#BE1E2D" d="M109.493,705.166l3.34-6.425h1.916l-4.412,8.024v4.772h-1.688v-4.772l-4.412-8.024h1.934L109.493,705.166z"
		/>
</g>
<g>
	<path fill="#BE1E2D" d="M530.178,513.564v7.734c-0.005,1.073-0.343,1.95-1.012,2.633s-1.577,1.065-2.723,1.148l-0.398,0.016
		c-1.245,0-2.237-0.336-2.977-1.008s-1.114-1.597-1.125-2.773v-7.75h1.484v7.703c0,0.823,0.227,1.462,0.68,1.918
		s1.099,0.684,1.938,0.684c0.849,0,1.499-0.227,1.949-0.68s0.676-1.091,0.676-1.914v-7.711H530.178z"/>
	<path fill="#BE1E2D" d="M533.686,516.486l0.047,1.062c0.646-0.812,1.489-1.219,2.531-1.219c1.786,0,2.688,1.008,2.703,3.023v5.586
		h-1.445v-5.594c-0.005-0.609-0.145-1.06-0.418-1.352s-0.699-0.438-1.277-0.438c-0.469,0-0.88,0.125-1.234,0.375
		s-0.63,0.578-0.828,0.984v6.023h-1.445v-8.453H533.686z"/>
	<path fill="#BE1E2D" d="M544.654,525.096c-1.146,0-2.078-0.376-2.797-1.129s-1.078-1.759-1.078-3.02v-0.266
		c0-0.839,0.16-1.587,0.48-2.246s0.769-1.175,1.344-1.547s1.199-0.559,1.871-0.559c1.099,0,1.953,0.362,2.562,1.086
		s0.914,1.761,0.914,3.109v0.602h-5.727c0.021,0.833,0.265,1.507,0.73,2.02s1.059,0.77,1.777,0.77c0.511,0,0.942-0.104,1.297-0.312
		s0.664-0.484,0.93-0.828l0.883,0.688C547.134,524.552,546.071,525.096,544.654,525.096z M544.475,517.518
		c-0.583,0-1.073,0.212-1.469,0.637s-0.641,1.02-0.734,1.785h4.234v-0.109c-0.042-0.734-0.239-1.304-0.594-1.707
		S545.079,517.518,544.475,517.518z"/>
	<path fill="#BE1E2D" d="M550.982,516.486l0.039,0.938c0.62-0.729,1.456-1.094,2.508-1.094c1.183,0,1.987,0.453,2.414,1.359
		c0.281-0.406,0.647-0.734,1.098-0.984s0.983-0.375,1.598-0.375c1.854,0,2.797,0.981,2.828,2.945v5.664h-1.445v-5.578
		c0-0.604-0.138-1.056-0.414-1.355s-0.739-0.449-1.391-0.449c-0.536,0-0.981,0.16-1.336,0.48s-0.56,0.751-0.617,1.293v5.609h-1.453
		V519.4c0-1.229-0.602-1.844-1.805-1.844c-0.948,0-1.597,0.403-1.945,1.211v6.172h-1.445v-8.453H550.982z"/>
	<path fill="#BE1E2D" d="M570.787,520.807c0,1.286-0.294,2.323-0.883,3.109s-1.386,1.18-2.391,1.18
		c-1.026,0-1.833-0.325-2.422-0.977v4.07h-1.445v-11.703h1.32l0.07,0.938c0.589-0.729,1.406-1.094,2.453-1.094
		c1.016,0,1.819,0.383,2.41,1.148s0.887,1.831,0.887,3.195V520.807z M569.342,520.643c0-0.953-0.203-1.706-0.609-2.258
		s-0.964-0.828-1.672-0.828c-0.875,0-1.531,0.388-1.969,1.164v4.039c0.433,0.771,1.094,1.156,1.984,1.156
		c0.692,0,1.243-0.274,1.652-0.824S569.342,521.726,569.342,520.643z"/>
	<path fill="#BE1E2D" d="M574.193,524.939h-1.445v-12h1.445V524.939z"/>
	<path fill="#BE1E2D" d="M576.123,520.635c0-0.828,0.163-1.573,0.488-2.234s0.778-1.172,1.359-1.531s1.243-0.539,1.988-0.539
		c1.151,0,2.082,0.398,2.793,1.195s1.066,1.856,1.066,3.18v0.102c0,0.823-0.157,1.562-0.473,2.215s-0.766,1.163-1.352,1.527
		s-1.259,0.547-2.02,0.547c-1.146,0-2.074-0.398-2.785-1.195s-1.066-1.852-1.066-3.164V520.635z M577.576,520.807
		c0,0.938,0.218,1.69,0.652,2.258s1.017,0.852,1.746,0.852c0.734,0,1.317-0.288,1.75-0.863s0.648-1.382,0.648-2.418
		c0-0.927-0.22-1.679-0.66-2.254s-1.024-0.863-1.754-0.863c-0.714,0-1.289,0.284-1.727,0.852S577.576,519.749,577.576,520.807z"/>
	<path fill="#BE1E2D" d="M588.279,522.822l1.969-6.336h1.547l-3.398,9.758c-0.526,1.406-1.362,2.109-2.508,2.109l-0.273-0.023
		l-0.539-0.102v-1.172l0.391,0.031c0.489,0,0.871-0.099,1.145-0.297s0.499-0.56,0.676-1.086l0.32-0.859l-3.016-8.359h1.578
		L588.279,522.822z"/>
	<path fill="#BE1E2D" d="M594.443,516.486l0.039,0.938c0.62-0.729,1.456-1.094,2.508-1.094c1.183,0,1.987,0.453,2.414,1.359
		c0.281-0.406,0.647-0.734,1.098-0.984s0.983-0.375,1.598-0.375c1.854,0,2.797,0.981,2.828,2.945v5.664h-1.445v-5.578
		c0-0.604-0.138-1.056-0.414-1.355s-0.739-0.449-1.391-0.449c-0.536,0-0.981,0.16-1.336,0.48s-0.56,0.751-0.617,1.293v5.609h-1.453
		V519.4c0-1.229-0.602-1.844-1.805-1.844c-0.948,0-1.597,0.403-1.945,1.211v6.172h-1.445v-8.453H594.443z"/>
	<path fill="#BE1E2D" d="M610.615,525.096c-1.146,0-2.078-0.376-2.797-1.129s-1.078-1.759-1.078-3.02v-0.266
		c0-0.839,0.16-1.587,0.48-2.246s0.769-1.175,1.344-1.547s1.199-0.559,1.871-0.559c1.099,0,1.953,0.362,2.562,1.086
		s0.914,1.761,0.914,3.109v0.602h-5.727c0.021,0.833,0.265,1.507,0.73,2.02s1.059,0.77,1.777,0.77c0.511,0,0.942-0.104,1.297-0.312
		s0.664-0.484,0.93-0.828l0.883,0.688C613.095,524.552,612.032,525.096,610.615,525.096z M610.436,517.518
		c-0.583,0-1.073,0.212-1.469,0.637s-0.641,1.02-0.734,1.785h4.234v-0.109c-0.042-0.734-0.239-1.304-0.594-1.707
		S611.04,517.518,610.436,517.518z"/>
	<path fill="#BE1E2D" d="M616.951,516.486l0.047,1.062c0.646-0.812,1.489-1.219,2.531-1.219c1.786,0,2.688,1.008,2.703,3.023v5.586
		h-1.445v-5.594c-0.005-0.609-0.145-1.06-0.418-1.352s-0.699-0.438-1.277-0.438c-0.469,0-0.88,0.125-1.234,0.375
		s-0.63,0.578-0.828,0.984v6.023h-1.445v-8.453H616.951z"/>
	<path fill="#BE1E2D" d="M626.373,514.439v2.047h1.578v1.117h-1.578v5.249c0,0.339,0.07,0.593,0.211,0.763
		c0.141,0.169,0.38,0.254,0.719,0.254c0.167,0,0.396-0.031,0.688-0.094v1.165c-0.38,0.104-0.75,0.155-1.109,0.155
		c-0.646,0-1.133-0.195-1.461-0.586s-0.492-0.945-0.492-1.664v-5.242h-1.539v-1.117h1.539v-2.047H626.373z"/>
</g>
<g>
	<path fill="#A7A9AC" d="M393.146,651.462c-1.286-0.37-2.223-0.824-2.809-1.363s-0.879-1.204-0.879-1.996
		c0-0.896,0.358-1.637,1.074-2.223s1.647-0.879,2.793-0.879c0.781,0,1.478,0.151,2.09,0.453s1.086,0.719,1.422,1.25
		s0.504,1.112,0.504,1.742h-1.508c0-0.689-0.219-1.232-0.656-1.627s-1.055-0.592-1.852-0.592c-0.739,0-1.316,0.163-1.73,0.489
		s-0.621,0.778-0.621,1.357c0,0.465,0.196,0.857,0.59,1.179c0.394,0.32,1.062,0.614,2.008,0.88c0.945,0.267,1.685,0.56,2.219,0.88
		s0.93,0.694,1.188,1.121s0.387,0.93,0.387,1.508c0,0.922-0.359,1.66-1.078,2.215s-1.68,0.832-2.883,0.832
		c-0.781,0-1.511-0.149-2.188-0.449s-1.199-0.71-1.566-1.23s-0.551-1.112-0.551-1.773h1.508c0,0.688,0.254,1.23,0.762,1.629
		s1.187,0.598,2.035,0.598c0.792,0,1.398-0.161,1.82-0.484s0.633-0.763,0.633-1.32s-0.195-0.988-0.586-1.293
		S394.173,651.759,393.146,651.462z"/>
	<path fill="#A7A9AC" d="M402.568,656.688c-1.146,0-2.078-0.376-2.797-1.129s-1.078-1.759-1.078-3.02v-0.266
		c0-0.839,0.16-1.587,0.48-2.246s0.769-1.175,1.344-1.547s1.199-0.559,1.871-0.559c1.099,0,1.953,0.362,2.562,1.086
		s0.914,1.761,0.914,3.109v0.602h-5.727c0.021,0.833,0.265,1.507,0.73,2.02s1.059,0.77,1.777,0.77c0.511,0,0.942-0.104,1.297-0.312
		s0.664-0.484,0.93-0.828l0.883,0.688C405.048,656.145,403.985,656.688,402.568,656.688z M402.389,649.11
		c-0.583,0-1.073,0.212-1.469,0.637s-0.641,1.02-0.734,1.785h4.234v-0.109c-0.042-0.734-0.239-1.304-0.594-1.707
		S402.993,649.11,402.389,649.11z"/>
	<path fill="#A7A9AC" d="M414.678,652.399c0,1.286-0.294,2.323-0.883,3.109s-1.386,1.18-2.391,1.18
		c-1.026,0-1.833-0.325-2.422-0.977v4.07h-1.445v-11.703h1.32l0.07,0.938c0.589-0.729,1.406-1.094,2.453-1.094
		c1.016,0,1.819,0.383,2.41,1.148s0.887,1.831,0.887,3.195V652.399z M413.232,652.235c0-0.953-0.203-1.706-0.609-2.258
		s-0.964-0.828-1.672-0.828c-0.875,0-1.531,0.388-1.969,1.164v4.039c0.433,0.771,1.094,1.156,1.984,1.156
		c0.692,0,1.243-0.274,1.652-0.824S413.232,653.318,413.232,652.235z"/>
	<path fill="#A7A9AC" d="M421.732,656.532c-0.083-0.167-0.151-0.464-0.203-0.891c-0.672,0.698-1.474,1.047-2.406,1.047
		c-0.833,0-1.517-0.235-2.051-0.707s-0.801-1.069-0.801-1.793c0-0.88,0.335-1.563,1.004-2.051s1.61-0.73,2.824-0.73h1.406v-0.664
		c0-0.505-0.151-0.907-0.453-1.207s-0.747-0.449-1.336-0.449c-0.516,0-0.948,0.13-1.297,0.391s-0.523,0.575-0.523,0.945h-1.453
		c0-0.422,0.149-0.829,0.449-1.223s0.706-0.704,1.219-0.934s1.077-0.344,1.691-0.344c0.974,0,1.737,0.243,2.289,0.73
		s0.839,1.157,0.859,2.012v3.891c0,0.776,0.099,1.394,0.297,1.852v0.125H421.732z M419.334,655.431c0.453,0,0.883-0.117,1.289-0.352
		s0.7-0.539,0.883-0.914v-1.734h-1.133c-1.771,0-2.656,0.519-2.656,1.555c0,0.453,0.151,0.808,0.453,1.062
		S418.86,655.431,419.334,655.431z"/>
	<path fill="#A7A9AC" d="M429.303,649.376c-0.219-0.036-0.456-0.055-0.711-0.055c-0.948,0-1.591,0.403-1.93,1.211v6h-1.445v-8.453
		h1.406l0.023,0.977c0.474-0.755,1.146-1.133,2.016-1.133c0.281,0,0.495,0.036,0.641,0.109V649.376z"/>
	<path fill="#A7A9AC" d="M435.537,656.532c-0.083-0.167-0.151-0.464-0.203-0.891c-0.672,0.698-1.474,1.047-2.406,1.047
		c-0.833,0-1.517-0.235-2.051-0.707s-0.801-1.069-0.801-1.793c0-0.88,0.335-1.563,1.004-2.051s1.61-0.73,2.824-0.73h1.406v-0.664
		c0-0.505-0.151-0.907-0.453-1.207s-0.747-0.449-1.336-0.449c-0.516,0-0.948,0.13-1.297,0.391s-0.523,0.575-0.523,0.945h-1.453
		c0-0.422,0.149-0.829,0.449-1.223s0.706-0.704,1.219-0.934s1.077-0.344,1.691-0.344c0.974,0,1.737,0.243,2.289,0.73
		s0.839,1.157,0.859,2.012v3.891c0,0.776,0.099,1.394,0.297,1.852v0.125H435.537z M433.139,655.431c0.453,0,0.883-0.117,1.289-0.352
		s0.7-0.539,0.883-0.914v-1.734h-1.133c-1.771,0-2.656,0.519-2.656,1.555c0,0.453,0.151,0.808,0.453,1.062
		S432.665,655.431,433.139,655.431z"/>
	<path fill="#A7A9AC" d="M440.982,646.032v2.047h1.578v1.117h-1.578v5.249c0,0.339,0.07,0.593,0.211,0.763
		c0.141,0.169,0.38,0.254,0.719,0.254c0.167,0,0.396-0.031,0.688-0.094v1.165c-0.38,0.104-0.75,0.155-1.109,0.155
		c-0.646,0-1.133-0.195-1.461-0.586s-0.492-0.945-0.492-1.664v-5.242h-1.539v-1.117h1.539v-2.047H440.982z"/>
	<path fill="#A7A9AC" d="M444.256,645.837c0-0.234,0.071-0.433,0.215-0.594s0.355-0.242,0.637-0.242s0.495,0.081,0.641,0.242
		s0.219,0.359,0.219,0.594s-0.073,0.43-0.219,0.586s-0.359,0.234-0.641,0.234s-0.493-0.078-0.637-0.234
		S444.256,646.071,444.256,645.837z M445.818,656.532h-1.445v-8.453h1.445V656.532z"/>
	<path fill="#A7A9AC" d="M447.748,652.228c0-0.828,0.163-1.573,0.488-2.234s0.778-1.172,1.359-1.531s1.243-0.539,1.988-0.539
		c1.151,0,2.082,0.398,2.793,1.195s1.066,1.856,1.066,3.18v0.102c0,0.823-0.157,1.562-0.473,2.215s-0.766,1.163-1.352,1.527
		s-1.259,0.547-2.02,0.547c-1.146,0-2.074-0.398-2.785-1.195s-1.066-1.852-1.066-3.164V652.228z M449.201,652.399
		c0,0.938,0.218,1.69,0.652,2.258s1.017,0.852,1.746,0.852c0.734,0,1.317-0.288,1.75-0.863s0.648-1.382,0.648-2.418
		c0-0.927-0.22-1.679-0.66-2.254s-1.024-0.863-1.754-0.863c-0.714,0-1.289,0.284-1.727,0.852S449.201,651.342,449.201,652.399z"/>
	<path fill="#A7A9AC" d="M458.623,648.079l0.047,1.062c0.646-0.812,1.489-1.219,2.531-1.219c1.786,0,2.688,1.008,2.703,3.023v5.586
		h-1.445v-5.594c-0.005-0.609-0.145-1.06-0.418-1.352s-0.699-0.438-1.277-0.438c-0.469,0-0.88,0.125-1.234,0.375
		s-0.63,0.578-0.828,0.984v6.023h-1.445v-8.453H458.623z"/>
	<path fill="#A7A9AC" d="M469.662,652.228c0-0.828,0.163-1.573,0.488-2.234s0.778-1.172,1.359-1.531s1.243-0.539,1.988-0.539
		c1.151,0,2.082,0.398,2.793,1.195s1.066,1.856,1.066,3.18v0.102c0,0.823-0.157,1.562-0.473,2.215s-0.766,1.163-1.352,1.527
		s-1.259,0.547-2.02,0.547c-1.146,0-2.074-0.398-2.785-1.195s-1.066-1.852-1.066-3.164V652.228z M471.115,652.399
		c0,0.938,0.218,1.69,0.652,2.258s1.017,0.852,1.746,0.852c0.734,0,1.317-0.288,1.75-0.863s0.648-1.382,0.648-2.418
		c0-0.927-0.22-1.679-0.66-2.254s-1.024-0.863-1.754-0.863c-0.714,0-1.289,0.284-1.727,0.852S471.115,651.342,471.115,652.399z"/>
	<path fill="#A7A9AC" d="M479.881,656.532v-7.336h-1.336v-1.117h1.336v-0.867c0-0.906,0.242-1.606,0.727-2.102
		s1.169-0.742,2.055-0.742c0.333,0,0.664,0.044,0.992,0.132l-0.078,1.165c-0.245-0.047-0.505-0.07-0.781-0.07
		c-0.469,0-0.831,0.137-1.086,0.411s-0.383,0.668-0.383,1.18v0.894h1.805v1.117h-1.805v7.336H479.881z"/>
	<path fill="#A7A9AC" d="M489.396,656.532v-7.336h-1.336v-1.117h1.336v-0.867c0-0.906,0.242-1.606,0.727-2.102
		s1.169-0.742,2.055-0.742c0.333,0,0.664,0.044,0.992,0.132l-0.078,1.165c-0.245-0.047-0.505-0.07-0.781-0.07
		c-0.469,0-0.831,0.137-1.086,0.411s-0.383,0.668-0.383,1.18v0.894h1.805v1.117h-1.805v7.336H489.396z"/>
	<path fill="#A7A9AC" d="M499.459,656.532c-0.083-0.167-0.151-0.464-0.203-0.891c-0.672,0.698-1.474,1.047-2.406,1.047
		c-0.833,0-1.517-0.235-2.051-0.707s-0.801-1.069-0.801-1.793c0-0.88,0.335-1.563,1.004-2.051s1.61-0.73,2.824-0.73h1.406v-0.664
		c0-0.505-0.151-0.907-0.453-1.207s-0.747-0.449-1.336-0.449c-0.516,0-0.948,0.13-1.297,0.391s-0.523,0.575-0.523,0.945h-1.453
		c0-0.422,0.149-0.829,0.449-1.223s0.706-0.704,1.219-0.934s1.077-0.344,1.691-0.344c0.974,0,1.737,0.243,2.289,0.73
		s0.839,1.157,0.859,2.012v3.891c0,0.776,0.099,1.394,0.297,1.852v0.125H499.459z M497.061,655.431c0.453,0,0.883-0.117,1.289-0.352
		s0.7-0.539,0.883-0.914v-1.734H498.1c-1.771,0-2.656,0.519-2.656,1.555c0,0.453,0.151,0.808,0.453,1.062
		S496.587,655.431,497.061,655.431z"/>
	<path fill="#A7A9AC" d="M504.303,648.079l0.039,0.938c0.62-0.729,1.456-1.094,2.508-1.094c1.183,0,1.987,0.453,2.414,1.359
		c0.281-0.406,0.647-0.734,1.098-0.984s0.983-0.375,1.598-0.375c1.854,0,2.797,0.981,2.828,2.945v5.664h-1.445v-5.578
		c0-0.604-0.138-1.056-0.414-1.355s-0.739-0.449-1.391-0.449c-0.536,0-0.981,0.16-1.336,0.48s-0.56,0.751-0.617,1.293v5.609h-1.453
		v-5.539c0-1.229-0.602-1.844-1.805-1.844c-0.948,0-1.597,0.403-1.945,1.211v6.172h-1.445v-8.453H504.303z"/>
	<path fill="#A7A9AC" d="M516.975,645.837c0-0.234,0.071-0.433,0.215-0.594s0.355-0.242,0.637-0.242s0.495,0.081,0.641,0.242
		s0.219,0.359,0.219,0.594s-0.073,0.43-0.219,0.586s-0.359,0.234-0.641,0.234s-0.493-0.078-0.637-0.234
		S516.975,646.071,516.975,645.837z M518.537,656.532h-1.445v-8.453h1.445V656.532z"/>
	<path fill="#A7A9AC" d="M522.42,656.532h-1.445v-12h1.445V656.532z"/>
	<path fill="#A7A9AC" d="M524.74,645.837c0-0.234,0.071-0.433,0.215-0.594s0.355-0.242,0.637-0.242s0.495,0.081,0.641,0.242
		s0.219,0.359,0.219,0.594s-0.073,0.43-0.219,0.586s-0.359,0.234-0.641,0.234s-0.493-0.078-0.637-0.234
		S524.74,646.071,524.74,645.837z M526.303,656.532h-1.445v-8.453h1.445V656.532z"/>
	<path fill="#A7A9AC" d="M532.123,656.688c-1.146,0-2.078-0.376-2.797-1.129s-1.078-1.759-1.078-3.02v-0.266
		c0-0.839,0.16-1.587,0.48-2.246s0.769-1.175,1.344-1.547s1.199-0.559,1.871-0.559c1.099,0,1.953,0.362,2.562,1.086
		s0.914,1.761,0.914,3.109v0.602h-5.727c0.021,0.833,0.265,1.507,0.73,2.02s1.059,0.77,1.777,0.77c0.511,0,0.942-0.104,1.297-0.312
		s0.664-0.484,0.93-0.828l0.883,0.688C534.603,656.145,533.54,656.688,532.123,656.688z M531.943,649.11
		c-0.583,0-1.073,0.212-1.469,0.637s-0.641,1.02-0.734,1.785h4.234v-0.109c-0.042-0.734-0.239-1.304-0.594-1.707
		S532.548,649.11,531.943,649.11z"/>
	<path fill="#A7A9AC" d="M542.014,654.29c0-0.391-0.147-0.694-0.441-0.91s-0.808-0.402-1.539-0.559s-1.312-0.344-1.742-0.562
		s-0.747-0.479-0.953-0.781s-0.309-0.661-0.309-1.078c0-0.692,0.293-1.278,0.879-1.758s1.335-0.719,2.246-0.719
		c0.958,0,1.735,0.247,2.332,0.742s0.895,1.128,0.895,1.898h-1.453c0-0.396-0.168-0.737-0.504-1.023s-0.759-0.43-1.27-0.43
		c-0.526,0-0.938,0.114-1.234,0.344s-0.445,0.528-0.445,0.898c0,0.349,0.138,0.612,0.414,0.789s0.774,0.347,1.496,0.508
		s1.306,0.354,1.754,0.578s0.78,0.493,0.996,0.809s0.324,0.699,0.324,1.152c0,0.755-0.302,1.36-0.906,1.816
		s-1.388,0.684-2.352,0.684c-0.677,0-1.276-0.12-1.797-0.359s-0.929-0.574-1.223-1.004s-0.441-0.895-0.441-1.395h1.445
		c0.026,0.484,0.22,0.868,0.582,1.152s0.84,0.426,1.434,0.426c0.547,0,0.985-0.11,1.316-0.332S542.014,654.66,542.014,654.29z"/>
</g>
<g>
	<path fill="#A7A9AC" d="M466.076,589.819h-4.766l-1.07,2.977h-1.547l4.344-11.375h1.312l4.352,11.375h-1.539L466.076,589.819z
		 M461.764,588.593h3.867l-1.938-5.32L461.764,588.593z"/>
	<path fill="#A7A9AC" d="M473.396,591.772c0.516,0,0.966-0.156,1.352-0.469s0.599-0.703,0.641-1.172h1.367
		c-0.026,0.484-0.192,0.945-0.5,1.383s-0.718,0.786-1.23,1.047s-1.056,0.391-1.629,0.391c-1.151,0-2.066-0.384-2.746-1.152
		s-1.02-1.819-1.02-3.152v-0.242c0-0.823,0.151-1.555,0.453-2.195s0.735-1.138,1.301-1.492s1.233-0.531,2.004-0.531
		c0.948,0,1.735,0.284,2.363,0.852s0.962,1.305,1.004,2.211h-1.367c-0.042-0.547-0.249-0.996-0.621-1.348s-0.832-0.527-1.379-0.527
		c-0.734,0-1.304,0.265-1.707,0.793s-0.605,1.293-0.605,2.293v0.273c0,0.974,0.2,1.724,0.602,2.25S472.651,591.772,473.396,591.772z
		"/>
	<path fill="#A7A9AC" d="M481.771,591.772c0.516,0,0.966-0.156,1.352-0.469s0.599-0.703,0.641-1.172h1.367
		c-0.026,0.484-0.192,0.945-0.5,1.383s-0.718,0.786-1.23,1.047s-1.056,0.391-1.629,0.391c-1.151,0-2.066-0.384-2.746-1.152
		s-1.02-1.819-1.02-3.152v-0.242c0-0.823,0.151-1.555,0.453-2.195s0.735-1.138,1.301-1.492s1.233-0.531,2.004-0.531
		c0.948,0,1.735,0.284,2.363,0.852s0.962,1.305,1.004,2.211h-1.367c-0.042-0.547-0.249-0.996-0.621-1.348s-0.832-0.527-1.379-0.527
		c-0.734,0-1.304,0.265-1.707,0.793s-0.605,1.293-0.605,2.293v0.273c0,0.974,0.2,1.724,0.602,2.25S481.026,591.772,481.771,591.772z
		"/>
	<path fill="#A7A9AC" d="M490.264,592.952c-1.146,0-2.078-0.376-2.797-1.129s-1.078-1.759-1.078-3.02v-0.266
		c0-0.839,0.16-1.587,0.48-2.246s0.769-1.175,1.344-1.547s1.199-0.559,1.871-0.559c1.099,0,1.953,0.362,2.562,1.086
		s0.914,1.761,0.914,3.109v0.602h-5.727c0.021,0.833,0.265,1.507,0.73,2.02s1.059,0.77,1.777,0.77c0.511,0,0.942-0.104,1.297-0.312
		s0.664-0.484,0.93-0.828l0.883,0.688C492.743,592.408,491.681,592.952,490.264,592.952z M490.084,585.374
		c-0.583,0-1.073,0.212-1.469,0.637s-0.641,1.02-0.734,1.785h4.234v-0.109c-0.042-0.734-0.239-1.304-0.594-1.707
		S490.688,585.374,490.084,585.374z"/>
	<path fill="#A7A9AC" d="M500.154,590.554c0-0.391-0.147-0.694-0.441-0.91s-0.808-0.402-1.539-0.559s-1.312-0.344-1.742-0.562
		s-0.747-0.479-0.953-0.781s-0.309-0.661-0.309-1.078c0-0.692,0.293-1.278,0.879-1.758s1.335-0.719,2.246-0.719
		c0.958,0,1.735,0.247,2.332,0.742s0.895,1.128,0.895,1.898h-1.453c0-0.396-0.168-0.737-0.504-1.023s-0.759-0.43-1.27-0.43
		c-0.526,0-0.938,0.114-1.234,0.344s-0.445,0.528-0.445,0.898c0,0.349,0.138,0.612,0.414,0.789s0.774,0.347,1.496,0.508
		s1.306,0.354,1.754,0.578s0.78,0.493,0.996,0.809s0.324,0.699,0.324,1.152c0,0.755-0.302,1.36-0.906,1.816
		s-1.388,0.684-2.352,0.684c-0.677,0-1.276-0.12-1.797-0.359s-0.929-0.574-1.223-1.004s-0.441-0.895-0.441-1.395h1.445
		c0.026,0.484,0.22,0.868,0.582,1.152s0.84,0.426,1.434,0.426c0.547,0,0.985-0.11,1.316-0.332S500.154,590.924,500.154,590.554z"/>
	<path fill="#A7A9AC" d="M508.404,590.554c0-0.391-0.147-0.694-0.441-0.91s-0.808-0.402-1.539-0.559s-1.312-0.344-1.742-0.562
		s-0.747-0.479-0.953-0.781s-0.309-0.661-0.309-1.078c0-0.692,0.293-1.278,0.879-1.758s1.335-0.719,2.246-0.719
		c0.958,0,1.735,0.247,2.332,0.742s0.895,1.128,0.895,1.898h-1.453c0-0.396-0.168-0.737-0.504-1.023s-0.759-0.43-1.27-0.43
		c-0.526,0-0.938,0.114-1.234,0.344s-0.445,0.528-0.445,0.898c0,0.349,0.138,0.612,0.414,0.789s0.774,0.347,1.496,0.508
		s1.306,0.354,1.754,0.578s0.78,0.493,0.996,0.809s0.324,0.699,0.324,1.152c0,0.755-0.302,1.36-0.906,1.816
		s-1.388,0.684-2.352,0.684c-0.677,0-1.276-0.12-1.797-0.359s-0.929-0.574-1.223-1.004s-0.441-0.895-0.441-1.395h1.445
		c0.026,0.484,0.22,0.868,0.582,1.152s0.84,0.426,1.434,0.426c0.547,0,0.985-0.11,1.316-0.332S508.404,590.924,508.404,590.554z"/>
	<path fill="#A7A9AC" d="M517.654,582.296v2.047h1.578v1.117h-1.578v5.249c0,0.339,0.07,0.593,0.211,0.763
		c0.141,0.169,0.38,0.254,0.719,0.254c0.167,0,0.396-0.031,0.688-0.094v1.165c-0.38,0.104-0.75,0.155-1.109,0.155
		c-0.646,0-1.133-0.195-1.461-0.586s-0.492-0.945-0.492-1.664v-5.242h-1.539v-1.117h1.539v-2.047H517.654z"/>
	<path fill="#A7A9AC" d="M520.381,588.491c0-0.828,0.163-1.573,0.488-2.234s0.778-1.172,1.359-1.531s1.243-0.539,1.988-0.539
		c1.151,0,2.082,0.398,2.793,1.195s1.066,1.856,1.066,3.18v0.102c0,0.823-0.157,1.562-0.473,2.215s-0.766,1.163-1.352,1.527
		s-1.259,0.547-2.02,0.547c-1.146,0-2.074-0.398-2.785-1.195s-1.066-1.852-1.066-3.164V588.491z M521.834,588.663
		c0,0.938,0.218,1.69,0.652,2.258s1.017,0.852,1.746,0.852c0.734,0,1.317-0.288,1.75-0.863s0.648-1.382,0.648-2.418
		c0-0.927-0.22-1.679-0.66-2.254s-1.024-0.863-1.754-0.863c-0.714,0-1.289,0.284-1.727,0.852S521.834,587.605,521.834,588.663z"/>
	<path fill="#A7A9AC" d="M535.295,585.366c0.641-0.786,1.474-1.18,2.5-1.18c1.786,0,2.688,1.008,2.703,3.023v5.586h-1.445v-5.594
		c-0.005-0.609-0.145-1.06-0.418-1.352s-0.699-0.438-1.277-0.438c-0.469,0-0.88,0.125-1.234,0.375s-0.63,0.578-0.828,0.984v6.023
		h-1.445v-12h1.445V585.366z"/>
	<path fill="#A7A9AC" d="M542.279,588.491c0-0.828,0.163-1.573,0.488-2.234s0.778-1.172,1.359-1.531s1.243-0.539,1.988-0.539
		c1.151,0,2.082,0.398,2.793,1.195s1.066,1.856,1.066,3.18v0.102c0,0.823-0.157,1.562-0.473,2.215s-0.766,1.163-1.352,1.527
		s-1.259,0.547-2.02,0.547c-1.146,0-2.074-0.398-2.785-1.195s-1.066-1.852-1.066-3.164V588.491z M543.732,588.663
		c0,0.938,0.218,1.69,0.652,2.258s1.017,0.852,1.746,0.852c0.734,0,1.317-0.288,1.75-0.863s0.648-1.382,0.648-2.418
		c0-0.927-0.22-1.679-0.66-2.254s-1.024-0.863-1.754-0.863c-0.714,0-1.289,0.284-1.727,0.852S543.732,587.605,543.732,588.663z"/>
	<path fill="#A7A9AC" d="M557.006,591.96c-0.562,0.661-1.388,0.992-2.477,0.992c-0.901,0-1.587-0.262-2.059-0.785
		s-0.71-1.298-0.715-2.324v-5.5h1.445v5.461c0,1.281,0.521,1.922,1.562,1.922c1.104,0,1.839-0.411,2.203-1.234v-6.148h1.445v8.453
		h-1.375L557.006,591.96z"/>
	<path fill="#A7A9AC" d="M565.529,590.554c0-0.391-0.147-0.694-0.441-0.91s-0.808-0.402-1.539-0.559s-1.312-0.344-1.742-0.562
		s-0.747-0.479-0.953-0.781s-0.309-0.661-0.309-1.078c0-0.692,0.293-1.278,0.879-1.758s1.335-0.719,2.246-0.719
		c0.958,0,1.735,0.247,2.332,0.742s0.895,1.128,0.895,1.898h-1.453c0-0.396-0.168-0.737-0.504-1.023s-0.759-0.43-1.27-0.43
		c-0.526,0-0.938,0.114-1.234,0.344s-0.445,0.528-0.445,0.898c0,0.349,0.138,0.612,0.414,0.789s0.774,0.347,1.496,0.508
		s1.306,0.354,1.754,0.578s0.78,0.493,0.996,0.809s0.324,0.699,0.324,1.152c0,0.755-0.302,1.36-0.906,1.816
		s-1.388,0.684-2.352,0.684c-0.677,0-1.276-0.12-1.797-0.359s-0.929-0.574-1.223-1.004s-0.441-0.895-0.441-1.395h1.445
		c0.026,0.484,0.22,0.868,0.582,1.152s0.84,0.426,1.434,0.426c0.547,0,0.985-0.11,1.316-0.332S565.529,590.924,565.529,590.554z"/>
	<path fill="#A7A9AC" d="M568.865,582.101c0-0.234,0.071-0.433,0.215-0.594s0.355-0.242,0.637-0.242s0.495,0.081,0.641,0.242
		s0.219,0.359,0.219,0.594s-0.073,0.43-0.219,0.586s-0.359,0.234-0.641,0.234s-0.493-0.078-0.637-0.234
		S568.865,582.335,568.865,582.101z M570.428,592.796h-1.445v-8.453h1.445V592.796z"/>
	<path fill="#A7A9AC" d="M574.107,584.343l0.047,1.062c0.646-0.812,1.489-1.219,2.531-1.219c1.786,0,2.688,1.008,2.703,3.023v5.586
		h-1.445v-5.594c-0.005-0.609-0.145-1.06-0.418-1.352s-0.699-0.438-1.277-0.438c-0.469,0-0.88,0.125-1.234,0.375
		s-0.63,0.578-0.828,0.984v6.023h-1.445v-8.453H574.107z"/>
	<path fill="#A7A9AC" d="M581.225,588.499c0-1.317,0.305-2.366,0.914-3.145s1.417-1.168,2.422-1.168
		c1.031,0,1.836,0.364,2.414,1.094l0.07-0.938h1.32v8.25c0,1.094-0.324,1.956-0.973,2.586s-1.52,0.945-2.613,0.945
		c-0.609,0-1.206-0.13-1.789-0.391s-1.028-0.617-1.336-1.07l0.75-0.867c0.62,0.766,1.378,1.148,2.273,1.148
		c0.703,0,1.251-0.198,1.645-0.594s0.59-0.953,0.59-1.672v-0.727c-0.578,0.667-1.367,1-2.367,1c-0.989,0-1.79-0.398-2.402-1.195
		S581.225,589.874,581.225,588.499z M582.678,588.663c0,0.953,0.195,1.702,0.586,2.246s0.938,0.816,1.641,0.816
		c0.911,0,1.581-0.414,2.008-1.242v-3.859c-0.442-0.808-1.106-1.211-1.992-1.211c-0.703,0-1.253,0.273-1.648,0.82
		S582.678,587.59,582.678,588.663z"/>
</g>
<g>
	<path fill="#A7A9AC" d="M308.035,701.862v-11.375h3.211c0.989,0,1.864,0.219,2.625,0.656s1.348,1.06,1.762,1.867
		s0.624,1.734,0.629,2.781v0.727c0,1.073-0.207,2.013-0.621,2.82s-1.005,1.427-1.773,1.859s-1.663,0.653-2.684,0.664H308.035z
		 M309.535,691.714v8.922h1.578c1.156,0,2.056-0.359,2.699-1.079s0.965-1.743,0.965-3.073v-0.664c0-1.293-0.304-2.298-0.91-3.015
		s-1.468-1.08-2.582-1.091H309.535z"/>
	<path fill="#A7A9AC" d="M321.809,702.019c-1.146,0-2.078-0.376-2.797-1.129s-1.078-1.759-1.078-3.02v-0.266
		c0-0.839,0.16-1.587,0.48-2.246s0.769-1.175,1.344-1.547s1.199-0.559,1.871-0.559c1.099,0,1.953,0.362,2.562,1.086
		s0.914,1.761,0.914,3.109v0.602h-5.727c0.021,0.833,0.265,1.507,0.73,2.02s1.059,0.77,1.777,0.77c0.511,0,0.942-0.104,1.297-0.312
		s0.664-0.484,0.93-0.828l0.883,0.688C324.288,701.475,323.226,702.019,321.809,702.019z M321.629,694.44
		c-0.583,0-1.073,0.212-1.469,0.637s-0.641,1.02-0.734,1.785h4.234v-0.109c-0.042-0.734-0.239-1.304-0.594-1.707
		S322.233,694.44,321.629,694.44z"/>
	<path fill="#A7A9AC" d="M333.918,697.729c0,1.286-0.294,2.323-0.883,3.109s-1.386,1.18-2.391,1.18
		c-1.026,0-1.833-0.325-2.422-0.977v4.07h-1.445v-11.703h1.32l0.07,0.938c0.589-0.729,1.406-1.094,2.453-1.094
		c1.016,0,1.819,0.383,2.41,1.148s0.887,1.831,0.887,3.195V697.729z M332.473,697.565c0-0.953-0.203-1.706-0.609-2.258
		s-0.964-0.828-1.672-0.828c-0.875,0-1.531,0.388-1.969,1.164v4.039c0.433,0.771,1.094,1.156,1.984,1.156
		c0.692,0,1.243-0.274,1.652-0.824S332.473,698.648,332.473,697.565z"/>
	<path fill="#A7A9AC" d="M335.371,697.558c0-0.828,0.163-1.573,0.488-2.234s0.778-1.172,1.359-1.531s1.243-0.539,1.988-0.539
		c1.151,0,2.082,0.398,2.793,1.195s1.066,1.856,1.066,3.18v0.102c0,0.823-0.157,1.562-0.473,2.215s-0.766,1.163-1.352,1.527
		s-1.259,0.547-2.02,0.547c-1.146,0-2.074-0.398-2.785-1.195s-1.066-1.852-1.066-3.164V697.558z M336.824,697.729
		c0,0.938,0.218,1.69,0.652,2.258s1.017,0.852,1.746,0.852c0.734,0,1.317-0.288,1.75-0.863s0.648-1.382,0.648-2.418
		c0-0.927-0.22-1.679-0.66-2.254s-1.024-0.863-1.754-0.863c-0.714,0-1.289,0.284-1.727,0.852S336.824,696.672,336.824,697.729z"/>
	<path fill="#A7A9AC" d="M348.965,694.706c-0.219-0.036-0.456-0.055-0.711-0.055c-0.948,0-1.591,0.403-1.93,1.211v6h-1.445v-8.453
		h1.406l0.023,0.977c0.474-0.755,1.146-1.133,2.016-1.133c0.281,0,0.495,0.036,0.641,0.109V694.706z"/>
	<path fill="#A7A9AC" d="M352.645,691.362v2.047h1.578v1.117h-1.578v5.249c0,0.339,0.07,0.593,0.211,0.763
		c0.141,0.169,0.38,0.254,0.719,0.254c0.167,0,0.396-0.031,0.688-0.094v1.165c-0.38,0.104-0.75,0.155-1.109,0.155
		c-0.646,0-1.133-0.195-1.461-0.586s-0.492-0.945-0.492-1.664v-5.242h-1.539v-1.117h1.539v-2.047H352.645z"/>
	<path fill="#A7A9AC" d="M361.129,701.862c-0.083-0.167-0.151-0.464-0.203-0.891c-0.672,0.698-1.474,1.047-2.406,1.047
		c-0.833,0-1.517-0.235-2.051-0.707s-0.801-1.069-0.801-1.793c0-0.88,0.335-1.563,1.004-2.051s1.61-0.73,2.824-0.73h1.406v-0.664
		c0-0.505-0.151-0.907-0.453-1.207s-0.747-0.449-1.336-0.449c-0.516,0-0.948,0.13-1.297,0.391s-0.523,0.575-0.523,0.945h-1.453
		c0-0.422,0.149-0.829,0.449-1.223s0.706-0.704,1.219-0.934s1.077-0.344,1.691-0.344c0.974,0,1.737,0.243,2.289,0.73
		s0.839,1.157,0.859,2.012v3.891c0,0.776,0.099,1.394,0.297,1.852v0.125H361.129z M358.73,700.761c0.453,0,0.883-0.117,1.289-0.352
		s0.7-0.539,0.883-0.914v-1.734h-1.133c-1.771,0-2.656,0.519-2.656,1.555c0,0.453,0.151,0.808,0.453,1.062
		S358.257,700.761,358.73,700.761z"/>
	<path fill="#A7A9AC" d="M366.574,691.362v2.047h1.578v1.117h-1.578v5.249c0,0.339,0.07,0.593,0.211,0.763
		c0.141,0.169,0.38,0.254,0.719,0.254c0.167,0,0.396-0.031,0.688-0.094v1.165c-0.38,0.104-0.75,0.155-1.109,0.155
		c-0.646,0-1.133-0.195-1.461-0.586s-0.492-0.945-0.492-1.664v-5.242h-1.539v-1.117h1.539v-2.047H366.574z"/>
	<path fill="#A7A9AC" d="M369.848,691.167c0-0.234,0.071-0.433,0.215-0.594s0.355-0.242,0.637-0.242s0.495,0.081,0.641,0.242
		s0.219,0.359,0.219,0.594s-0.073,0.43-0.219,0.586s-0.359,0.234-0.641,0.234s-0.493-0.078-0.637-0.234
		S369.848,691.401,369.848,691.167z M371.41,701.862h-1.445v-8.453h1.445V701.862z"/>
	<path fill="#A7A9AC" d="M373.34,697.558c0-0.828,0.163-1.573,0.488-2.234s0.778-1.172,1.359-1.531s1.243-0.539,1.988-0.539
		c1.151,0,2.082,0.398,2.793,1.195s1.066,1.856,1.066,3.18v0.102c0,0.823-0.157,1.562-0.473,2.215s-0.766,1.163-1.352,1.527
		s-1.259,0.547-2.02,0.547c-1.146,0-2.074-0.398-2.785-1.195s-1.066-1.852-1.066-3.164V697.558z M374.793,697.729
		c0,0.938,0.218,1.69,0.652,2.258s1.017,0.852,1.746,0.852c0.734,0,1.317-0.288,1.75-0.863s0.648-1.382,0.648-2.418
		c0-0.927-0.22-1.679-0.66-2.254s-1.024-0.863-1.754-0.863c-0.714,0-1.289,0.284-1.727,0.852S374.793,696.672,374.793,697.729z"/>
	<path fill="#A7A9AC" d="M384.215,693.409l0.047,1.062c0.646-0.812,1.489-1.219,2.531-1.219c1.786,0,2.688,1.008,2.703,3.023v5.586
		h-1.445v-5.594c-0.005-0.609-0.145-1.06-0.418-1.352s-0.699-0.438-1.277-0.438c-0.469,0-0.88,0.125-1.234,0.375
		s-0.63,0.578-0.828,0.984v6.023h-1.445v-8.453H384.215z"/>
</g>
<g>
	<path fill="#A7A9AC" d="M206.74,724.514l3.25-9.383h1.641l-4.219,11.375h-1.328l-4.211-11.375h1.633L206.74,724.514z"/>
	<path fill="#A7A9AC" d="M212.186,722.201c0-0.828,0.163-1.573,0.488-2.234s0.778-1.172,1.359-1.531s1.243-0.539,1.988-0.539
		c1.151,0,2.082,0.398,2.793,1.195s1.066,1.856,1.066,3.18v0.102c0,0.823-0.157,1.562-0.473,2.215s-0.766,1.163-1.352,1.527
		s-1.259,0.547-2.02,0.547c-1.146,0-2.074-0.398-2.785-1.195s-1.066-1.852-1.066-3.164V722.201z M213.639,722.373
		c0,0.938,0.218,1.69,0.652,2.258s1.017,0.852,1.746,0.852c0.734,0,1.317-0.288,1.75-0.863s0.648-1.382,0.648-2.418
		c0-0.927-0.22-1.679-0.66-2.254s-1.024-0.863-1.754-0.863c-0.714,0-1.289,0.284-1.727,0.852S213.639,721.315,213.639,722.373z"/>
	<path fill="#A7A9AC" d="M223.654,716.006v2.047h1.578v1.117h-1.578v5.249c0,0.339,0.07,0.593,0.211,0.763
		c0.141,0.169,0.38,0.254,0.719,0.254c0.167,0,0.396-0.031,0.688-0.094v1.165c-0.38,0.104-0.75,0.155-1.109,0.155
		c-0.646,0-1.133-0.195-1.461-0.586s-0.492-0.945-0.492-1.664v-5.242h-1.539v-1.117h1.539v-2.047H223.654z"/>
	<path fill="#A7A9AC" d="M226.928,715.811c0-0.234,0.071-0.433,0.215-0.594s0.355-0.242,0.637-0.242s0.495,0.081,0.641,0.242
		s0.219,0.359,0.219,0.594s-0.073,0.43-0.219,0.586s-0.359,0.234-0.641,0.234s-0.493-0.078-0.637-0.234
		S226.928,716.045,226.928,715.811z M228.49,726.506h-1.445v-8.453h1.445V726.506z"/>
	<path fill="#A7A9AC" d="M232.17,718.053l0.047,1.062c0.646-0.812,1.489-1.219,2.531-1.219c1.786,0,2.688,1.008,2.703,3.023v5.586
		h-1.445v-5.594c-0.005-0.609-0.145-1.06-0.418-1.352s-0.699-0.438-1.277-0.438c-0.469,0-0.88,0.125-1.234,0.375
		s-0.63,0.578-0.828,0.984v6.023h-1.445v-8.453H232.17z"/>
	<path fill="#A7A9AC" d="M239.287,722.209c0-1.317,0.305-2.366,0.914-3.145s1.417-1.168,2.422-1.168
		c1.031,0,1.836,0.364,2.414,1.094l0.07-0.938h1.32v8.25c0,1.094-0.324,1.956-0.973,2.586s-1.52,0.945-2.613,0.945
		c-0.609,0-1.206-0.13-1.789-0.391s-1.028-0.617-1.336-1.07l0.75-0.867c0.62,0.766,1.378,1.148,2.273,1.148
		c0.703,0,1.251-0.198,1.645-0.594s0.59-0.953,0.59-1.672v-0.727c-0.578,0.667-1.367,1-2.367,1c-0.989,0-1.79-0.398-2.402-1.195
		S239.287,723.584,239.287,722.209z M240.74,722.373c0,0.953,0.195,1.702,0.586,2.246s0.938,0.816,1.641,0.816
		c0.911,0,1.581-0.414,2.008-1.242v-3.859c-0.442-0.808-1.106-1.211-1.992-1.211c-0.703,0-1.253,0.273-1.648,0.82
		S240.74,721.3,240.74,722.373z"/>
	<path fill="#A7A9AC" d="M206.834,738.55c-0.219-0.036-0.456-0.055-0.711-0.055c-0.948,0-1.591,0.403-1.93,1.211v6h-1.445v-8.453
		h1.406l0.023,0.977c0.474-0.755,1.146-1.133,2.016-1.133c0.281,0,0.495,0.036,0.641,0.109V738.55z"/>
	<path fill="#A7A9AC" d="M208.17,735.011c0-0.234,0.071-0.433,0.215-0.594s0.355-0.242,0.637-0.242s0.495,0.081,0.641,0.242
		s0.219,0.359,0.219,0.594s-0.073,0.43-0.219,0.586s-0.359,0.234-0.641,0.234s-0.493-0.078-0.637-0.234
		S208.17,735.245,208.17,735.011z M209.732,745.706h-1.445v-8.453h1.445V745.706z"/>
	<path fill="#A7A9AC" d="M211.701,741.409c0-1.317,0.305-2.366,0.914-3.145s1.417-1.168,2.422-1.168
		c1.031,0,1.836,0.364,2.414,1.094l0.07-0.938h1.32v8.25c0,1.094-0.324,1.956-0.973,2.586s-1.52,0.945-2.613,0.945
		c-0.609,0-1.206-0.13-1.789-0.391s-1.028-0.617-1.336-1.07l0.75-0.867c0.62,0.766,1.378,1.148,2.273,1.148
		c0.703,0,1.251-0.198,1.645-0.594s0.59-0.953,0.59-1.672v-0.727c-0.578,0.667-1.367,1-2.367,1c-0.989,0-1.79-0.398-2.402-1.195
		S211.701,742.784,211.701,741.409z M213.154,741.573c0,0.953,0.195,1.702,0.586,2.246s0.938,0.816,1.641,0.816
		c0.911,0,1.581-0.414,2.008-1.242v-3.859c-0.442-0.808-1.106-1.211-1.992-1.211c-0.703,0-1.253,0.273-1.648,0.82
		S213.154,740.5,213.154,741.573z"/>
	<path fill="#A7A9AC" d="M222.467,738.276c0.641-0.786,1.474-1.18,2.5-1.18c1.786,0,2.688,1.008,2.703,3.023v5.586h-1.445v-5.594
		c-0.005-0.609-0.145-1.06-0.418-1.352s-0.699-0.438-1.277-0.438c-0.469,0-0.88,0.125-1.234,0.375s-0.63,0.578-0.828,0.984v6.023
		h-1.445v-12h1.445V738.276z"/>
	<path fill="#A7A9AC" d="M231.795,735.206v2.047h1.578v1.117h-1.578v5.249c0,0.339,0.07,0.593,0.211,0.763
		c0.141,0.169,0.38,0.254,0.719,0.254c0.167,0,0.396-0.031,0.688-0.094v1.165c-0.38,0.104-0.75,0.155-1.109,0.155
		c-0.646,0-1.133-0.195-1.461-0.586s-0.492-0.945-0.492-1.664v-5.242h-1.539v-1.117h1.539v-2.047H231.795z"/>
	<path fill="#A7A9AC" d="M239.982,743.464c0-0.391-0.147-0.694-0.441-0.91s-0.808-0.402-1.539-0.559s-1.312-0.344-1.742-0.562
		s-0.747-0.479-0.953-0.781s-0.309-0.661-0.309-1.078c0-0.692,0.293-1.278,0.879-1.758s1.335-0.719,2.246-0.719
		c0.958,0,1.735,0.247,2.332,0.742s0.895,1.128,0.895,1.898h-1.453c0-0.396-0.168-0.737-0.504-1.023s-0.759-0.43-1.27-0.43
		c-0.526,0-0.938,0.114-1.234,0.344s-0.445,0.528-0.445,0.898c0,0.349,0.138,0.612,0.414,0.789s0.774,0.347,1.496,0.508
		s1.306,0.354,1.754,0.578s0.78,0.493,0.996,0.809s0.324,0.699,0.324,1.152c0,0.755-0.302,1.36-0.906,1.816
		s-1.388,0.684-2.352,0.684c-0.677,0-1.276-0.12-1.797-0.359s-0.929-0.574-1.223-1.004s-0.441-0.895-0.441-1.395h1.445
		c0.026,0.484,0.22,0.868,0.582,1.152s0.84,0.426,1.434,0.426c0.547,0,0.985-0.11,1.316-0.332S239.982,743.834,239.982,743.464z"/>
</g>
<g>
	<path fill="#A7A9AC" d="M106.281,732.279h5.391v1.227h-6.898v-11.375h1.508V732.279z"/>
	<path fill="#A7A9AC" d="M112.773,729.201c0-0.828,0.163-1.573,0.488-2.234s0.778-1.172,1.359-1.531s1.243-0.539,1.988-0.539
		c1.151,0,2.082,0.398,2.793,1.195s1.066,1.856,1.066,3.18v0.102c0,0.823-0.157,1.562-0.473,2.215s-0.766,1.163-1.352,1.527
		s-1.259,0.547-2.02,0.547c-1.146,0-2.074-0.398-2.785-1.195s-1.066-1.852-1.066-3.164V729.201z M114.227,729.373
		c0,0.938,0.218,1.69,0.652,2.258s1.017,0.852,1.746,0.852c0.734,0,1.317-0.288,1.75-0.863s0.648-1.382,0.648-2.418
		c0-0.927-0.22-1.679-0.66-2.254s-1.024-0.863-1.754-0.863c-0.714,0-1.289,0.284-1.727,0.852S114.227,728.315,114.227,729.373z"/>
	<path fill="#A7A9AC" d="M127.203,731.264c0-0.391-0.147-0.694-0.441-0.91s-0.808-0.402-1.539-0.559s-1.312-0.344-1.742-0.562
		s-0.747-0.479-0.953-0.781s-0.309-0.661-0.309-1.078c0-0.692,0.293-1.278,0.879-1.758s1.335-0.719,2.246-0.719
		c0.958,0,1.735,0.247,2.332,0.742s0.895,1.128,0.895,1.898h-1.453c0-0.396-0.168-0.737-0.504-1.023s-0.759-0.43-1.27-0.43
		c-0.526,0-0.938,0.114-1.234,0.344s-0.445,0.528-0.445,0.898c0,0.349,0.138,0.612,0.414,0.789s0.774,0.347,1.496,0.508
		s1.306,0.354,1.754,0.578s0.78,0.493,0.996,0.809s0.324,0.699,0.324,1.152c0,0.755-0.302,1.36-0.906,1.816
		s-1.388,0.684-2.352,0.684c-0.677,0-1.276-0.12-1.797-0.359s-0.929-0.574-1.223-1.004s-0.441-0.895-0.441-1.395h1.445
		c0.026,0.484,0.22,0.868,0.582,1.152s0.84,0.426,1.434,0.426c0.547,0,0.985-0.11,1.316-0.332S127.203,731.634,127.203,731.264z"/>
	<path fill="#A7A9AC" d="M135.453,731.264c0-0.391-0.147-0.694-0.441-0.91s-0.808-0.402-1.539-0.559s-1.312-0.344-1.742-0.562
		s-0.747-0.479-0.953-0.781s-0.309-0.661-0.309-1.078c0-0.692,0.293-1.278,0.879-1.758s1.335-0.719,2.246-0.719
		c0.958,0,1.735,0.247,2.332,0.742s0.895,1.128,0.895,1.898h-1.453c0-0.396-0.168-0.737-0.504-1.023s-0.759-0.43-1.27-0.43
		c-0.526,0-0.938,0.114-1.234,0.344s-0.445,0.528-0.445,0.898c0,0.349,0.138,0.612,0.414,0.789s0.774,0.347,1.496,0.508
		s1.306,0.354,1.754,0.578s0.78,0.493,0.996,0.809s0.324,0.699,0.324,1.152c0,0.755-0.302,1.36-0.906,1.816
		s-1.388,0.684-2.352,0.684c-0.677,0-1.276-0.12-1.797-0.359s-0.929-0.574-1.223-1.004s-0.441-0.895-0.441-1.395h1.445
		c0.026,0.484,0.22,0.868,0.582,1.152s0.84,0.426,1.434,0.426c0.547,0,0.985-0.11,1.316-0.332S135.453,731.634,135.453,731.264z"/>
	<path fill="#A7A9AC" d="M142.359,729.201c0-0.828,0.163-1.573,0.488-2.234s0.778-1.172,1.359-1.531s1.243-0.539,1.988-0.539
		c1.151,0,2.082,0.398,2.793,1.195s1.066,1.856,1.066,3.18v0.102c0,0.823-0.157,1.562-0.473,2.215s-0.766,1.163-1.352,1.527
		s-1.259,0.547-2.02,0.547c-1.146,0-2.074-0.398-2.785-1.195s-1.066-1.852-1.066-3.164V729.201z M143.812,729.373
		c0,0.938,0.218,1.69,0.652,2.258s1.017,0.852,1.746,0.852c0.734,0,1.317-0.288,1.75-0.863s0.648-1.382,0.648-2.418
		c0-0.927-0.22-1.679-0.66-2.254s-1.024-0.863-1.754-0.863c-0.714,0-1.289,0.284-1.727,0.852S143.812,728.315,143.812,729.373z"/>
	<path fill="#A7A9AC" d="M152.578,733.506v-7.336h-1.336v-1.117h1.336v-0.867c0-0.906,0.242-1.606,0.727-2.102
		s1.169-0.742,2.055-0.742c0.333,0,0.664,0.044,0.992,0.132l-0.078,1.165c-0.245-0.047-0.505-0.07-0.781-0.07
		c-0.469,0-0.831,0.137-1.086,0.411s-0.383,0.668-0.383,1.18v0.894h1.805v1.117h-1.805v7.336H152.578z"/>
	<path fill="#A7A9AC" d="M111.688,748.573c0,1.286-0.294,2.323-0.883,3.109s-1.386,1.18-2.391,1.18
		c-1.026,0-1.833-0.325-2.422-0.977v4.07h-1.445v-11.703h1.32l0.07,0.938c0.589-0.729,1.406-1.094,2.453-1.094
		c1.016,0,1.819,0.383,2.41,1.148s0.887,1.831,0.887,3.195V748.573z M110.242,748.409c0-0.953-0.203-1.706-0.609-2.258
		s-0.964-0.828-1.672-0.828c-0.875,0-1.531,0.388-1.969,1.164v4.039c0.433,0.771,1.094,1.156,1.984,1.156
		c0.692,0,1.243-0.274,1.652-0.824S110.242,749.492,110.242,748.409z"/>
	<path fill="#A7A9AC" d="M118.742,751.87c-0.562,0.661-1.388,0.992-2.477,0.992c-0.901,0-1.587-0.262-2.059-0.785
		s-0.71-1.298-0.715-2.324v-5.5h1.445v5.461c0,1.281,0.521,1.922,1.562,1.922c1.104,0,1.839-0.411,2.203-1.234v-6.148h1.445v8.453
		h-1.375L118.742,751.87z"/>
	<path fill="#A7A9AC" d="M129.5,748.573c0,1.292-0.297,2.329-0.891,3.113s-1.391,1.176-2.391,1.176
		c-1.067,0-1.894-0.378-2.477-1.133l-0.07,0.977h-1.328v-12h1.445v4.477c0.583-0.724,1.388-1.086,2.414-1.086
		s1.832,0.388,2.418,1.164s0.879,1.839,0.879,3.188V748.573z M128.055,748.409c0-0.984-0.19-1.745-0.57-2.281
		s-0.927-0.805-1.641-0.805c-0.953,0-1.638,0.442-2.055,1.328v3.656c0.442,0.886,1.133,1.328,2.07,1.328
		c0.692,0,1.231-0.269,1.617-0.805S128.055,749.487,128.055,748.409z"/>
	<path fill="#A7A9AC" d="M132.891,752.706h-1.445v-12h1.445V752.706z"/>
	<path fill="#A7A9AC" d="M135.211,742.011c0-0.234,0.071-0.433,0.215-0.594s0.355-0.242,0.637-0.242s0.495,0.081,0.641,0.242
		s0.219,0.359,0.219,0.594s-0.073,0.43-0.219,0.586s-0.359,0.234-0.641,0.234s-0.493-0.078-0.637-0.234
		S135.211,742.245,135.211,742.011z M136.773,752.706h-1.445v-8.453h1.445V752.706z"/>
	<path fill="#A7A9AC" d="M142.477,751.683c0.516,0,0.966-0.156,1.352-0.469s0.599-0.703,0.641-1.172h1.367
		c-0.026,0.484-0.192,0.945-0.5,1.383s-0.718,0.786-1.23,1.047s-1.056,0.391-1.629,0.391c-1.151,0-2.066-0.384-2.746-1.152
		s-1.02-1.819-1.02-3.152v-0.242c0-0.823,0.151-1.555,0.453-2.195s0.735-1.138,1.301-1.492s1.233-0.531,2.004-0.531
		c0.948,0,1.735,0.284,2.363,0.852s0.962,1.305,1.004,2.211h-1.367c-0.042-0.547-0.249-0.996-0.621-1.348s-0.832-0.527-1.379-0.527
		c-0.734,0-1.304,0.265-1.707,0.793s-0.605,1.293-0.605,2.293v0.273c0,0.974,0.2,1.724,0.602,2.25S141.731,751.683,142.477,751.683z
		"/>
	<path fill="#A7A9AC" d="M111.703,767.773c0,1.292-0.297,2.329-0.891,3.113s-1.391,1.176-2.391,1.176
		c-1.067,0-1.894-0.378-2.477-1.133l-0.07,0.977h-1.328v-12h1.445v4.477c0.583-0.724,1.388-1.086,2.414-1.086
		s1.832,0.388,2.418,1.164s0.879,1.839,0.879,3.188V767.773z M110.258,767.609c0-0.984-0.19-1.745-0.57-2.281
		s-0.927-0.805-1.641-0.805c-0.953,0-1.638,0.442-2.055,1.328v3.656c0.442,0.886,1.133,1.328,2.07,1.328
		c0.692,0,1.231-0.269,1.617-0.805S110.258,768.688,110.258,767.609z"/>
	<path fill="#A7A9AC" d="M117.031,772.062c-1.146,0-2.078-0.376-2.797-1.129s-1.078-1.759-1.078-3.02v-0.266
		c0-0.839,0.16-1.587,0.48-2.246s0.769-1.175,1.344-1.547s1.199-0.559,1.871-0.559c1.099,0,1.953,0.362,2.562,1.086
		s0.914,1.761,0.914,3.109v0.602h-5.727c0.021,0.833,0.265,1.507,0.73,2.02s1.059,0.77,1.777,0.77c0.511,0,0.942-0.104,1.297-0.312
		s0.664-0.484,0.93-0.828l0.883,0.688C119.511,771.519,118.448,772.062,117.031,772.062z M116.852,764.484
		c-0.583,0-1.073,0.212-1.469,0.637s-0.641,1.02-0.734,1.785h4.234v-0.109c-0.042-0.734-0.239-1.304-0.594-1.707
		S117.456,764.484,116.852,764.484z"/>
	<path fill="#A7A9AC" d="M123.367,763.453l0.047,1.062c0.646-0.812,1.489-1.219,2.531-1.219c1.786,0,2.688,1.008,2.703,3.023v5.586
		h-1.445v-5.594c-0.005-0.609-0.145-1.06-0.418-1.352s-0.699-0.438-1.277-0.438c-0.469,0-0.88,0.125-1.234,0.375
		s-0.63,0.578-0.828,0.984v6.023H122v-8.453H123.367z"/>
	<path fill="#A7A9AC" d="M134.336,772.062c-1.146,0-2.078-0.376-2.797-1.129s-1.078-1.759-1.078-3.02v-0.266
		c0-0.839,0.16-1.587,0.48-2.246s0.769-1.175,1.344-1.547s1.199-0.559,1.871-0.559c1.099,0,1.953,0.362,2.562,1.086
		s0.914,1.761,0.914,3.109v0.602h-5.727c0.021,0.833,0.265,1.507,0.73,2.02s1.059,0.77,1.777,0.77c0.511,0,0.942-0.104,1.297-0.312
		s0.664-0.484,0.93-0.828l0.883,0.688C136.815,771.519,135.753,772.062,134.336,772.062z M134.156,764.484
		c-0.583,0-1.073,0.212-1.469,0.637s-0.641,1.02-0.734,1.785h4.234v-0.109c-0.042-0.734-0.239-1.304-0.594-1.707
		S134.761,764.484,134.156,764.484z"/>
	<path fill="#A7A9AC" d="M140.016,771.906v-7.336h-1.336v-1.117h1.336v-0.867c0-0.906,0.242-1.606,0.727-2.102
		s1.169-0.742,2.055-0.742c0.333,0,0.664,0.044,0.992,0.132l-0.078,1.165c-0.245-0.047-0.505-0.07-0.781-0.07
		c-0.469,0-0.831,0.137-1.086,0.411s-0.383,0.668-0.383,1.18v0.894h1.805v1.117h-1.805v7.336H140.016z"/>
	<path fill="#A7A9AC" d="M144.867,761.211c0-0.234,0.071-0.433,0.215-0.594s0.355-0.242,0.637-0.242s0.495,0.081,0.641,0.242
		s0.219,0.359,0.219,0.594s-0.073,0.43-0.219,0.586s-0.359,0.234-0.641,0.234s-0.493-0.078-0.637-0.234
		S144.867,761.445,144.867,761.211z M146.43,771.906h-1.445v-8.453h1.445V771.906z"/>
	<path fill="#A7A9AC" d="M150.703,761.406v2.047h1.578v1.117h-1.578v5.249c0,0.339,0.07,0.593,0.211,0.763
		c0.141,0.169,0.38,0.254,0.719,0.254c0.167,0,0.396-0.031,0.688-0.094v1.165c-0.38,0.104-0.75,0.155-1.109,0.155
		c-0.646,0-1.133-0.195-1.461-0.586s-0.492-0.945-0.492-1.664v-5.242h-1.539v-1.117h1.539v-2.047H150.703z"/>
	<path fill="#A7A9AC" d="M158.891,769.664c0-0.391-0.147-0.694-0.441-0.91s-0.808-0.402-1.539-0.559s-1.312-0.344-1.742-0.562
		s-0.747-0.479-0.953-0.781s-0.309-0.661-0.309-1.078c0-0.692,0.293-1.278,0.879-1.758s1.335-0.719,2.246-0.719
		c0.958,0,1.735,0.247,2.332,0.742s0.895,1.128,0.895,1.898h-1.453c0-0.396-0.168-0.737-0.504-1.023s-0.759-0.43-1.27-0.43
		c-0.526,0-0.938,0.114-1.234,0.344s-0.445,0.528-0.445,0.898c0,0.349,0.138,0.612,0.414,0.789s0.774,0.347,1.496,0.508
		s1.306,0.354,1.754,0.578s0.78,0.493,0.996,0.809s0.324,0.699,0.324,1.152c0,0.755-0.302,1.36-0.906,1.816
		s-1.388,0.684-2.352,0.684c-0.677,0-1.276-0.12-1.797-0.359s-0.929-0.574-1.223-1.004s-0.441-0.895-0.441-1.395h1.445
		c0.026,0.484,0.22,0.868,0.582,1.152s0.84,0.426,1.434,0.426c0.547,0,0.985-0.11,1.316-0.332S158.891,770.034,158.891,769.664z"/>
</g>
<path opacity="0.2" fill="#BE202E" d="M505.582,458.432c0,4.363-33.154,72.401-38.758,77.056l-282.742-181.97L505.582,458.432z"/>
<g>
	<path fill="#BE202E" stroke="#FFFFFF" stroke-width="2" stroke-miterlimit="10" d="M164.507,683.968c2.57-2.57,6.734-2.57,9.307,0
		c2.57,2.572,2.57,6.738,0.004,9.308c-2.574,2.573-6.74,2.573-9.315,0C161.933,690.703,161.937,686.538,164.507,683.968z"/>
	<path fill="#BE202E" stroke="#FFFFFF" stroke-miterlimit="10" d="M69.201,669.088c2.57-2.57,6.734-2.57,9.307,0
		c2.57,2.572,2.57,6.738,0.004,9.308c-2.574,2.573-6.74,2.573-9.314,0C66.626,675.823,66.63,671.658,69.201,669.088z"/>
	<path fill="#BE202E" stroke="#FFFFFF" stroke-width="2" stroke-miterlimit="10" d="M253.431,675.908
		c2.57-2.571,6.736-2.571,9.309,0c2.572,2.574,2.57,6.737,0.002,9.308c-2.574,2.572-6.74,2.572-9.314,0
		C250.857,682.642,250.861,678.479,253.431,675.908z"/>
	<path fill="#BE202E" stroke="#FFFFFF" stroke-width="2" stroke-miterlimit="10" d="M338.087,645.294
		c2.572-2.572,6.736-2.572,9.309,0c2.572,2.572,2.57,6.737,0.002,9.309c-2.57,2.572-6.738,2.572-9.311,0
		C335.513,652.028,335.521,647.863,338.087,645.294z"/>
	<path fill="#BE202E" stroke="#FFFFFF" stroke-width="2" stroke-miterlimit="10" d="M406.634,596.788
		c2.57-2.572,6.734-2.572,9.307,0c2.572,2.572,2.57,6.737,0.002,9.307c-2.572,2.572-6.738,2.572-9.312,0
		C404.058,603.524,404.068,599.357,406.634,596.788z"/>
	<path fill="#BE202E" stroke="#FFFFFF" stroke-width="2" stroke-miterlimit="10" d="M463.123,530.833
		c2.568-2.572,6.734-2.572,9.305,0c2.572,2.572,2.572,6.737,0.004,9.307c-2.572,2.574-6.74,2.574-9.312,0
		C460.548,537.567,460.552,533.402,463.123,530.833z"/>
	<path fill="#BE202E" stroke="#FFFFFF" stroke-width="2" stroke-miterlimit="10" d="M502.464,452.769
		c2.568-2.572,6.734-2.572,9.305,0c2.572,2.572,2.572,6.737,0.004,9.307c-2.572,2.574-6.74,2.574-9.312,0
		C499.89,459.504,499.894,455.339,502.464,452.769z"/>
</g>
</svg>
