<?xml version="1.0" encoding="utf-8"?>
<!-- Generator: Adobe Illustrator 19.1.0, SVG Export Plug-In . SVG Version: 6.00 Build 0)  -->
<svg version="1.1" id="Layer_1" xmlns="http://www.w3.org/2000/svg" xmlns:xlink="http://www.w3.org/1999/xlink" x="0px" y="0px"
	 viewBox="0 0 556.472 481.872" enable-background="new 0 0 556.472 481.872" xml:space="preserve">
<path opacity="0.2" fill="#BE1E2D" d="M478.511,296.329c-35.599,109.465-153.802,168.069-263.263,132.474l65.982-195.674
	L478.511,296.329z"/>
<path fill="none" stroke="#E7E7E7" stroke-width="2" stroke-miterlimit="10" d="M478.011,297.397
	c35.379-108.789-20.58-222.658-129.373-258.039"/>
<g>
	<path fill="none" stroke="#E7E7E7" stroke-width="2" stroke-miterlimit="10" d="M82.871,167.881
		C47.492,276.668,106.997,393.537,215.79,428.92"/>
</g>
<path fill="none" stroke="#E7E7E7" stroke-width="2" stroke-miterlimit="10" d="M348.039,39.02
	C239.247,3.643,118.251,59.088,82.871,167.881"/>
<path fill="none" stroke="#BE202E" stroke-width="3" stroke-miterlimit="10" d="M216.808,429.838
	c108.789,35.375,225.66-24.133,261.041-132.922"/>
<text transform="matrix(1 0 0 1 167.4008 456)" font-family="'Roboto-Regular'" font-size="13px">POVERTY</text>
<g>
	<text transform="matrix(1 0 0 1 493.0239 305.5078)" font-family="'Roboto-Regular'" font-size="13px">REENTRY</text>
</g>
<g>
	<text transform="matrix(1 0 0 1 23.2846 171.3896)" fill="#A7A9AC" font-family="'Roboto-Regular'" font-size="13px">ARREST</text>
</g>
<text transform="matrix(1 0 0 1 357.6577 25.8291)" fill="#A7A9AC" font-family="'Roboto-Regular'" font-size="13px">PLEA</text>
<path fill="#BE202E" stroke="#FFFFFF" stroke-miterlimit="10" d="M210.918,424.471c2.393-2.393,6.268-2.393,8.662,0
	c2.395,2.395,2.391,6.27,0,8.662c-2.395,2.393-6.27,2.396-8.664,0.002C208.522,430.738,208.526,426.861,210.918,424.471z"/>
<g>
	
		<line opacity="0.65" fill="none" stroke="#FFFFFF" stroke-width="0.5" stroke-miterlimit="10" x1="281.231" y1="233.129" x2="454.365" y2="346.13"/>
	
		<line opacity="0.65" fill="none" stroke="#FFFFFF" stroke-width="0.5" stroke-miterlimit="10" x1="281.231" y1="233.129" x2="420.795" y2="385.596"/>
	
		<line opacity="0.65" fill="none" stroke="#FFFFFF" stroke-width="0.5" stroke-miterlimit="10" x1="281.231" y1="233.129" x2="379.784" y2="414.537"/>
	
		<line opacity="0.65" fill="none" stroke="#FFFFFF" stroke-width="0.5" stroke-miterlimit="10" x1="281.231" y1="233.129" x2="329.102" y2="433.856"/>
	
		<line opacity="0.65" fill="none" stroke="#FFFFFF" stroke-width="0.5" stroke-miterlimit="10" x1="281.231" y1="233.129" x2="273.294" y2="439.203"/>
</g>
<line fill="none" stroke="#E7E7E7" stroke-width="2" stroke-miterlimit="10" x1="479.101" y1="295.514" x2="279.982" y2="231.729"/>
<line fill="none" stroke="#E7E7E7" stroke-width="2" stroke-miterlimit="10" x1="281.231" y1="232.16" x2="82.112" y2="168.375"/>
<line fill="none" stroke="#E7E7E7" stroke-width="2" stroke-miterlimit="10" x1="281.231" y1="232.16" x2="348.354" y2="38.106"/>
<path fill="#BE202E" stroke="#FFFFFF" stroke-miterlimit="10" d="M474.772,291.181c2.393-2.393,6.268-2.393,8.662,0
	c2.395,2.395,2.391,6.27,0,8.662c-2.395,2.393-6.27,2.396-8.664,0.002C472.375,297.448,472.379,293.571,474.772,291.181z"/>
<path fill="#BE202E" stroke="#FFFFFF" stroke-miterlimit="10" d="M270.481,437.038c1.553-1.555,4.072-1.555,5.627,0
	c1.555,1.555,1.555,4.074,0.002,5.627c-1.557,1.557-4.076,1.557-5.631,0C268.922,441.11,268.926,438.593,270.481,437.038z"/>
<path fill="#BE202E" stroke="#FFFFFF" stroke-miterlimit="10" d="M326.287,431.042c1.555-1.555,4.072-1.555,5.629,0
	c1.555,1.557,1.553,4.074,0.002,5.629c-1.557,1.555-4.076,1.555-5.631,0C324.73,435.114,324.734,432.597,326.287,431.042z"/>
<path fill="#BE202E" stroke="#FFFFFF" stroke-miterlimit="10" d="M376.971,411.724c1.553-1.557,4.072-1.557,5.627,0
	c1.557,1.555,1.555,4.074,0.002,5.627c-1.557,1.557-4.076,1.557-5.631,0C375.414,415.796,375.416,413.276,376.971,411.724z"/>
<circle fill="#BE202E" stroke="#FFFFFF" stroke-miterlimit="10" cx="420.795" cy="385.596" r="3.98"/>
<circle fill="#BE202E" stroke="#FFFFFF" stroke-miterlimit="10" cx="454.365" cy="346.13" r="3.98"/>
</svg>
