<?xml version="1.0" encoding="utf-8"?>
<!-- Generator: Adobe Illustrator 19.1.0, SVG Export Plug-In . SVG Version: 6.00 Build 0)  -->
<svg version="1.1" id="Layer_1" xmlns="http://www.w3.org/2000/svg" xmlns:xlink="http://www.w3.org/1999/xlink" x="0px" y="0px"
	 viewBox="0 0 556.472 481.872" enable-background="new 0 0 556.472 481.872" xml:space="preserve">
<path opacity="0.25" fill="#9E2062" d="M348.575,40.068c109.016,35.453,164.724,144.94,129.274,253.952l-195.573-62.252
	L348.575,40.068z"/>
<path fill="none" stroke="#9E2062" stroke-width="3" stroke-miterlimit="10" d="M478.011,297.397
	c35.379-108.789-20.58-222.658-129.373-258.039"/>
<g>
	<path fill="none" stroke="#E7E7E7" stroke-width="2" stroke-miterlimit="10" d="M82.871,167.881
		C47.492,276.668,107.89,394.43,216.683,429.812"/>
</g>
<path fill="none" stroke="#E7E7E7" stroke-width="2" stroke-miterlimit="10" d="M346.6,38.355
	C237.809,2.978,118.252,59.088,82.871,167.881"/>
<path fill="none" stroke="#E7E7E7" stroke-width="2" stroke-miterlimit="10" d="M216.683,429.812
	c108.789,35.375,225.785-24.107,261.166-132.897"/>
<g>
	<text transform="matrix(1 0 0 1 167.4009 456)" fill="#A7A9AC" font-family="'Roboto-Regular'" font-size="13px">POVERTY</text>
</g>
<g>
	<text transform="matrix(1 0 0 1 493.024 305.5078)" font-family="'Roboto-Regular'" font-size="13px">REENTRY</text>
</g>
<g>
	<text transform="matrix(1 0 0 1 23.2847 171.3896)" fill="#A7A9AC" font-family="'Roboto-Regular'" font-size="13px">ARREST</text>
</g>
<g>
	<text transform="matrix(1 0 0 1 357.6577 25.8291)" font-family="'Roboto-Regular'" font-size="13px">PLEA</text>
</g>
<line fill="none" stroke="#E7E7E7" stroke-width="2" stroke-miterlimit="10" x1="281.231" y1="232.16" x2="82.112" y2="168.375"/>
<g>
	
		<line opacity="0.65" fill="none" stroke="#FFFFFF" stroke-width="0.5" stroke-miterlimit="10" x1="396.739" y1="62.349" x2="282.566" y2="231.484"/>
	
		<line opacity="0.65" fill="none" stroke="#FFFFFF" stroke-width="0.5" stroke-miterlimit="10" x1="447.494" y1="108.687" x2="282.566" y2="231.484"/>
	
		<line opacity="0.65" fill="none" stroke="#FFFFFF" stroke-width="0.5" stroke-miterlimit="10" x1="479.021" y1="170.575" x2="282.566" y2="231.484"/>
	
		<line opacity="0.65" fill="none" stroke="#FFFFFF" stroke-width="0.5" stroke-miterlimit="10" x1="488.308" y1="236.67" x2="282.566" y2="231.484"/>
</g>
<path fill="#9E2062" stroke="#FFFFFF" stroke-miterlimit="10" d="M393.936,59.547c1.547-1.549,4.057-1.549,5.605,0
	c1.549,1.549,1.547,4.057,0.002,5.605c-1.549,1.549-4.061,1.549-5.607,0C392.385,63.602,392.387,61.094,393.936,59.547z"/>
<circle fill="#9E2062" stroke="#FFFFFF" stroke-miterlimit="10" cx="479.021" cy="170.576" r="3.964"/>
<path fill="#9E2062" stroke="#FFFFFF" stroke-miterlimit="10" d="M444.69,105.884c1.549-1.549,4.059-1.549,5.607,0
	c1.549,1.551,1.545,4.059,0,5.606c-1.549,1.549-4.059,1.549-5.607,0C443.141,109.94,443.145,107.433,444.69,105.884z"/>
<circle fill="#9E2062" stroke="#FFFFFF" stroke-miterlimit="10" cx="488.485" cy="236.671" r="3.964"/>
<line fill="none" stroke="#E7E7E7" stroke-width="2" stroke-miterlimit="10" x1="479.101" y1="295.514" x2="279.982" y2="231.729"/>
<line fill="none" stroke="#E7E7E7" stroke-width="2" stroke-miterlimit="10" x1="281.231" y1="232.16" x2="348.576" y2="37.467"/>
<path fill="#9E2062" stroke="#FFFFFF" stroke-miterlimit="10" d="M474.772,291.181c2.393-2.393,6.268-2.393,8.662,0
	c2.395,2.395,2.391,6.27,0,8.662c-2.395,2.393-6.27,2.396-8.664,0.002C472.375,297.448,472.379,293.571,474.772,291.181z"/>
<path fill="#9E2062" stroke="#FFFFFF" stroke-miterlimit="10" d="M344.246,33.137c2.391-2.394,6.268-2.394,8.66,0
	c2.395,2.393,2.391,6.27,0,8.66c-2.393,2.394-6.27,2.396-8.664,0.004C341.849,39.402,341.851,35.527,344.246,33.137z"/>
</svg>
