<?xml version="1.0" encoding="utf-8"?>
<!-- Generator: Adobe Illustrator 17.1.0, SVG Export Plug-In . SVG Version: 6.00 Build 0)  -->
<!DOCTYPE svg PUBLIC "-//W3C//DTD SVG 1.1//EN" "http://www.w3.org/Graphics/SVG/1.1/DTD/svg11.dtd">
<svg version="1.1" id="Layer_1" xmlns="http://www.w3.org/2000/svg" xmlns:xlink="http://www.w3.org/1999/xlink" x="0px" y="0px"
	 viewBox="0 0 477.2 768" enable-background="new 0 0 477.2 768" xml:space="preserve">
<g>
	<g>
		<path fill="none" stroke="#6D6E71" stroke-width="4" stroke-miterlimit="10" d="M363.5,361c23.1-70.9-15.7-147.1-86.7-170.2"/>
		<line fill="none" stroke="#6D6E71" stroke-width="4" stroke-miterlimit="10" x1="364.1" y1="361.6" x2="235.7" y2="319.9"/>
		<path fill="none" stroke="#6D6E71" stroke-width="4" stroke-miterlimit="10" d="M193.3,447.2c70.9,23.1,147.1-15.7,170.2-86.7"/>
		<path fill="none" stroke="#414042" stroke-width="2" stroke-miterlimit="10" d="M235.1,319.3"/>
		<path fill="none" stroke="#6D6E71" stroke-width="4" stroke-miterlimit="10" d="M276.9,190.9c-70.9-23.1-147.1,15.7-170.2,86.7"/>
		<path fill="none" stroke="#6D6E71" stroke-width="4" stroke-miterlimit="10" d="M106.8,277.5c-23.1,70.9,15.7,147.1,86.7,170.2"/>
		<path fill="none" stroke="#414042" stroke-width="2" stroke-miterlimit="10" d="M235.1,319.3"/>
	</g>
	<line fill="none" stroke="#6D6E71" stroke-width="4" stroke-miterlimit="10" x1="239" y1="320.9" x2="106.4" y2="278.1"/>
	<line fill="none" stroke="#6D6E71" stroke-width="4" stroke-miterlimit="10" x1="236.5" y1="320.6" x2="279.6" y2="192.6"/>
	<line fill="none" stroke="#808285" stroke-width="0.5" stroke-miterlimit="10" x1="115.2" y1="256.7" x2="236.2" y2="319.7"/>
	<line fill="none" stroke="#808285" stroke-width="0.5" stroke-miterlimit="10" x1="236.2" y1="319.7" x2="126.2" y2="239.7"/>
	<line fill="none" stroke="#808285" stroke-width="0.5" stroke-miterlimit="10" x1="140.2" y1="223.7" x2="236.2" y2="319.7"/>
	<line fill="none" stroke="#808285" stroke-width="0.5" stroke-miterlimit="10" x1="158.2" y1="208.7" x2="237.2" y2="320.7"/>
	<line fill="none" stroke="#808285" stroke-width="0.5" stroke-miterlimit="10" x1="177.2" y1="197.7" x2="236.2" y2="319.7"/>
	<line fill="none" stroke="#808285" stroke-width="0.5" stroke-miterlimit="10" x1="251.2" y1="185.7" x2="236.2" y2="319.7"/>
	<line fill="none" stroke="#808285" stroke-width="0.5" stroke-miterlimit="10" x1="224.2" y1="184.7" x2="236.2" y2="319.7"/>
	<line fill="none" stroke="#808285" stroke-width="0.5" stroke-miterlimit="10" x1="200.2" y1="187.7" x2="236.2" y2="319.7"/>
	<line fill="none" stroke="#808285" stroke-width="0.5" stroke-miterlimit="10" x1="314.2" y1="210.7" x2="237.2" y2="319.7"/>
	<line fill="none" stroke="#808285" stroke-width="0.5" stroke-miterlimit="10" x1="346.2" y1="241.7" x2="237.2" y2="319.7"/>
	<line fill="none" stroke="#808285" stroke-width="0.5" stroke-miterlimit="10" x1="365.2" y1="281.7" x2="237.2" y2="318.7"/>
	<line fill="none" stroke="#808285" stroke-width="0.5" stroke-miterlimit="10" x1="370.2" y1="324.7" x2="237.2" y2="319.7"/>
	<line fill="none" stroke="#808285" stroke-width="0.5" stroke-miterlimit="10" x1="101.2" y1="317.7" x2="236.2" y2="319.7"/>
	<line fill="none" stroke="#808285" stroke-width="0.5" stroke-miterlimit="10" x1="350.2" y1="390.7" x2="236.2" y2="319.7"/>
	<line fill="none" stroke="#808285" stroke-width="0.5" stroke-miterlimit="10" x1="328.2" y1="414.7" x2="237.2" y2="319.7"/>
	<line fill="none" stroke="#808285" stroke-width="0.5" stroke-miterlimit="10" x1="303.2" y1="435.7" x2="236.2" y2="318.7"/>
	<line fill="none" stroke="#808285" stroke-width="0.5" stroke-miterlimit="10" x1="106.2" y1="358.7" x2="237.2" y2="318.7"/>
	<line fill="none" stroke="#808285" stroke-width="0.5" stroke-miterlimit="10" x1="155.2" y1="427.7" x2="236.2" y2="319.7"/>
	<line fill="none" stroke="#808285" stroke-width="0.5" stroke-miterlimit="10" x1="125.2" y1="395.7" x2="236.2" y2="319.7"/>
	<line fill="none" stroke="#808285" stroke-width="0.5" stroke-miterlimit="10" x1="268.2" y1="449.7" x2="236.2" y2="319.7"/>
	<line fill="none" stroke="#808285" stroke-width="0.5" stroke-miterlimit="10" x1="231.2" y1="452.7" x2="236.2" y2="319.7"/>
	<line fill="none" stroke="#808285" stroke-width="0.5" stroke-miterlimit="10" x1="193.2" y1="446.7" x2="236.2" y2="319.7"/>
	<g>
		<circle fill="#FFFFFF" cx="363.2" cy="360.7" r="4"/>
		<circle fill="#FFFFFF" cx="107.2" cy="277.7" r="4"/>
		<circle fill="#FFFFFF" cx="280.2" cy="191.7" r="4"/>
		<circle fill="#FFFFFF" cx="193.2" cy="447.7" r="4"/>
		<circle fill="#FFFFFF" cx="230.6" cy="453.3" r="2.6"/>
		<circle fill="#FFFFFF" cx="268.8" cy="449.3" r="2.6"/>
		<circle fill="#FFFFFF" cx="302.6" cy="435.3" r="2.6"/>
		<circle fill="#FFFFFF" cx="328.6" cy="415.3" r="2.6"/>
		<circle fill="#FFFFFF" cx="349.8" cy="390.2" r="2.6"/>
		<circle fill="#FFFFFF" cx="105.8" cy="359.3" r="2.6"/>
		<circle fill="#FFFFFF" cx="100.8" cy="318" r="2.6"/>
		<circle fill="#FFFFFF" cx="124.6" cy="396.2" r="2.6"/>
		<circle fill="#FFFFFF" cx="154.6" cy="427.3" r="2.6"/>
		<circle fill="#FFFFFF" cx="114.8" cy="256.2" r="2.6"/>
		<circle fill="#FFFFFF" cx="199.9" cy="188.3" r="2.6"/>
		<circle fill="#FFFFFF" cx="251.8" cy="185.2" r="2.6"/>
		<circle fill="#FFFFFF" cx="125.9" cy="239.2" r="2.6"/>
		<circle fill="#FFFFFF" cx="157.9" cy="208.2" r="2.6"/>
		<circle fill="#FFFFFF" cx="176.9" cy="197.2" r="2.6"/>
		<circle fill="#FFFFFF" cx="224.8" cy="184.3" r="2.6"/>
		<circle fill="#FFFFFF" cx="139.8" cy="223.3" r="2.6"/>
		<circle fill="#FFFFFF" cx="314.8" cy="211.3" r="2.6"/>
		<circle fill="#FFFFFF" cx="364.8" cy="282.3" r="2.6"/>
		<circle fill="#FFFFFF" cx="346.1" cy="242.3" r="2.6"/>
		<circle fill="#FFFFFF" cx="370.1" cy="325.2" r="2.6"/>
	</g>
</g>
</svg>
