<?xml version="1.0" encoding="utf-8"?>
<!-- Generator: Adobe Illustrator 17.1.0, SVG Export Plug-In . SVG Version: 6.00 Build 0)  -->
<!DOCTYPE svg PUBLIC "-//W3C//DTD SVG 1.1//EN" "http://www.w3.org/Graphics/SVG/1.1/DTD/svg11.dtd">
<svg version="1.1" id="Layer_1" xmlns="http://www.w3.org/2000/svg" xmlns:xlink="http://www.w3.org/1999/xlink" x="0px" y="0px"
	 viewBox="0 0 456 772.8" enable-background="new 0 0 456 772.8" xml:space="preserve">
<g>
	<g>
		<g>
			<path fill="none" stroke="#414042" stroke-width="2" stroke-miterlimit="10" d="M215.9,318.6"/>
			<path fill="none" stroke="#414042" stroke-width="2" stroke-miterlimit="10" d="M87.6,276.9c-23.1,70.9,15.7,147.1,86.7,170.2"/>
			<path fill="none" stroke="#414042" stroke-width="2" stroke-miterlimit="10" d="M215.9,318.6"/>
		</g>
		<line fill="none" stroke="#414042" stroke-width="2" stroke-miterlimit="10" x1="216" y1="319.2" x2="87.2" y2="277.5"/>
	</g>
	<text transform="matrix(1 0 0 1 145.896 481.1739)" fill="#58595B" font-family="'SourceSansPro-Regular'" font-size="18">poverty</text>
	<text transform="matrix(1 0 0 1 29.8965 281.1739)" fill="#58595B" font-family="'SourceSansPro-Regular'" font-size="18">arrest</text>
	<g>
		<path fill="none" stroke="#D1D3D4" stroke-miterlimit="10" d="M174.9,448"/>
		<path fill="none" stroke="#231F20" stroke-width="2" stroke-miterlimit="10" d="M174.2,447.3"/>
		<path fill="none" stroke="#D1D3D4" stroke-width="2" stroke-miterlimit="10" d="M216.1,319"/>
		<path fill="none" stroke="#231F20" stroke-width="2" stroke-miterlimit="10" d="M87.7,277.2"/>
		<path fill="none" stroke="#F05A28" stroke-width="8" stroke-miterlimit="10" d="M87.7,277.2c-23.1,70.9,15.7,147.1,86.7,170.2"/>
		<path fill="none" stroke="#D1D3D4" stroke-width="2" stroke-miterlimit="10" d="M216.1,319"/>
	</g>
	<path fill="none" stroke="#D1D3D4" stroke-miterlimit="10" d="M87.4,277.8"/>
	<path fill="none" stroke="#D1D3D4" stroke-miterlimit="10" d="M220,320.6"/>
	<circle fill="#FFFFFF" cx="173.9" cy="447.2" r="4"/>
	<circle fill="#FFFFFF" cx="87.9" cy="278.2" r="4"/>
	<circle opacity="0.65" fill="#FFFFFF" cx="87.3" cy="359.8" r="2.6"/>
	<circle opacity="0.85" fill="#FFFFFF" cx="80.5" cy="318.6" r="2.6"/>
	<circle opacity="0.45" fill="#FFFFFF" cx="105.5" cy="396.8" r="2.6"/>
	<circle opacity="0.25" fill="#FFFFFF" cx="135.5" cy="426.8" r="2.6"/>
</g>
</svg>
