<?xml version="1.0" encoding="utf-8"?>
<!-- Generator: Adobe Illustrator 17.1.0, SVG Export Plug-In . SVG Version: 6.00 Build 0)  -->
<!DOCTYPE svg PUBLIC "-//W3C//DTD SVG 1.1//EN" "http://www.w3.org/Graphics/SVG/1.1/DTD/svg11.dtd">
<svg version="1.1" id="Layer_1" xmlns="http://www.w3.org/2000/svg" xmlns:xlink="http://www.w3.org/1999/xlink" x="0px" y="0px"
	 viewBox="0 0 477.2 768" enable-background="new 0 0 477.2 768" xml:space="preserve">
<g>
	<g>
		<g>
			<path fill="none" stroke="#9E1E62" stroke-width="8" stroke-miterlimit="10" d="M360,355.2c23.1-70.9-13.4-145.2-84.3-168.2"/>
			<line fill="none" stroke="#414042" stroke-width="2" stroke-miterlimit="10" x1="360.6" y1="355.8" x2="232.2" y2="314"/>
			<path fill="none" stroke="#414042" stroke-width="2" stroke-miterlimit="10" d="M359.9,354.7"/>
			<path fill="none" stroke="#414042" stroke-width="2" stroke-miterlimit="10" d="M189.7,441.3"/>
			<path fill="none" stroke="#414042" stroke-width="2" stroke-miterlimit="10" d="M231.6,313.5"/>
			<path fill="none" stroke="#414042" stroke-width="2" stroke-miterlimit="10" d="M103.3,271.7C80.2,342.6,119,418.8,190,441.9"/>
			<path fill="none" stroke="#414042" stroke-width="2" stroke-miterlimit="10" d="M231.6,313.5"/>
		</g>
		<line fill="none" stroke="#414042" stroke-width="2" stroke-miterlimit="10" x1="235.5" y1="315.1" x2="102.9" y2="272.3"/>
		<line fill="none" stroke="#414042" stroke-width="2" stroke-miterlimit="10" x1="233" y1="314.8" x2="276.1" y2="186.8"/>
	</g>
	<text transform="matrix(1 0 0 1 374.6582 362)" fill="#58595B" font-family="'SourceSansPro-Regular'" font-size="18">release</text>
	<text transform="matrix(1 0 0 1 288.5801 178)" fill="#58595B" font-family="'SourceSansPro-Regular'" font-size="18">plea</text>
	<g>
		<path fill="none" stroke="#FFFFFF" stroke-width="2" stroke-miterlimit="10" d="M190.6,442.8"/>
		<path fill="none" stroke="#FFFFFF" stroke-width="2" stroke-miterlimit="10" d="M189.9,442.1"/>
		<path fill="none" stroke="#FFFFFF" stroke-width="2" stroke-miterlimit="10" d="M231.8,313.8"/>
		<path fill="none" stroke="#FFFFFF" stroke-width="2" stroke-miterlimit="10" d="M103.3,272"/>
		<path fill="none" stroke="#FFFFFF" stroke-width="2" stroke-miterlimit="10" d="M103.3,272c-23.1,70.9,15.7,147.1,86.7,170.2"/>
		<path fill="none" stroke="#FFFFFF" stroke-width="2" stroke-miterlimit="10" d="M231.8,313.8"/>
	</g>
	<path fill="none" stroke="#D1D3D4" stroke-miterlimit="10" d="M103,272.6"/>
	<path fill="none" stroke="#D1D3D4" stroke-miterlimit="10" d="M235.7,315.4"/>
	<path fill="none" stroke="#FFFFFF" stroke-width="2" stroke-miterlimit="10" d="M274.7,186.2c-70.9-23.1-147.9,14.8-171,85.8"/>
	<circle fill="#FFFFFF" cx="358.7" cy="357" r="4"/>
	<circle fill="#FFFFFF" cx="276.6" cy="187" r="4"/>
	<circle opacity="0.25" fill="#FFFFFF" cx="310.9" cy="204.6" r="2.6"/>
	<circle opacity="0.65" fill="#FFFFFF" cx="362.1" cy="275.4" r="2.6"/>
	<circle opacity="0.45" fill="#FFFFFF" cx="342.2" cy="235.6" r="2.6"/>
	<circle opacity="0.85" fill="#FFFFFF" cx="366.2" cy="318.4" r="2.6"/>
</g>
</svg>
