<?xml version="1.0" encoding="utf-8"?>
<!-- Generator: Adobe Illustrator 17.1.0, SVG Export Plug-In . SVG Version: 6.00 Build 0)  -->
<!DOCTYPE svg PUBLIC "-//W3C//DTD SVG 1.1//EN" "http://www.w3.org/Graphics/SVG/1.1/DTD/svg11.dtd">
<svg version="1.1" id="Layer_1" xmlns="http://www.w3.org/2000/svg" xmlns:xlink="http://www.w3.org/1999/xlink" x="0px" y="0px"
	 viewBox="0 0 477.2 768" enable-background="new 0 0 477.2 768" xml:space="preserve">
<g>
	<g>
		<g>
			<path fill="none" stroke="#414042" stroke-width="2" stroke-miterlimit="10" d="M234.1,309.5"/>
			<path fill="none" stroke="#414042" stroke-width="2" stroke-miterlimit="10" d="M105.8,267.7c-23.1,70.9,15.7,147.1,86.7,170.2"
				/>
			<path fill="none" stroke="#414042" stroke-width="2" stroke-miterlimit="10" d="M234.1,309.5"/>
		</g>
		<line fill="none" stroke="#414042" stroke-width="2" stroke-miterlimit="10" x1="235.2" y1="309.9" x2="105.4" y2="268.3"/>
		<line fill="none" stroke="#414042" stroke-width="2" stroke-miterlimit="10" x1="235.5" y1="310.8" x2="278.6" y2="182.8"/>
	</g>
	<text transform="matrix(1 0 0 1 48.0825 272.0064)" fill="#58595B" font-family="'SourceSansPro-Regular'" font-size="18">arrest</text>
	<text transform="matrix(1 0 0 1 291.0826 174.0064)" fill="#58595B" font-family="'SourceSansPro-Regular'" font-size="18">plea</text>
	<g>
		<path fill="none" stroke="#FFFFFF" stroke-width="2" stroke-miterlimit="10" d="M193.1,438.8"/>
		<path fill="none" stroke="#FFFFFF" stroke-width="2" stroke-miterlimit="10" d="M192.4,438.1"/>
		<path fill="none" stroke="#FFFFFF" stroke-width="2" stroke-miterlimit="10" d="M234.3,309.8"/>
		<path fill="none" stroke="#FFFFFF" stroke-width="2" stroke-miterlimit="10" d="M105.9,268"/>
		<path fill="none" stroke="#FFFFFF" stroke-width="2" stroke-miterlimit="10" d="M105.9,268c-23.1,70.9,15.7,147.1,86.7,170.2"/>
		<path fill="none" stroke="#FFFFFF" stroke-width="2" stroke-miterlimit="10" d="M234.3,309.8"/>
	</g>
	<path fill="none" stroke="#D1D3D4" stroke-miterlimit="10" d="M105.6,268.6"/>
	<path fill="none" stroke="#D1D3D4" stroke-miterlimit="10" d="M238.2,311.4"/>
	<path fill="none" stroke="#FBAF3F" stroke-width="8" stroke-miterlimit="10" d="M277.2,182.3C206.2,159.2,130.1,198,107,268.9"/>
	<path fill="#FFFFFF" d="M103.3,266.2c1.6-1.6,4.1-1.6,5.6,0c1.6,1.6,1.6,4.1,0,5.6c-1.6,1.6-4.1,1.6-5.6,0
		C101.7,270.3,101.7,267.7,103.3,266.2z"/>
	<path fill="#FFFFFF" d="M276.3,180.2c1.6-1.6,4.1-1.6,5.6,0c1.6,1.6,1.6,4.1,0,5.6c-1.6,1.6-4.1,1.6-5.6,0
		C274.7,184.3,274.7,181.7,276.3,180.2z"/>
	<circle opacity="0.25" fill="#FFFFFF" cx="116.5" cy="247.4" r="2.6"/>
	<circle opacity="0.75" fill="#FFFFFF" cx="201.7" cy="179.6" r="2.6"/>
	<circle opacity="0.95" fill="#FFFFFF" cx="253.5" cy="176.4" r="2.6"/>
	<circle opacity="0.35" fill="#FFFFFF" cx="127.7" cy="230.4" r="2.6"/>
	<circle opacity="0.55" fill="#FFFFFF" cx="159.7" cy="199.4" r="2.6"/>
	<circle opacity="0.65" fill="#FFFFFF" cx="178.7" cy="188.4" r="2.6"/>
	<circle opacity="0.85" fill="#FFFFFF" cx="226.5" cy="175.6" r="2.6"/>
	<circle opacity="0.45" fill="#FFFFFF" cx="141.5" cy="214.6" r="2.6"/>
</g>
</svg>
