<?xml version="1.0" encoding="utf-8"?>
<!-- Generator: Adobe Illustrator 17.1.0, SVG Export Plug-In . SVG Version: 6.00 Build 0)  -->
<!DOCTYPE svg PUBLIC "-//W3C//DTD SVG 1.1//EN" "http://www.w3.org/Graphics/SVG/1.1/DTD/svg11.dtd">
<svg version="1.1" id="Layer_1" xmlns="http://www.w3.org/2000/svg" xmlns:xlink="http://www.w3.org/1999/xlink" x="0px" y="0px"
	 viewBox="0 0 477.2 768" enable-background="new 0 0 477.2 768" xml:space="preserve">
<g>
	<g>
		<g>
			<path fill="none" stroke="#FFFFFF" stroke-width="2" stroke-miterlimit="10" d="M362.5,351.2c23.1-70.9-13.4-145.2-84.3-168.2"/>
			<line fill="none" stroke="#414042" stroke-width="2" stroke-miterlimit="10" x1="363.1" y1="351.8" x2="234.7" y2="310"/>
			<path fill="none" stroke="#414042" stroke-width="2" stroke-miterlimit="10" d="M234.1,309.5"/>
			<path fill="none" stroke="#414042" stroke-width="2" stroke-miterlimit="10" d="M234.1,309.5"/>
		</g>
		<line fill="none" stroke="#414042" stroke-width="2" stroke-miterlimit="10" x1="238" y1="311.1" x2="105.3" y2="268.3"/>
		<line fill="none" stroke="#414042" stroke-width="2" stroke-miterlimit="10" x1="235.5" y1="310.8" x2="278.6" y2="182.8"/>
	</g>
	<text transform="matrix(1 0 0 1 377.1465 358.003)" fill="#58595B" font-family="'SourceSansPro-Regular'" font-size="18">release</text>
	<text transform="matrix(1 0 0 1 44.1465 271.003)" fill="#58595B" font-family="'SourceSansPro-Regular'" font-size="18">arrest</text>
	<text transform="matrix(1 0 0 1 181.1465 471.003)" fill="#58595B" font-family="'SourceSansPro-Regular'" font-size="18">poverty</text>
	<path fill="none" stroke="#FFFFFF" stroke-width="2" stroke-miterlimit="10" d="M193.1,438.8"/>
	<path fill="none" stroke="#FFFFFF" stroke-width="2" stroke-miterlimit="10" d="M192.4,438.1"/>
	<path fill="none" stroke="#FFFFFF" stroke-width="2" stroke-miterlimit="10" d="M234.3,309.8"/>
	<path fill="none" stroke="#FFFFFF" stroke-width="2" stroke-miterlimit="10" d="M105.8,268"/>
	<linearGradient id="SVGID_1_" gradientUnits="userSpaceOnUse" x1="95.0123" y1="357.687" x2="366.2178" y2="357.687">
		<stop  offset="0" style="stop-color:#F05A28"/>
		<stop  offset="1" style="stop-color:#BE1E2D"/>
	</linearGradient>
	<path fill="url(#SVGID_1_)" d="M358.6,349.5c-22.5,69.1-96.6,107.1-165.2,84.7l-0.6-0.2h-1c-67.6-22.4-104.5-96.1-82.2-164.7
		l-7.6-2.5c-11.5,35.4-8.8,73,7.6,106c16.5,33.1,45,57.6,80.2,69.1l0.2-0.7v0.9c0.1,0,0.9-0.1,1-0.1v0.1h0.4
		c13.9,4.5,28.1,6.6,42,6.6c58.7,0,113.5-37.6,132.7-96.7L358.6,349.5z"/>
	<path fill="none" stroke="#FFFFFF" stroke-width="2" stroke-miterlimit="10" d="M234.3,309.8"/>
	<path fill="none" stroke="#D1D3D4" stroke-miterlimit="10" d="M238.1,311.4"/>
	<path fill="none" stroke="#FFFFFF" stroke-width="2" stroke-miterlimit="10" d="M279.1,183c-70.9-23.1-149.9,14.1-173,85"/>
	<circle fill="#FFFFFF" cx="361.1" cy="353" r="4"/>
	<circle fill="#FFFFFF" cx="106.1" cy="268" r="4"/>
	<circle fill="#FFFFFF" cx="191.1" cy="438" r="4"/>
	<circle opacity="0.85" fill="#FFFFFF" cx="228.7" cy="443.6" r="2.6"/>
	<circle opacity="0.75" fill="#FFFFFF" cx="263.6" cy="440.4" r="2.6"/>
	<circle opacity="0.65" fill="#FFFFFF" cx="297.7" cy="427.6" r="2.6"/>
	<circle opacity="0.45" fill="#FFFFFF" cx="324.6" cy="409.4" r="2.6"/>
	<circle opacity="0.25" fill="#FFFFFF" cx="345.7" cy="383.6" r="2.6"/>
	<circle opacity="0.65" fill="#FFFFFF" cx="105.6" cy="351.4" r="2.6"/>
	<circle opacity="0.85" fill="#FFFFFF" cx="98.7" cy="310.3" r="2.6"/>
	<circle opacity="0.45" fill="#FFFFFF" cx="123.7" cy="388.4" r="2.6"/>
	<circle opacity="0.25" fill="#FFFFFF" cx="153.7" cy="418.4" r="2.6"/>
	<g>
		<g>
			<path fill="none" stroke="#414042" stroke-width="2" stroke-miterlimit="10" d="M234.3,309.6"/>
			<path fill="none" stroke="#414042" stroke-width="2" stroke-miterlimit="10" d="M234.3,309.6"/>
		</g>
		<line fill="none" stroke="#414042" stroke-width="2" stroke-miterlimit="10" x1="238.1" y1="311.2" x2="110.1" y2="270"/>
	</g>
</g>
</svg>
