<?xml version="1.0" encoding="utf-8"?>
<!-- Generator: Adobe Illustrator 17.1.0, SVG Export Plug-In . SVG Version: 6.00 Build 0)  -->
<!DOCTYPE svg PUBLIC "-//W3C//DTD SVG 1.1//EN" "http://www.w3.org/Graphics/SVG/1.1/DTD/svg11.dtd">
<svg version="1.1" id="Layer_1" xmlns="http://www.w3.org/2000/svg" xmlns:xlink="http://www.w3.org/1999/xlink" x="0px" y="0px"
	 viewBox="0 0 477.2 768" enable-background="new 0 0 477.2 768" xml:space="preserve">
<g>
	<g>
		<g>
			<path fill="none" stroke="#FFFFFF" stroke-width="2" stroke-miterlimit="10" d="M366.5,363.2c23.1-70.9-13.4-145.2-84.3-168.2"/>
			<line fill="none" stroke="#414042" stroke-width="2" stroke-miterlimit="10" x1="367.1" y1="363.8" x2="238.6" y2="322"/>
			<path fill="none" stroke="#BE1E2D" stroke-width="8" stroke-miterlimit="10" d="M196.2,449.3c70.9,23.1,147.1-15.7,170.2-86.7"/>
			<path fill="none" stroke="#414042" stroke-width="2" stroke-miterlimit="10" d="M238.1,321.5"/>
			<path fill="none" stroke="#414042" stroke-width="2" stroke-miterlimit="10" d="M109.8,279.7c-23.1,70.9,15.7,147.1,86.7,170.2"
				/>
			<path fill="none" stroke="#414042" stroke-width="2" stroke-miterlimit="10" d="M238.1,321.5"/>
		</g>
		<line fill="none" stroke="#414042" stroke-width="2" stroke-miterlimit="10" x1="241.9" y1="323.1" x2="109.3" y2="280.3"/>
		<line fill="none" stroke="#414042" stroke-width="2" stroke-miterlimit="10" x1="239.4" y1="322.8" x2="282.6" y2="194.8"/>
	</g>
	<text transform="matrix(1 0 0 1 381.128 370)" fill="#58595B" font-family="'SourceSansPro-Regular'" font-size="18">release</text>
	<text transform="matrix(1 0 0 1 185.128 483)" fill="#58595B" font-family="'SourceSansPro-Regular'" font-size="18">poverty</text>
	<g>
		<path fill="none" stroke="#FFFFFF" stroke-width="2" stroke-miterlimit="10" d="M197.1,450.8"/>
		<path fill="none" stroke="#FFFFFF" stroke-width="2" stroke-miterlimit="10" d="M196.4,450.1"/>
		<path fill="none" stroke="#FFFFFF" stroke-width="2" stroke-miterlimit="10" d="M238.2,321.8"/>
		<path fill="none" stroke="#FFFFFF" stroke-width="2" stroke-miterlimit="10" d="M109.8,280"/>
		<path fill="none" stroke="#FFFFFF" stroke-width="2" stroke-miterlimit="10" d="M109.8,280c-23.1,70.9,15.7,147.1,86.7,170.2"/>
		<path fill="none" stroke="#FFFFFF" stroke-width="2" stroke-miterlimit="10" d="M238.2,321.8"/>
	</g>
	<path fill="none" stroke="#D1D3D4" stroke-miterlimit="10" d="M109.5,280.6"/>
	<path fill="none" stroke="#D1D3D4" stroke-miterlimit="10" d="M242.1,323.4"/>
	<path fill="none" stroke="#FFFFFF" stroke-width="2" stroke-miterlimit="10" d="M283.1,195c-70.9-23.1-149.9,14.1-173,85"/>
	<circle fill="#FFFFFF" cx="365.1" cy="365" r="4"/>
	<circle fill="#FFFFFF" cx="195.1" cy="449" r="4"/>
	<circle opacity="0.85" fill="#FFFFFF" cx="232.7" cy="455.6" r="2.6"/>
	<circle opacity="0.75" fill="#FFFFFF" cx="267.5" cy="452.4" r="2.6"/>
	<circle opacity="0.65" fill="#FFFFFF" cx="301.7" cy="439.6" r="2.6"/>
	<circle opacity="0.45" fill="#FFFFFF" cx="328.5" cy="421.4" r="2.6"/>
	<circle opacity="0.25" fill="#FFFFFF" cx="349.7" cy="395.6" r="2.6"/>
	<line fill="none" stroke="#414042" stroke-width="2" stroke-miterlimit="10" x1="239.1" y1="321" x2="197.1" y2="445"/>
</g>
</svg>
