<?xml version="1.0" encoding="utf-8"?>
<!-- Generator: Adobe Illustrator 19.1.0, SVG Export Plug-In . SVG Version: 6.00 Build 0)  -->
<svg version="1.1" id="Layer_1" xmlns="http://www.w3.org/2000/svg" xmlns:xlink="http://www.w3.org/1999/xlink" x="0px" y="0px"
	 viewBox="0 0 149.417 72" width="149.417" height="72" preserveAspectRatio="xMinYMid" enable-background="new 0 0 149.417 72" xml:space="preserve">
<g>
	<path fill="#FFFFFF" d="M35.346,1.597c15.172-0.11,28.511,9.902,32.936,24.217c1.167,3.775,1.711,7.636,1.55,11.578
		c-0.332,8.161-3.108,15.396-8.465,21.578c-5.241,6.048-11.816,9.906-19.705,11.269c-10.661,1.842-20.207-0.784-28.426-7.828
		C7.025,57.087,3.203,50.292,1.849,42.234C0.088,31.757,2.541,22.277,9.272,14.031C14.424,7.719,21.089,3.798,29.09,2.192
		C31.239,1.761,33.411,1.541,35.346,1.597z M34.939,67.85c3.815-0.12,6.336-0.363,9.735-1.405
		c14.592-4.476,23.903-19.038,21.918-34.276c-0.92-7.06-3.797-13.21-8.844-18.236C50.08,6.296,40.808,3.269,30.142,5.077
		C14.406,7.744,2.808,22.462,4.456,39.364c0.485,4.969,2.013,9.62,4.753,13.803C15.424,62.654,24.279,67.462,34.939,67.85z"/>
	<path fill="#FFFFFF" d="M120.551,40.015c0-3.689,0-7.378,0.003-11.067c0-0.046,0.049-0.091,0.113-0.204c0.566,0,1.171,0,1.861,0
		c0.032,0.299,0.09,0.584,0.09,0.868c0.006,4.398,0.005,8.796,0.001,13.194c0,0.26-0.043,0.521-0.07,0.817c-1.037,0-1.998,0-3.049,0
		c-0.513-1.97-0.805-3.967-1.217-5.935c-0.408-1.948-0.77-3.905-1.298-5.845c0,3.888,0,7.775,0,11.742c-0.654,0-1.225,0-1.785,0
		c-0.229-0.744-0.229-14.086,0.007-14.846c0.909,0,1.838,0,2.875,0c0.391,1.909,0.781,3.802,1.165,5.697
		c0.378,1.865,0.751,3.732,1.126,5.598C120.432,40.027,120.491,40.021,120.551,40.015z"/>
	<path fill="#FFFFFF" d="M143.976,24.628c-0.384-1.95-0.759-3.85-1.134-5.75c-0.375-1.901-0.751-3.803-1.268-5.703
		c0,0.273,0,0.545,0,0.818c-0.001,3.185,0.002,6.371-0.005,9.556c-0.001,0.34-0.053,0.681-0.084,1.057c-0.632,0-1.184,0-1.717,0
		c-0.206-0.643-0.264-13.713-0.065-14.853c0.895-0.153,1.825-0.046,2.863-0.07c0.462,1.873,0.775,3.752,1.162,5.615
		c0.388,1.868,0.76,3.74,1.202,5.604c0.09-3.708,0.049-7.411,0.087-11.171c0.713,0,1.319,0,2.018,0
		c0.03,0.281,0.082,0.537,0.082,0.792c0.005,4.427,0.004,8.854,0.001,13.281c0,0.237-0.037,0.473-0.064,0.796
		C146.032,24.713,145.053,24.669,143.976,24.628z"/>
	<path fill="#FFFFFF" d="M83.892,28.739c0.302-0.024,0.539-0.058,0.776-0.059c0.998-0.006,1.995-0.002,2.993-0.001
		c0.081,0,0.162,0.003,0.243,0.007c2.068,0.111,2.944,0.854,3.007,2.914c0.092,2.987,0.024,5.978,0.023,8.968
		c0,0.08-0.013,0.161-0.025,0.241c-0.267,1.863-1.175,2.732-3.045,2.82c-1.157,0.055-2.318,0.025-3.477,0.028
		c-0.131,0-0.263-0.034-0.478-0.063c-0.039-0.286-0.109-0.567-0.11-0.848c-0.007-4.368-0.007-8.736-0.001-13.104
		C83.797,29.355,83.856,29.067,83.892,28.739z M86.057,30.57c0,3.777-0.003,7.45,0.001,11.089c1.708,0.47,2.53-0.066,2.684-1.639
		c0.003-0.027,0.005-0.054,0.005-0.081c0.003-2.556,0.036-5.113-0.006-7.669c-0.021-1.247-0.576-1.714-1.839-1.747
		C86.667,30.517,86.43,30.548,86.057,30.57z"/>
	<path fill="#FFFFFF" d="M83.881,9.753c0.274-0.029,0.484-0.07,0.694-0.071c1.132-0.005,2.264-0.01,3.396,0.006
		c0.348,0.005,0.701,0.045,1.04,0.123c0.746,0.172,1.249,0.636,1.423,1.387c0.102,0.442,0.161,0.902,0.174,1.356
		c0.021,0.754,0.017,1.51-0.029,2.263c-0.057,0.936-0.343,1.757-1.533,2.129c1.456,0.382,1.69,1.412,1.69,2.538
		c0,1.021-0.007,2.052-0.146,3.06c-0.169,1.227-0.78,1.762-2.001,2.001c-0.765,0.149-3.767,0.172-4.681,0.018
		c-0.035-0.253-0.108-0.534-0.109-0.815c-0.007-4.394-0.007-8.788-0.002-13.182C83.797,10.305,83.849,10.044,83.881,9.753z
		 M86.106,22.818c0.535,0.228,1.039,0.138,1.541,0.082c0.534-0.06,0.866-0.385,0.887-0.886c0.046-1.123,0.04-2.249,0.009-3.373
		c-0.01-0.353-0.21-0.68-0.601-0.778c-0.601-0.15-1.205-0.215-1.836,0.053C86.106,19.563,86.106,21.188,86.106,22.818z
		 M86.057,11.528c0.033,1.485-0.073,2.947,0.063,4.423c0.228,0.035,0.383,0.073,0.539,0.078c0.295,0.009,0.592,0.018,0.885-0.008
		c0.565-0.049,0.823-0.266,0.895-0.844c0.079-0.637,0.134-1.284,0.119-1.924c-0.039-1.632-0.513-2.022-2.151-1.848
		C86.33,11.414,86.258,11.456,86.057,11.528z"/>
	<path fill="#FFFFFF" d="M141.078,28.811c0.045-0.028,0.09-0.081,0.134-0.08c1.534,0.02,3.074-0.031,4.599,0.095
		c1.116,0.092,1.654,0.672,1.778,1.775c0.119,1.066,0.127,2.151,0.106,3.226c-0.02,1.011-0.464,1.821-1.566,2.273
		c0.223,0.139,0.321,0.215,0.431,0.266c0.717,0.335,1.033,0.929,1.056,1.685c0.025,0.836,0.013,1.673,0.014,2.51
		c0.002,0.969,0,1.937,0,3.011c-0.58,0.164-1.234,0.109-2.001,0.036c-0.064-0.393-0.169-0.778-0.18-1.165
		c-0.027-0.917-0.01-1.835-0.011-2.753c0-0.27,0.003-0.54-0.002-0.81c-0.024-1.45-0.613-1.895-2.17-1.557
		c-0.023,0.284-0.069,0.596-0.071,0.907c-0.008,1.484-0.001,2.969-0.006,4.454c-0.001,0.29-0.03,0.579-0.049,0.923
		c-0.725,0-1.383,0-2.024,0C140.883,42.915,140.863,29.569,141.078,28.811z M143.257,35.286c0.329,0.022,0.541,0.052,0.752,0.047
		c1.042-0.02,1.384-0.341,1.449-1.402c0.036-0.589,0.036-1.182,0.024-1.773c-0.029-1.463-0.322-1.725-1.8-1.634
		c-0.127,0.008-0.252,0.06-0.425,0.104C143.257,32.169,143.257,33.683,143.257,35.286z"/>
	<path fill="#FFFFFF" d="M100.778,47.821c0.167-0.023,0.351-0.07,0.535-0.071c1.16-0.001,2.32-0.003,3.479,0.021
		c0.346,0.007,0.696,0.075,1.035,0.156c0.757,0.181,1.223,0.682,1.378,1.431c0.281,1.359,0.311,2.731,0.063,4.1
		c-0.117,0.641-0.459,1.144-1.044,1.464c-0.133,0.073-0.258,0.16-0.453,0.283c0.244,0.113,0.415,0.183,0.577,0.269
		c0.637,0.338,0.914,0.902,0.93,1.593c0.023,0.997,0.017,1.996,0.02,2.994c0.003,0.832,0.001,1.664,0.001,2.554
		c-0.571,0.24-1.208,0.069-1.787,0.089c-0.412-0.345-0.398-0.76-0.401-1.161c-0.008-0.917-0.003-1.834-0.004-2.751
		c0-0.297,0.005-0.594-0.003-0.89c-0.04-1.457-0.606-1.87-2.174-1.519c-0.021,0.29-0.063,0.604-0.064,0.918
		c-0.007,1.456,0.001,2.913-0.007,4.37c-0.002,0.315-0.049,0.629-0.08,0.991c-0.723,0-1.377,0-2.012,0
		C100.53,61.837,100.549,48.506,100.778,47.821z M102.915,54.412c0.487-0.029,0.858-0.035,1.225-0.078
		c0.52-0.062,0.882-0.381,0.91-0.885c0.057-1.02,0.049-2.046,0.026-3.068c-0.008-0.33-0.199-0.652-0.56-0.716
		c-0.52-0.092-1.058-0.207-1.6,0.093C102.915,51.265,102.915,52.764,102.915,54.412z"/>
	<path fill="#FFFFFF" d="M99.36,24.605c-0.618,0-1.226,0-1.826,0c-0.365-0.313-0.356-0.728-0.36-1.129
		c-0.009-1.188,0.002-2.375-0.009-3.563c-0.015-1.535-0.556-1.948-2.172-1.602c-0.022,0.29-0.065,0.604-0.067,0.918
		c-0.007,1.458,0.001,2.915-0.007,4.373c-0.002,0.315-0.047,0.63-0.077,0.999c-0.724,0-1.378,0-2.014,0
		c-0.2-0.693-0.231-13.905-0.041-14.805c0.152-0.035,0.328-0.108,0.504-0.109c1.214-0.005,2.429-0.002,3.643,0.014
		c0.267,0.003,0.538,0.049,0.8,0.103c0.857,0.178,1.393,0.712,1.558,1.56c0.245,1.253,0.271,2.519,0.089,3.786
		c-0.115,0.8-0.481,1.422-1.237,1.777c-0.089,0.042-0.163,0.116-0.304,0.218c0.207,0.09,0.353,0.148,0.494,0.217
		c0.71,0.349,1.004,0.954,1.014,1.711c0.014,1.133,0.009,2.267,0.01,3.401C99.361,23.145,99.36,23.815,99.36,24.605z M95.034,11.561
		c-0.194,1.148-0.145,4.117,0.083,4.785c0.367-0.03,0.762-0.043,1.151-0.098c0.523-0.073,0.848-0.422,0.87-0.919
		c0.046-1.018,0.037-2.04,0.006-3.059c-0.011-0.375-0.26-0.671-0.661-0.701C96.012,11.533,95.536,11.561,95.034,11.561z"/>
	<path fill="#FFFFFF" d="M124.66,43.525c-0.166-0.645-0.193-13.865-0.023-14.721c0.107-0.034,0.231-0.107,0.355-0.108
		c1.268-0.006,2.536-0.008,3.803,0.009c0.294,0.004,0.589,0.073,0.879,0.133c0.9,0.186,1.521,0.706,1.734,1.608
		c0.148,0.626,0.275,1.274,0.284,1.914c0.036,2.427,0.037,4.856,0.011,7.284c-0.007,0.614-0.124,1.234-0.256,1.837
		c-0.259,1.184-1.034,1.952-2.215,2.053c-1.47,0.127-2.958,0.059-4.438,0.07C124.749,43.605,124.705,43.553,124.66,43.525z
		 M126.749,41.812c0.439,0,0.78,0.016,1.119-0.003c0.877-0.051,1.278-0.362,1.458-1.225c0.104-0.497,0.131-1.016,0.135-1.525
		c0.015-2.021,0.011-4.043,0.002-6.064c-0.002-0.403-0.026-0.81-0.088-1.208c-0.068-0.439-0.254-0.841-0.692-1.03
		c-0.604-0.261-1.229-0.339-1.96-0.103C126.732,34.342,126.698,38.018,126.749,41.812z"/>
	<path fill="#FFFFFF" d="M107.932,17.073c-0.053,1.616-0.078,3.234-0.171,4.848c-0.047,0.832-0.392,1.584-1.053,2.12
		c-1.115,0.903-2.392,0.924-3.681,0.495c-1.196-0.398-1.665-1.381-1.807-2.553c-0.055-0.454-0.091-0.914-0.093-1.371
		c-0.009-2.24-0.024-4.48,0.007-6.719c0.01-0.723,0.074-1.463,0.249-2.161c0.349-1.389,1.328-2.117,2.757-2.182
		c2.487-0.113,3.632,0.932,3.726,3.474c0.05,1.347,0.009,2.698,0.009,4.047C107.895,17.072,107.913,17.073,107.932,17.073z
		 M105.623,17.196c0,0,0.001,0,0.001,0c0-1.322,0.006-2.643-0.004-3.964c-0.003-0.349-0.014-0.706-0.089-1.044
		c-0.131-0.596-0.443-0.823-1.026-0.825c-0.587-0.003-0.877,0.216-1.029,0.819c-0.059,0.233-0.086,0.479-0.087,0.719
		c-0.007,2.832-0.012,5.664,0.002,8.495c0.002,0.342,0.086,0.696,0.197,1.022c0.134,0.39,0.448,0.592,0.872,0.602
		c0.451,0.011,0.818-0.161,0.956-0.594c0.12-0.378,0.189-0.787,0.196-1.184C105.637,19.894,105.623,18.545,105.623,17.196z"/>
	<path fill="#FFFFFF" d="M116.343,17.016c0,1.295,0.038,2.592-0.016,3.885c-0.028,0.664-0.146,1.345-0.353,1.976
		c-0.327,0.998-1.078,1.591-2.112,1.8c-0.29,0.059-0.587,0.103-0.882,0.109c-1.997,0.039-3.27-1.069-3.314-3.066
		c-0.065-2.994-0.034-5.99,0.003-8.985c0.006-0.522,0.176-1.069,0.383-1.557c0.444-1.049,1.326-1.536,2.426-1.614
		c1.248-0.089,2.456,0.016,3.257,1.169c0.462,0.665,0.593,1.442,0.6,2.235c0.012,1.349,0.003,2.699,0.003,4.048
		C116.34,17.016,116.342,17.016,116.343,17.016z M114.081,17.155c0-1.294,0.005-2.587-0.003-3.881
		c-0.002-0.349-0.009-0.704-0.072-1.046c-0.109-0.595-0.428-0.851-0.992-0.865c-0.578-0.014-0.905,0.215-1.045,0.798
		c-0.081,0.338-0.127,0.692-0.129,1.039c-0.01,2.641-0.011,5.283,0.001,7.924c0.002,0.373,0.057,0.755,0.153,1.115
		c0.149,0.553,0.476,0.784,0.985,0.783c0.53-0.001,0.889-0.282,1.01-0.86c0.071-0.34,0.084-0.696,0.086-1.045
		C114.086,19.797,114.08,18.476,114.081,17.155z"/>
	<path fill="#FFFFFF" d="M120.356,17.852c0,2.225,0,4.45,0,6.742c-0.743,0-1.399,0-2.042,0c-0.234-0.7-0.261-13.989-0.024-14.85
		c0.638,0,1.294,0,2.059,0c0.09,1.052,0.036,2.07,0.045,3.084c0.009,1.019,0.002,2.039,0.136,3.096
		c0.868-2.071,1.737-4.142,2.588-6.171c0.747,0,1.403,0,2.172,0c-0.139,0.375-0.226,0.65-0.34,0.914
		c-0.777,1.809-1.549,3.62-2.35,5.418c-0.191,0.429-0.196,0.795-0.019,1.229c0.863,2.123,1.7,4.257,2.54,6.39
		c0.104,0.265,0.177,0.542,0.293,0.901c-0.857,0-1.597,0-2.417,0c-0.816-2.255-1.63-4.505-2.444-6.755
		C120.489,17.85,120.422,17.851,120.356,17.852z"/>
	<path fill="#FFFFFF" d="M115.824,47.797c0.739,0,1.373,0,2.101,0c-0.015,0.281,0.005,0.516-0.044,0.736
		c-0.997,4.531-2.001,9.06-3.009,13.588c-0.04,0.179-0.131,0.347-0.214,0.558c-0.788,0-1.562,0-2.317,0
		c-0.334-0.598-3.283-13.93-3.274-14.842c0.641-0.154,1.295-0.114,2.066-0.015c0.824,3.711,1.48,7.469,2.401,11.199
		C114.295,55.289,115.056,51.558,115.824,47.797z"/>
	<path fill="#FFFFFF" d="M83.633,58.36c0.709,0,1.314,0,2.015,0c0.024,0.474,0.042,0.896,0.067,1.317
		c0.062,1.051,0.59,1.505,1.635,1.405c0.727-0.069,1.076-0.369,1.187-1.094c0.145-0.943,0.02-1.843-0.638-2.585
		c-0.59-0.666-1.221-1.295-1.824-1.949c-0.438-0.475-0.891-0.942-1.284-1.454c-0.857-1.114-1.074-2.402-0.867-3.759
		c0.193-1.266,0.925-2.105,2.174-2.447c0.984-0.27,1.977-0.28,2.954,0.027c1.121,0.352,1.643,1.033,1.694,2.197
		c0.025,0.559,0.004,1.12,0.004,1.761c-0.667,0-1.239,0-1.898,0c-0.027-0.396-0.058-0.762-0.077-1.128
		c-0.061-1.135-1.156-1.718-2.152-1.146c-0.339,0.195-0.464,0.516-0.52,0.871c-0.128,0.808,0.015,1.571,0.51,2.227
		c0.405,0.537,0.857,1.04,1.305,1.543c0.556,0.625,1.153,1.213,1.689,1.854c1.293,1.547,1.308,3.307,0.743,5.123
		c-0.22,0.708-0.754,1.187-1.453,1.425c-1.181,0.401-2.384,0.435-3.58,0.057c-0.928-0.294-1.551-0.922-1.668-1.893
		C83.562,59.973,83.633,59.216,83.633,58.36z"/>
	<path fill="#FFFFFF" d="M140.715,58.361c0.728,0,1.307,0,1.943,0c0.04,0.233,0.089,0.436,0.107,0.641
		c0.026,0.295-0.001,0.597,0.048,0.887c0.188,1.1,1.347,1.614,2.29,0.999c0.205-0.134,0.411-0.396,0.454-0.629
		c0.178-0.974,0.21-1.957-0.495-2.767c-0.619-0.711-1.296-1.372-1.931-2.07c-0.471-0.518-0.965-1.026-1.361-1.599
		c-0.806-1.169-1.036-2.471-0.697-3.861c0.21-0.86,0.679-1.546,1.486-1.917c1.285-0.59,2.612-0.626,3.927-0.082
		c0.785,0.325,1.249,0.917,1.333,1.782c0.065,0.665,0.164,1.332-0.059,2.039c-0.591,0-1.163,0-1.806,0
		c-0.021-0.443-0.024-0.816-0.06-1.185c-0.094-0.962-0.731-1.434-1.683-1.261c-0.645,0.117-0.924,0.418-0.996,1.085
		c-0.094,0.864,0.036,1.675,0.62,2.356c0.544,0.635,1.102,1.257,1.661,1.878c0.307,0.341,0.627,0.669,0.942,1.003
		c1.4,1.487,1.594,3.244,1.12,5.132c-0.243,0.97-0.882,1.589-1.851,1.85c-1.009,0.271-2.027,0.3-3.042,0.04
		c-1.26-0.324-1.911-1.141-1.949-2.441C140.701,59.654,140.715,59.064,140.715,58.361z"/>
	<path fill="#FFFFFF" d="M131.192,51.835c-0.703,0-1.306,0-1.994,0c-0.029-0.449-0.018-0.852-0.091-1.238
		c-0.063-0.331-0.144-0.713-0.354-0.951c-0.539-0.612-1.583-0.357-1.82,0.44c-0.137,0.459-0.194,0.956-0.198,1.437
		c-0.019,2.537-0.015,5.074-0.002,7.61c0.002,0.373,0.062,0.755,0.154,1.118c0.152,0.598,0.478,0.84,1.028,0.839
		c0.535-0.001,0.93-0.261,1.089-0.795c0.09-0.304,0.088-0.637,0.123-0.957c0.034-0.312,0.061-0.625,0.096-0.978
		c0.663,0,1.248,0,1.819,0c0.368,0.87,0.274,2.589-0.173,3.311c-0.312,0.505-0.764,0.835-1.334,0.988
		c-0.985,0.264-1.975,0.272-2.957-0.017c-1.283-0.377-1.954-1.334-1.983-2.577c-0.075-3.155-0.102-6.316,0.002-9.469
		c0.061-1.865,1.332-2.936,3.195-2.969c0.586-0.01,1.191,0.043,1.756,0.19c0.916,0.238,1.498,0.892,1.626,1.823
		C131.267,50.322,131.192,51.028,131.192,51.835z"/>
	<path fill="#FFFFFF" d="M93.015,28.722c1.86,0,3.687,0,5.523,0c0.302,0.574,0.149,1.116,0.1,1.77
		c-1.174,0.015-2.29,0.028-3.47,0.043c-0.112,1.542-0.078,2.983-0.023,4.54c1.115,0.022,2.177,0.044,3.304,0.066
		c0,0.61,0,1.13,0,1.765c-0.576,0.012-1.106,0.028-1.636,0.034c-0.509,0.006-1.018,0.001-1.49,0.001
		c-0.259,0.643-0.315,3.732-0.113,4.752c0.548,0.249,1.147,0.099,1.728,0.132c0.556,0.031,1.113,0.039,1.719,0.059
		c0,0.606,0,1.106,0,1.591c-0.624,0.228-4.744,0.276-5.644,0.081C92.788,42.907,92.766,29.572,93.015,28.722z"/>
	<path fill="#FFFFFF" d="M92.81,47.801c1.874,0,3.723,0,5.651,0c0,0.575,0,1.094,0,1.729c-1.141,0.029-2.259,0.058-3.345,0.085
		c-0.249,0.727-0.262,3.632-0.011,4.491c0.494,0,1.026,0,1.558,0c0.507,0,1.013,0,1.503,0c0.267,0.617,0.193,1.14,0.084,1.738
		c-1.046,0.254-2.136-0.039-3.285,0.195c-0.069,1.59-0.057,3.159-0.003,4.832c1.215,0.014,2.331,0.027,3.51,0.041
		c0,0.634,0,1.153,0,1.656c-0.724,0.212-4.946,0.22-5.66,0.027C92.624,61.955,92.599,48.725,92.81,47.801z"/>
	<path fill="#FFFFFF" d="M107.7,43.494c-0.034-4.864-0.009-9.759-0.018-14.759c1.947-0.12,3.793-0.031,5.63-0.053
		c0.351,0.594,0.201,1.141,0.144,1.796c-1.164,0-2.282,0-3.488,0c-0.163,1.565-0.096,3.023-0.044,4.599c1.107,0,2.147,0,3.153,0
		c0.322,0.619,0.213,1.145,0.141,1.758c-1.051,0.248-2.14-0.011-3.265,0.18c-0.159,1.572-0.041,3.117-0.075,4.776
		c1.226,0.024,2.344,0.046,3.453,0.067c0.302,0.598,0.216,1.144,0.123,1.683C112.728,43.726,108.464,43.706,107.7,43.494z"/>
	<path fill="#FFFFFF" d="M133.629,28.71c1.939,0,3.769,0,5.621,0c0.232,0.568,0.153,1.113,0.032,1.765
		c-1.121,0.024-2.238,0.048-3.43,0.073c-0.128,1.505-0.064,2.945-0.042,4.433c1.086,0.305,2.18-0.033,3.213,0.209
		c0.218,0.624,0.226,0.819,0.049,1.698c-1.031,0.032-2.091,0.064-3.225,0.099c-0.12,1.596-0.051,3.121-0.049,4.718
		c1.165,0.286,2.339-0.032,3.525,0.22c0,0.563,0,1.089,0,1.621c-0.498,0.154-4.898,0.172-5.694,0.013
		C133.629,38.646,133.629,33.724,133.629,28.71z"/>
	<path fill="#FFFFFF" d="M133.632,62.585c0-4.905,0-9.781,0-14.641c0.629-0.25,4.791-0.289,5.693-0.049c0,0.502,0,1.022,0,1.664
		c-1.15,0-2.269,0-3.459,0c-0.152,1.553-0.069,2.987-0.066,4.53c1.14,0,2.178,0,3.195,0c0.324,0.638,0.179,1.18,0.125,1.831
		c-1.098,0-2.136,0-3.134,0c-0.241,0.674-0.287,3.879-0.086,4.931c1.093,0,2.212,0,3.32,0c0.269,0.647,0.182,1.191,0.078,1.728
		C138.621,62.775,134.514,62.79,133.632,62.585z"/>
	<path fill="#FFFFFF" d="M135.775,24.561c-0.327,0.048-0.509,0.093-0.692,0.097c-0.455,0.011-0.91,0.004-1.449,0.004
		c-0.043-0.376-0.107-0.684-0.11-0.992c-0.011-1.485,0.013-2.97-0.016-4.454c-0.01-0.505-0.081-1.025-0.223-1.51
		c-0.697-2.383-1.428-4.755-2.143-7.133c-0.076-0.252-0.13-0.512-0.212-0.84c0.74,0,1.4,0,2.141,0
		c0.342,0.933,0.519,1.913,0.772,2.87c0.253,0.957,0.493,1.918,0.9,2.889c0.568-1.893,1.137-3.786,1.723-5.739
		c0.63,0,1.226,0,1.918,0c-0.105,0.418-0.176,0.756-0.276,1.084c-0.689,2.273-1.401,4.538-2.066,6.818
		c-0.164,0.56-0.241,1.161-0.256,1.746c-0.036,1.403-0.012,2.807-0.012,4.211C135.775,23.905,135.775,24.197,135.775,24.561z"/>
	<path fill="#FFFFFF" d="M102.456,43.613c-0.731,0-1.391,0-2.032,0c-0.219-0.704-0.235-14.057-0.004-14.924
		c1.837-0.021,3.706-0.016,5.644-0.003c0,0.637,0,1.157,0,1.722c-1.144,0.261-2.287-0.037-3.371,0.181
		c-0.221,0.671-0.245,3.554-0.021,4.469c0.493,0.016,1.02,0.041,1.548,0.05c0.508,0.009,1.016,0.002,1.507,0.002
		c0.312,0.592,0.221,1.114,0.113,1.709c-1.034,0.309-2.134-0.049-3.24,0.243c-0.028,0.325-0.077,0.639-0.078,0.953
		c-0.008,1.538-0.001,3.077-0.007,4.615C102.515,42.944,102.479,43.26,102.456,43.613z"/>
	<path fill="#FFFFFF" d="M126.91,9.741c0.746,0,1.403,0,2.133,0c0.028,0.399,0.073,0.74,0.073,1.082
		c0.005,3.613,0.002,7.227,0.005,10.84c0,0.344,0.029,0.688,0.047,1.112c0.773,0.034,1.487,0.066,2.279,0.101
		c0,0.596,0,1.137,0,1.733c-1.52,0-2.965,0-4.507,0c-0.033-0.297-0.09-0.578-0.09-0.86c-0.006-4.395-0.005-8.791-0.002-13.186
		C126.848,10.325,126.883,10.088,126.91,9.741z"/>
	<path fill="#FFFFFF" d="M122.178,62.662c-0.639,0-1.296,0-1.941,0c-0.237-0.684-0.257-14.018-0.016-14.851c0.638,0,1.296,0,1.94,0
		C122.384,48.491,122.404,61.835,122.178,62.662z"/>
	<path fill="#FFFFFF" d="M16.918,53.555c0-11.516,0-22.92,0-34.417c0.324-0.046,0.63-0.122,0.937-0.127
		c2.293-0.042,4.589-0.028,6.88-0.118c1.49-0.059,2.966-0.048,4.433,0.225c1.282,0.238,2.502,0.657,3.642,1.299
		c4.528,2.549,4.537,7.753,2.125,10.872c-1.161,1.502-2.633,2.618-4.256,3.56c-0.345,0.2-0.693,0.395-1.208,0.687
		c0.41,0.174,0.661,0.293,0.921,0.388c1.17,0.429,2.28,0.969,3.305,1.689c3.896,2.735,4.677,8.04,1.306,11.747
		c-2.222,2.444-5.029,3.779-8.284,4.133c-1.336,0.146-2.693,0.112-4.041,0.128c-1.565,0.019-3.131,0.008-4.696,0.002
		C17.665,53.621,17.347,53.583,16.918,53.555z M22.381,37.206c0.654-0.619,1.243-1.089,1.722-1.651
		c0.587-0.69,1.301-0.803,2.116-0.684c0.587,0.086,1.169,0.219,1.759,0.264c0.299,0.023,0.683-0.007,0.905-0.176
		c2.729-2.082,3.842-4.811,3.062-8.35c-0.619-2.807-3.095-4.896-6.063-5.158c-1.279-0.113-2.578,0.012-3.869,0.033
		c-0.045,0.001-0.089,0.054-0.193,0.121c0,9.9,0,19.839,0,29.792c0.102,0.06,0.186,0.141,0.284,0.163
		c1.73,0.405,3.438,0.912,5.242,0.934c0.662,0.008,1.203-0.164,1.711-0.57c2.099-1.674,3.275-3.847,3.449-6.519
		c0.127-1.958-0.368-3.747-1.754-5.213c-1.373-1.453-3.119-2.193-5.038-2.551C24.685,37.45,23.636,37.366,22.381,37.206z"/>
	<path fill="#FFFFFF" d="M32.124,18.943c0.906-0.037,1.812-0.122,2.717-0.103c3.327,0.07,6.468,0.866,9.325,2.602
		c3.791,2.305,6.402,5.513,7.3,9.939c0.583,2.87,0.264,5.706-0.625,8.468c-1.608,4.994-4.567,8.954-9.139,11.626
		c-2.306,1.347-4.814,2.028-7.476,2.129c-1.105,0.042-2.213,0.017-3.319,0.017c-0.124,0-0.247-0.038-0.53-0.084
		c0.272-0.172,0.413-0.266,0.558-0.351c0.976-0.57,1.967-1.116,2.924-1.717c0.336-0.211,0.647-0.327,1.045-0.334
		c2.302-0.042,4.581-0.245,6.756-1.088c0.201-0.078,0.402-0.158,0.601-0.24c2.351-0.971,3.946-2.603,4.743-5.075
		c2.429-7.525,0.155-16.219-6.84-20.825c-1.178-0.776-2.446-1.367-3.781-1.824c-0.297-0.102-0.633-0.228-0.833-0.45
		c-0.902-1.001-1.978-1.745-3.181-2.326c-0.094-0.045-0.174-0.119-0.26-0.179C32.115,19.066,32.119,19.004,32.124,18.943z"/>
	<path fill="#FFFFFF" d="M46.169,49.202c0.129,0.077,0.251,0.134,0.357,0.213c1.485,1.105,3.173,1.414,4.979,1.296
		c0.449-0.029,0.746-0.213,0.971-0.604c0.479-0.833,0.772-1.725,0.884-2.67c0.162-1.371,0.23-2.743-0.183-4.091
		c-0.265-0.865-0.702-1.633-1.314-2.299c-0.248-0.27-0.416-0.531-0.283-0.937c0.515-1.571,0.763-3.196,0.927-4.837
		c0.005-0.05,0.043-0.097,0.106-0.233c0.206,0.102,0.424,0.184,0.613,0.308c2.427,1.592,3.658,3.856,3.62,6.745
		c-0.056,4.289-1.831,7.71-5.397,10.136c-1.5,1.02-3.156,1.649-5.009,1.585c-1.203-0.042-2.353-0.31-3.384-0.963
		c-0.267-0.169-0.503-0.385-0.82-0.63C43.568,51.198,44.836,50.225,46.169,49.202z"/>
	<path fill="#FFFFFF" d="M41.421,25.999c2.769,1.521,6.227,8.867,5.615,11.843C41.724,36.251,39.25,31.758,41.421,25.999z"/>
	<path fill="#FFFFFF" d="M45.051,20.941c0.096-0.122,0.147-0.221,0.227-0.282c1.89-1.426,3.974-2.267,6.385-2.034
		c0.501,0.048,1.014,0.181,1.478,0.379c1.578,0.674,2.776,1.796,3.762,3.314c-1.197,0.856-2.346,1.679-3.545,2.537
		c-0.246-0.282-0.451-0.489-0.625-0.72c-1.582-2.095-3.777-2.755-6.275-2.629C45.889,21.535,45.459,21.435,45.051,20.941z"/>
	<path fill="#FFFFFF" d="M40.302,49.479c0.321-0.528,2.793-2.256,3.825-2.709c0.058,0.039,0.143,0.068,0.184,0.128
		c0.089,0.13,0.155,0.275,0.21,0.376C44.42,47.978,41.401,49.553,40.302,49.479z"/>
	<path fill="#FFFFFF" d="M29.384,50.534c-0.685,0.903-1.559,1.367-2.728,1.161c-0.686-0.12-1.377-0.214-2.02-0.312
		c-0.245-0.789-0.239-12.402,0.011-13.155c0.532,0.108,1.096,0.166,1.621,0.341c0.79,0.262,1.56,0.591,2.327,0.918
		c0.574,0.245,0.817,0.658,0.807,1.332c-0.041,2.698-0.017,5.397-0.017,8.095C29.384,49.427,29.384,49.939,29.384,50.534z"/>
	<path fill="#FFFFFF" d="M24.515,34.04c0-3.937,0-7.855,0-11.795c0.15-0.048,0.276-0.126,0.399-0.122
		c1.432,0.051,2.754,0.443,3.946,1.258c0.367,0.251,0.531,0.556,0.529,1.01c-0.014,2.828,0,5.657-0.011,8.485
		c-0.004,0.952-0.776,1.56-1.697,1.45c-0.931-0.111-1.871-0.15-2.807-0.224C24.772,34.095,24.67,34.068,24.515,34.04z"/>
</g>
</svg>
