<?xml version="1.0" encoding="utf-8"?>
<!-- Generator: Adobe Illustrator 19.1.0, SVG Export Plug-In . SVG Version: 6.00 Build 0)  -->
<svg version="1.1" id="Layer_1" xmlns="http://www.w3.org/2000/svg" xmlns:xlink="http://www.w3.org/1999/xlink" x="0px" y="0px"
	 viewBox="0 0 149.417 72" width="148.417" height="72" preserveAspectRatio="xMinYMid" enable-background="new 0 0 149.417 72" xml:space="preserve">
<g>
	<g>
		<polygon fill="#FFFFFF" points="91.215,28.223 93.945,28.223 92.603,24.228 		"/>
		<path fill="#FFFFFF" d="M74.035,22.902h-1.619v7.156h1.619c0.74,0,1.234-0.232,1.604-0.679c0.401-0.493,0.463-1.28,0.463-2.945
			c0-1.666-0.062-2.36-0.463-2.854C75.268,23.133,74.775,22.902,74.035,22.902z"/>
		<path fill="#FFFFFF" d="M41.368,18.667v15.626h58.379V18.667H41.368z M54.371,31.97h-2.144v-6.4l-2.097,4.164h-1.45l-2.113-4.164
			v6.4h-2.144V20.989h2.113l2.868,5.938l2.853-5.938h2.113V31.97z M66.17,22.902h-5.09v2.576h4.334v1.912H61.08v2.668h5.09v1.912
			h-7.233V20.989h7.233V22.902z M77.135,30.921c-0.725,0.725-1.758,1.049-2.899,1.049h-3.963V20.989h3.963
			c1.141,0,2.175,0.324,2.899,1.049c1.234,1.233,1.11,2.745,1.11,4.396S78.368,29.688,77.135,30.921z M84.584,31.97H82.44V20.989
			h2.144V31.97z M95.163,31.97l-0.648-1.943h-3.902l-0.663,1.943h-2.236l3.994-10.981h1.681L97.4,31.97H95.163z"/>
	</g>
	<g>
		<path fill="#FFFFFF" d="M68.189,39.149c-0.417,0-0.663,0.169-0.817,0.417c-0.324,0.524-0.385,1.635-0.385,3.64
			s0.062,3.115,0.385,3.639c0.154,0.247,0.401,0.417,0.817,0.417s0.679-0.169,0.833-0.417c0.324-0.524,0.37-1.634,0.37-3.639
			s-0.046-3.116-0.37-3.64C68.868,39.318,68.605,39.149,68.189,39.149z"/>
		<polygon fill="#FFFFFF" points="80.741,44.963 82.623,44.963 81.682,40.367 		"/>
		<path fill="#FFFFFF" d="M54.912,39.272h-1.018v7.865h1.018c0.416,0,0.709-0.185,0.879-0.447c0.324-0.509,0.37-1.588,0.37-3.5
			c0-1.913-0.046-2.961-0.37-3.471C55.621,39.458,55.328,39.272,54.912,39.272z"/>
		<polygon fill="#FFFFFF" points="47,44.963 48.882,44.963 47.941,40.367 		"/>
		<path fill="#FFFFFF" d="M41.368,35.392v15.626h58.379V35.392H41.368z M49.653,48.695l-0.448-2.174h-2.545l-0.432,2.174h-1.82
			l2.699-10.981h1.681l2.668,10.981H49.653z M57.087,47.785c-0.447,0.509-1.08,0.91-2.129,0.91h-2.791V37.714h2.791
			c1.049,0,1.681,0.401,2.129,0.91c0.817,0.91,0.802,2.467,0.802,4.581C57.888,45.317,57.904,46.875,57.087,47.785z M62.407,48.695
			h-1.789l-2.406-10.981h1.897l1.403,8.329l1.419-8.329h1.897L62.407,48.695z M70.317,47.893c-0.462,0.524-1.079,0.926-2.128,0.926
			c-1.048,0-1.666-0.401-2.128-0.926c-0.817-0.925-0.802-2.529-0.802-4.688c0-2.16-0.016-3.763,0.802-4.688
			c0.463-0.524,1.08-0.926,2.128-0.926c1.049,0,1.666,0.401,2.128,0.926c0.818,0.925,0.802,2.529,0.802,4.688
			C71.119,45.364,71.135,46.968,70.317,47.893z M76.98,48.125c-0.494,0.447-1.079,0.694-1.897,0.694
			c-1.049,0-1.666-0.401-2.128-0.926c-0.817-0.925-0.802-2.514-0.802-4.673s-0.015-3.778,0.802-4.704
			c0.463-0.524,1.08-0.926,2.128-0.926c0.833,0,1.419,0.247,1.912,0.71c0.54,0.509,0.848,1.341,0.879,2.313h-1.727
			c-0.016-0.401-0.077-0.787-0.262-1.064c-0.154-0.247-0.386-0.401-0.802-0.401c-0.417,0-0.663,0.169-0.818,0.417
			c-0.324,0.524-0.386,1.635-0.386,3.64s0.062,3.115,0.386,3.639c0.154,0.247,0.401,0.417,0.818,0.417
			c0.416,0,0.663-0.154,0.818-0.401c0.185-0.278,0.247-0.679,0.262-1.08h1.728C77.859,46.768,77.535,47.616,76.98,48.125z
			 M83.394,48.695l-0.448-2.174h-2.544l-0.432,2.174h-1.82l2.699-10.981h1.681l2.668,10.981H83.394z M90.305,48.125
			c-0.494,0.447-1.08,0.694-1.897,0.694c-1.049,0-1.666-0.401-2.129-0.926c-0.817-0.925-0.802-2.514-0.802-4.673
			s-0.015-3.778,0.802-4.704c0.463-0.524,1.08-0.926,2.129-0.926c0.833,0,1.419,0.247,1.912,0.71
			c0.54,0.509,0.848,1.341,0.879,2.313h-1.727c-0.015-0.401-0.077-0.787-0.262-1.064c-0.155-0.247-0.385-0.401-0.802-0.401
			s-0.663,0.169-0.818,0.417c-0.323,0.524-0.385,1.635-0.385,3.64s0.062,3.115,0.385,3.639c0.155,0.247,0.401,0.417,0.818,0.417
			s0.663-0.154,0.817-0.401c0.185-0.278,0.247-0.679,0.262-1.08h1.728C91.183,46.768,90.859,47.616,90.305,48.125z M95.286,44.393
			v4.303h-1.728v-4.303l-2.128-6.678h1.913l1.08,4.349l1.095-4.349h1.897L95.286,44.393z"/>
	</g>
	<g>
		<path fill="#FFFFFF" d="M112.58,38.532h-1.28v4.426h1.28c1.095,0,1.435-0.787,1.435-2.206
			C114.014,39.334,113.675,38.532,112.58,38.532z"/>
		<path fill="#FFFFFF" d="M106.103,38.532h-1.28v4.487h1.28c1.095,0,1.434-0.801,1.434-2.236
			C107.537,39.35,107.198,38.532,106.103,38.532z"/>
		<path fill="#FFFFFF" d="M119.398,38.409c-0.448,0-0.756,0.154-0.972,0.401c-0.447,0.54-0.524,1.172-0.524,4.396
			c0,3.224,0.077,3.855,0.524,4.395c0.216,0.248,0.524,0.401,0.972,0.401c0.447,0,0.771-0.154,0.987-0.401
			c0.447-0.54,0.524-1.171,0.524-4.395c0-3.223-0.077-3.855-0.524-4.396C120.169,38.563,119.845,38.409,119.398,38.409z"/>
		<path fill="#FFFFFF" d="M100.845,35.392v15.626h47.238V35.392H100.845z M106.072,43.837h-1.249v4.858h-0.91V37.714h2.159
			c1.311,0,2.375,0.478,2.375,3.054C108.447,43.082,107.629,43.837,106.072,43.837z M114.307,48.695l-1.589-4.92H111.3v4.92h-0.91
			V37.714h2.159c1.326,0,2.375,0.478,2.375,3.039c0,1.696-0.447,2.514-1.357,2.853l1.712,5.089H114.307z M121.048,48.171
			c-0.37,0.401-0.941,0.648-1.65,0.648s-1.265-0.247-1.635-0.648c-0.694-0.74-0.771-1.604-0.771-4.966s0.077-4.226,0.771-4.966
			c0.37-0.401,0.925-0.648,1.635-0.648s1.28,0.247,1.65,0.648c0.694,0.74,0.772,1.604,0.772,4.966S121.742,47.431,121.048,48.171z
			 M126.54,46.336c0,0.787-0.216,1.419-0.648,1.85c-0.432,0.432-1.018,0.633-1.666,0.633c-0.74,0-1.311-0.262-1.742-0.771
			l0.663-0.602c0.247,0.339,0.633,0.555,1.079,0.555c0.787,0,1.404-0.571,1.404-1.666v-8.622h0.91V46.336z M132.755,38.532h-2.915
			v4.257h2.513v0.817h-2.513v4.272h2.915v0.817h-3.825V37.714h3.825V38.532z M136.055,47.6c0.216,0.248,0.524,0.401,0.972,0.401
			c0.432,0,0.725-0.138,0.941-0.37c0.324-0.354,0.432-0.895,0.432-1.45h0.91c-0.016,0.879-0.247,1.635-0.771,2.113
			c-0.37,0.324-0.863,0.525-1.511,0.525c-0.709,0-1.265-0.247-1.635-0.648c-0.694-0.74-0.771-1.604-0.771-4.966
			s0.077-4.226,0.771-4.966c0.37-0.401,0.926-0.648,1.635-0.648c0.694,0,1.203,0.216,1.573,0.586
			c0.478,0.478,0.694,1.218,0.71,2.051h-0.91c0-0.556-0.108-1.095-0.432-1.45c-0.216-0.231-0.509-0.37-0.941-0.37
			c-0.447,0-0.755,0.154-0.972,0.401c-0.447,0.54-0.524,1.172-0.524,4.396C135.531,46.429,135.608,47.061,136.055,47.6z
			 M145.015,38.532h-1.836v10.163h-0.91V38.532h-1.835v-0.818h4.581V38.532z"/>
	</g>
	<path fill="#FFFFFF" d="M1,18.667v15.626h39.269V18.667H1z M12.18,31.987h-1.111l-5.83-8.806v8.806H4.068V21.006h1.11l5.83,8.775
		v-8.775h1.172V31.987z M22.868,22.055h-5.645v3.871h4.812v1.049h-4.812v3.963h5.645v1.049h-6.817V21.006h6.817V22.055z
		 M35.067,31.987h-1.095l-2.437-8.791l-2.437,8.791h-1.095l-2.807-10.981h1.25l2.144,8.853l2.421-8.853h1.049l2.421,8.853
		l2.144-8.853h1.249L35.067,31.987z"/>
</g>
</svg>
