<?xml version="1.0" encoding="utf-8"?>
<!-- Generator: Adobe Illustrator 19.1.0, SVG Export Plug-In . SVG Version: 6.00 Build 0)  -->
<svg version="1.1" id="Layer_1" xmlns="http://www.w3.org/2000/svg" xmlns:xlink="http://www.w3.org/1999/xlink" x="0px" y="0px"
	 viewBox="0 0 52 52" width="52" height="52" preserveAspectRatio="xMinYMid" enable-background="new 0 0 52 52" xml:space="preserve">
<g>
	<polygon fill="#FFFFFF" points="36.32,20.528 36.32,16.521 36.32,15.922 35.721,15.924 31.714,15.938 31.728,20.543 	"/>
	<path fill="#FFFFFF" d="M25.876,31.164c2.638,0,4.785-2.147,4.785-4.783c0-1.041-0.339-2.005-0.907-2.79
		c-0.868-1.204-2.282-1.995-3.878-1.995c-1.597,0-3.008,0.792-3.878,1.995c-0.568,0.785-0.904,1.749-0.904,2.79
		C21.094,29.018,23.238,31.164,25.876,31.164z"/>
	<path fill="#FFFFFF" d="M26.001,1C12.193,1,1,12.192,1,25.999C1,39.807,12.193,51,26.001,51C39.807,51,51,39.807,51,25.999
		C51,12.192,39.806,1,26.001,1z M39.466,23.591v11.128c0,2.896-2.357,5.251-5.252,5.251H17.537c-2.896,0-5.252-2.354-5.252-5.251
		V23.591v-5.547c0-2.897,2.355-5.252,5.252-5.252h16.677c2.895,0,5.252,2.355,5.252,5.252V23.591z"/>
	<path fill="#FFFFFF" d="M33.308,26.381c0,4.097-3.333,7.432-7.432,7.432c-4.099,0-7.431-3.335-7.431-7.432
		c0-0.988,0.197-1.928,0.546-2.79h-4.058v11.128c0,1.436,1.168,2.604,2.603,2.604h16.677c1.436,0,2.603-1.168,2.603-2.604V23.591
		h-4.06C33.11,24.453,33.308,25.394,33.308,26.381z"/>
</g>
</svg>
