<?xml version="1.0" encoding="utf-8"?>
<!-- Generator: Adobe Illustrator 19.1.0, SVG Export Plug-In . SVG Version: 6.00 Build 0)  -->
<svg version="1.1" id="Layer_1" xmlns="http://www.w3.org/2000/svg" xmlns:xlink="http://www.w3.org/1999/xlink" x="0px" y="0px"
	 viewBox="0 0 52 52" width="52" height="52" preserveAspectRatio="xMinYMid" enable-background="new 0 0 52 52" xml:space="preserve">
<path fill="#FFFFFF" d="M26.001,1C12.193,1,1,12.196,1,26.001C1,39.809,12.193,51,26.001,51C39.809,51,51,39.809,51,26.001
	C51,12.196,39.807,1,26.001,1z M38.594,20.96c0.014,0.27,0.019,0.541,0.019,0.815c0,8.326-6.337,17.926-17.926,17.926
	c-3.558,0-6.87-1.043-9.657-2.83c0.492,0.059,0.992,0.088,1.502,0.088c2.952,0,5.669-1.008,7.824-2.697
	c-2.756-0.051-5.082-1.873-5.885-4.376c0.385,0.075,0.779,0.112,1.186,0.112c0.574,0,1.131-0.074,1.659-0.221
	c-2.883-0.578-5.054-3.127-5.054-6.177c0-0.027,0-0.054,0-0.081c0.85,0.472,1.82,0.755,2.853,0.789
	c-1.691-1.132-2.803-3.058-2.803-5.245c0-1.154,0.311-2.238,0.854-3.167c3.107,3.811,7.75,6.321,12.986,6.583
	c-0.107-0.46-0.163-0.943-0.163-1.436c0-3.478,2.82-6.3,6.301-6.3c1.812,0,3.449,0.766,4.599,1.989
	c1.435-0.282,2.783-0.807,4.002-1.529c-0.474,1.473-1.471,2.707-2.773,3.485c1.276-0.152,2.491-0.491,3.621-0.992
	C40.894,18.962,39.825,20.072,38.594,20.96z"/>
</svg>
